<?xml version="1.0" standalone="no"?>
<!DOCTYPE svg PUBLIC "-//W3C//DTD SVG 1.1//EN" "http://www.w3.org/Graphics/SVG/1.1/DTD/svg11.dtd" >
<svg xmlns="http://www.w3.org/2000/svg" xmlns:xlink="http://www.w3.org/1999/xlink" version="1.1">
<metadata>
Created by FontForge 20170731 at Tue Jan 26 18:44:37 2016
 By ,,,
Copyright 2015 Samsung Electronics Co., Ltd. All Rights Reserved.
</metadata>
<defs>
<font id="SamsungOne-450" horiz-adv-x="0" >
  <font-face 
    font-family="SamsungOne 450"
    font-weight="450"
    font-stretch="normal"
    units-per-em="1024"
    panose-1="2 11 5 3 3 3 3 2 2 4"
    ascent="794"
    descent="-230"
    x-height="535"
    cap-height="724"
    bbox="-680 -304 2454 1047"
    underline-thickness="31"
    underline-position="-163"
    unicode-range="U+0002-1F16B"
  />
<missing-glyph horiz-adv-x="690" 
d="M594 0h-73h-383h-42v724h73h425v-724zM521 655h-318l318 -526v526zM169 69h319l-319 526v-526z" />
    <glyph glyph-name="fi" unicode="fi" horiz-adv-x="628" 
d="M112 470h-92v65h92v66q0 82 48.5 128.5t134.5 46.5q32 0 52 -5v-68q-32 4 -52 4q-52 0 -79 -27t-27 -79v-66h139v-65h-139v-470h-77v470zM456 535h77v-535h-77v535zM455.5 643.5q-14.5 14.5 -14.5 40.5t14.5 41t39.5 15t39.5 -14.5t14.5 -40.5t-14.5 -41t-39.5 -15
t-39.5 14.5z" />
    <glyph glyph-name="fl" unicode="fl" horiz-adv-x="668" 
d="M112 470h-92v65h92v66q0 82 48.5 128.5t134.5 46.5q32 0 52 -5v-68q-32 4 -52 4q-52 0 -79 -27t-27 -79v-66h139v-65h-139v-470h-77v470zM481 23.5q-29 29.5 -29 87.5v659h77v-654q0 -28 13 -40.5t42 -12.5q18 0 39 4l8 -65q-32 -8 -64 -8q-57 0 -86 29.5z" />
    <glyph glyph-name=".notdef" horiz-adv-x="690" 
d="M594 0h-73h-383h-42v724h73h425v-724zM521 655h-318l318 -526v526zM169 69h319l-319 526v-526z" />
    <glyph glyph-name="uni0000" 
 />
    <glyph glyph-name="nonmarkingreturn" unicode="&#xd;" 
 />
    <glyph glyph-name="uni0002" 
 />
    <glyph glyph-name="uni0008" horiz-adv-x="260" 
 />
    <glyph glyph-name="uni0009" unicode="&#x9;" horiz-adv-x="512" 
 />
    <glyph glyph-name="uni001D" horiz-adv-x="229" 
 />
    <glyph glyph-name="space" unicode=" " horiz-adv-x="229" 
 />
    <glyph glyph-name="exclam" unicode="!" horiz-adv-x="347" 
d="M127 724h91l-14 -527h-62zM131 2.5q-15 15.5 -15 42.5t15 42.5t43 15.5q27 0 42 -15t15 -42q0 -28 -15 -43.5t-42 -15.5q-28 0 -43 15.5z" />
    <glyph glyph-name="quotedbl" unicode="&#x22;" horiz-adv-x="366" 
d="M216 724h83l-17 -234h-49zM67 724h83l-17 -234h-49z" />
    <glyph glyph-name="numbersign" unicode="#" horiz-adv-x="655" 
d="M478 459l-30 -194h125v-57h-134l-33 -208h-66l33 208h-139l-32 -208h-66l33 208h-130v57h139l31 194h-128v57h137l32 208h66l-33 -208h139l33 208h65l-32 -208h128v-57h-138zM413 459h-139l-31 -194h139z" />
    <glyph glyph-name="dollar" unicode="$" horiz-adv-x="545" 
d="M439 71q-48 -51 -135 -62v-94h-65v91q-51 3 -100.5 17t-88.5 37l26 64q79 -46 164 -50v260l-17 5q-85 23 -125.5 68t-40.5 118q0 83 48 133.5t134 58.5v92h65v-92q85 -6 163 -39l-25 -65q-76 30 -139 36v-252l18 -5q85 -23 125.5 -68t40.5 -118q0 -84 -48 -135z
M157.5 459q24.5 -28 81.5 -44h1v234q-55 -6 -81 -33.5t-26 -79.5q0 -49 24.5 -77zM384.5 113.5q26.5 29.5 26.5 82.5q0 49 -25 77t-81 43h-2v-239q55 7 81.5 36.5z" />
    <glyph glyph-name="percent" unicode="%" horiz-adv-x="923" 
d="M97.5 353.5q-37.5 55.5 -37.5 164.5q0 108 37.5 163.5t110.5 55.5t110.5 -55.5t37.5 -163.5q0 -109 -37.5 -164.5t-110.5 -55.5t-110.5 55.5zM614 724h76l-381 -724h-76zM265.5 397q18.5 39 18.5 121t-18.5 120.5t-57.5 38.5t-58 -39t-19 -120q0 -82 19 -121t58 -39
t57.5 39zM604.5 42.5q-37.5 55.5 -37.5 163.5q0 109 37.5 164.5t110.5 55.5t110.5 -55.5t37.5 -164.5q0 -108 -37.5 -163.5t-110.5 -55.5t-110.5 55.5zM772.5 85.5q18.5 38.5 18.5 120.5t-18.5 121t-57.5 39t-57.5 -39t-18.5 -121t18.5 -120.5t57.5 -38.5t57.5 38.5z" />
    <glyph glyph-name="ampersand" unicode="&#x26;" horiz-adv-x="644" 
d="M554 -12l-90 105q-41 -54 -93 -80t-117 -26q-90 0 -140.5 46.5t-50.5 129.5q0 49 20 86.5t67 75.5l70 55l-30 36q-43 50 -60 86.5t-17 76.5q0 75 48.5 116.5t136.5 41.5q86 0 134.5 -40t48.5 -113q0 -49 -27.5 -90t-95.5 -96l-32 -26l130 -154l72 149h78l-86 -181
q-4 -9 -14 -27l104 -123zM280 427l39 32q50 39 67 63t17 55q0 91 -106 91t-106 -88q0 -27 13.5 -53.5t49.5 -68.5zM347 79.5q39 22.5 71 68.5l-151 177l-51 -41q-39 -31 -54.5 -58t-15.5 -62q0 -53 28.5 -80t83.5 -27q50 0 89 22.5z" />
    <glyph glyph-name="quotesingle" unicode="'" horiz-adv-x="217" 
d="M67 724h83l-17 -234h-49z" />
    <glyph glyph-name="parenleft" unicode="(" horiz-adv-x="329" 
d="M101 105.5q-39 116.5 -39 235.5q0 120 39 237t109 210l59 -44q-62 -84 -94.5 -186t-32.5 -216t32.5 -216t94.5 -186l-59 -44q-70 93 -109 209.5z" />
    <glyph glyph-name="parenright" unicode=")" horiz-adv-x="329" 
d="M60 -60q62 84 94.5 186t32.5 216t-32.5 216t-94.5 186l58 44q70 -92 109 -209.5t39 -237.5q0 -119 -39 -236t-109 -209z" />
    <glyph glyph-name="asterisk" unicode="*" horiz-adv-x="536" 
d="M311 504l102 -128l-54 -45l-91 138l-90 -138l-55 45l102 128l-159 44l24 69l152 -58l-9 165h70l-9 -165l153 58l23 -69z" />
    <glyph glyph-name="plus" unicode="+" horiz-adv-x="572" 
d="M515 332h-192v-209h-75v209h-191v73h191v209h75v-209h192v-73z" />
    <glyph glyph-name="comma" unicode="," horiz-adv-x="234" 
d="M11 -139q39 42 56 82.5t17 91.5q0 27 -4 61h84q4 -34 4 -59q0 -64 -29 -116.5t-91 -99.5z" />
    <glyph glyph-name="hyphen" unicode="-" horiz-adv-x="406" 
d="M56 330h294v-68h-294v68z" />
    <glyph glyph-name="period" unicode="." horiz-adv-x="248" 
d="M82 2.5q-15 15.5 -15 42.5t15 42.5t42 15.5t42 -15t15 -42q0 -28 -15 -43.5t-42 -15.5t-42 15.5z" />
    <glyph glyph-name="slash" unicode="/" horiz-adv-x="439" 
d="M346 738h68l-320 -824h-68z" />
    <glyph glyph-name="zero" unicode="0" horiz-adv-x="621" 
d="M129.5 79q-59.5 92 -59.5 283q0 192 59.5 283.5t180.5 91.5q122 0 181.5 -91.5t59.5 -283.5t-59.5 -283.5t-181.5 -91.5q-121 0 -180.5 92zM431 131q39 74 39 231t-39 231t-121 74t-120.5 -74t-38.5 -231t38.5 -231t120.5 -74t121 74z" />
    <glyph glyph-name="one" unicode="1" horiz-adv-x="439" 
d="M307 724v-724h-78v637l-169 -58l-23 67l203 78h67z" />
    <glyph glyph-name="two" unicode="2" horiz-adv-x="530" 
d="M466 68v-68h-423v69l253 310q46 57 64.5 94t18.5 73q0 55 -35.5 86.5t-96.5 31.5q-43 0 -87.5 -15t-80.5 -41l-38 62q38 30 96 48.5t115 18.5q93 0 149.5 -50t56.5 -133q0 -49 -23.5 -99.5t-78.5 -117.5l-222 -269h332z" />
    <glyph glyph-name="three" unicode="3" horiz-adv-x="560" 
d="M426 375.5q58 -58.5 58 -155.5q0 -69 -29.5 -122t-83.5 -82t-125 -29q-52 0 -108.5 15.5t-96.5 40.5l33 69q40 -25 85 -38.5t87 -13.5q73 0 114.5 42.5t41.5 117.5q0 71 -40 110.5t-111 39.5q-38 0 -67 -9l-30 37l221 258h-322v68h410v-68l-190 -220q95 -2 153 -60.5z
" />
    <glyph glyph-name="four" unicode="4" horiz-adv-x="578" 
d="M524 228v-69h-94v-159h-76v159h-320v69l285 496h111v-496h94zM354 228v424l-237 -424h237z" />
    <glyph glyph-name="five" unicode="5" horiz-adv-x="551" 
d="M379.5 425.5q48.5 -28.5 75 -80t26.5 -119.5q0 -71 -30 -125.5t-84.5 -84t-125.5 -29.5q-51 0 -103.5 14t-88.5 38l33 68q36 -22 78 -34.5t81 -12.5q74 0 116.5 44.5t42.5 121.5q0 74 -40 115.5t-111 41.5q-35 0 -67 -9.5t-56 -27.5l-47 27l21 351h351v-68h-283l-16 -226
q24 11 55 17.5t60 6.5q64 0 112.5 -28.5z" />
    <glyph glyph-name="six" unicode="6" horiz-adv-x="564" 
d="M415 421q49 -28 76 -79.5t27 -119.5q0 -70 -28.5 -123t-81 -82.5t-121.5 -29.5q-70 0 -122.5 30.5t-81.5 85.5t-29 128q0 70 29.5 139.5t98.5 160.5l157 206l64 -46l-158 -200q-36 -47 -48 -65q41 23 105 23t113 -28zM397.5 99.5q39.5 43.5 39.5 119.5q0 78 -41.5 122.5
t-114.5 44.5q-66 0 -122 -34q-24 -51 -24 -118q0 -83 40.5 -130.5t112.5 -47.5q70 0 109.5 43.5z" />
    <glyph glyph-name="seven" unicode="7" horiz-adv-x="492" 
d="M454 724v-68l-288 -666l-72 30l281 636h-353v68h432z" />
    <glyph glyph-name="eight" unicode="8" horiz-adv-x="584" 
d="M166.5 11q-53.5 24 -83 67.5t-29.5 100.5q0 64 42.5 118t113.5 80q-56 20 -90.5 70t-34.5 110q0 81 56.5 130.5t149.5 49.5q94 0 150.5 -49.5t56.5 -130.5q0 -60 -34 -108.5t-90 -68.5q70 -21 113 -74t43 -119q0 -59 -29.5 -104.5t-84 -70.5t-125.5 -25t-124.5 24z
M386.5 464.5q32.5 38.5 32.5 85.5q0 55 -34 87t-94 32q-58 0 -92 -31.5t-34 -86.5q0 -48 35.5 -86.5t96.5 -57.5q57 19 89.5 57.5zM406.5 91q42.5 35 42.5 95q0 50 -43.5 94t-118.5 70q-71 -25 -111.5 -68t-40.5 -94q0 -62 41.5 -97t114.5 -35t115.5 35z" />
    <glyph glyph-name="nine" unicode="9" horiz-adv-x="564" 
d="M399 706.5q53 -30.5 82 -85.5t29 -128q0 -70 -29.5 -139.5t-99.5 -160.5l-156 -206l-64 46l158 200q36 47 48 65q-43 -23 -105 -23q-64 0 -113 28t-76 79.5t-27 119.5q0 70 28.5 123t80.5 82.5t121 29.5q70 0 123 -30.5zM168 382.5q41 -44.5 114 -44.5q66 0 122 34
q25 48 25 118q0 83 -41 130.5t-113 47.5q-70 0 -109 -43.5t-39 -119.5q0 -78 41 -122.5z" />
    <glyph glyph-name="colon" unicode=":" horiz-adv-x="288" 
d="M102 349.5q-15 15.5 -15 42.5t15 42.5t42 15.5t42 -15t15 -42q0 -28 -15 -43.5t-42 -15.5t-42 15.5zM102 2.5q-15 15.5 -15 42.5t15 42.5t42 15.5t42 -15t15 -42q0 -28 -15 -43.5t-42 -15.5t-42 15.5z" />
    <glyph glyph-name="semicolon" unicode=";" horiz-adv-x="288" 
d="M102 349.5q-15 15.5 -15 42.5t15 42.5t42 15.5t42 -15t15 -42q0 -28 -15 -43.5t-42 -15.5t-42 15.5zM36 -139q39 42 56 82.5t17 91.5q0 27 -4 61h84q4 -34 4 -59q0 -64 -29 -116.5t-91 -99.5z" />
    <glyph glyph-name="less" unicode="&#x3c;" horiz-adv-x="428" 
d="M54 365l263 299l57 -52l-220 -247l220 -247l-57 -52z" />
    <glyph glyph-name="equal" unicode="=" horiz-adv-x="572" 
d="M80 516h412v-73h-412v73zM80 287h412v-73h-412v73z" />
    <glyph glyph-name="greater" unicode="&#x3e;" horiz-adv-x="428" 
d="M54 118l220 247l-220 247l57 52l263 -299l-263 -299z" />
    <glyph glyph-name="question" unicode="?" horiz-adv-x="515" 
d="M186 257q0 55 23.5 94t87.5 90q40 31 54.5 54.5t14.5 57.5q0 109 -118 109q-40 0 -79 -13t-81 -40l-33 68q88 60 194 60q94 0 147 -47t53 -131q0 -50 -22.5 -87.5t-79.5 -80.5q-50 -38 -67 -65.5t-17 -71.5q0 -22 3 -57h-77q-3 38 -3 60zM186 2.5q-15 15.5 -15 42.5
t15 42.5t42 15.5q28 0 43 -15t15 -42q0 -28 -15 -43.5t-43 -15.5q-27 0 -42 15.5z" />
    <glyph glyph-name="at" unicode="@" horiz-adv-x="806" 
d="M531 509v-209q0 -61 52 -61q43 0 66.5 40t23.5 113q0 132 -70 206.5t-196 74.5q-124 0 -194 -82.5t-70 -228.5q0 -147 73 -230t202 -83q82 0 147 35l26 -57q-33 -19 -79 -30t-94 -11q-102 0 -180.5 47t-121.5 132t-43 197t41.5 197t117.5 132t175 47q98 0 173 -43
t116.5 -121.5t41.5 -181.5q0 -94 -41 -151t-108 -57q-28 0 -50 10.5t-34 28.5q-18 -22 -42 -32t-55 -10q-68 0 -106 47.5t-38 132.5q0 86 41.5 134t115.5 48q61 0 110 -34zM469 477q-24 10 -51 10q-44 0 -67 -32t-23 -94q0 -61 22.5 -92.5t66.5 -31.5q17 0 28.5 3.5
t23.5 11.5v225z" />
    <glyph glyph-name="A" unicode="A" horiz-adv-x="666" 
d="M483 195h-301l-66 -195h-85l258 724h89l258 -724h-86zM459 265l-127 374l-127 -374h254z" />
    <glyph glyph-name="B" unicode="B" horiz-adv-x="644" 
d="M558 320.5q34 -44.5 34 -115.5q0 -97 -58 -151t-162 -54h-234h-42v724h79h161q101 0 158 -52t57 -146q0 -57 -23.5 -93.5t-69.5 -50.5q66 -17 100 -61.5zM175 653v-246h161q65 0 99 30.5t34 88.5q0 62 -35 94.5t-102 32.5h-157zM475 105q34 34 34 100q0 65 -34.5 98.5
t-102.5 33.5h-197v-266h201q65 0 99 34z" />
    <glyph glyph-name="C" unicode="C" horiz-adv-x="599" 
d="M201 31q-72 43 -110 124t-38 193q0 116 39 204.5t110 136.5t166 48q49 0 97 -12.5t88 -35.5l-30 -64q-82 39 -157 39q-109 0 -169.5 -81.5t-60.5 -227.5q0 -144 61.5 -218.5t181.5 -74.5q89 0 150 35l30 -63q-32 -22 -81 -34t-105 -12q-100 0 -172 43z" />
    <glyph glyph-name="D" unicode="D" horiz-adv-x="689" 
d="M541 632q86 -92 86 -270t-87 -270t-251 -92h-193v724h197q162 0 248 -92zM480.5 145q63.5 74 63.5 217t-64.5 217t-190.5 74h-114v-582h118q124 0 187.5 74z" />
    <glyph glyph-name="E" unicode="E" horiz-adv-x="574" 
d="M530 71v-71h-434v724h421v-71h-342v-247h257v-72h-257v-263h355z" />
    <glyph glyph-name="F" unicode="F" horiz-adv-x="536" 
d="M175 653v-259h275v-73h-275v-321h-79v724h415v-71h-336z" />
    <glyph glyph-name="G" unicode="G" horiz-adv-x="668" 
d="M592 381v-344q-37 -24 -91 -37t-114 -13q-101 0 -174 44.5t-111.5 129t-38.5 201.5t38.5 201.5t111.5 129t174 44.5q53 0 103 -12t85 -34l-24 -67q-85 41 -166 41q-118 0 -178.5 -77t-60.5 -226q0 -150 61 -227t180 -77q64 0 126 20v232h-133v71h212z" />
    <glyph glyph-name="H" unicode="H" horiz-adv-x="700" 
d="M604 724v-724h-79v332h-350v-332h-79v724h79v-321h350v321h79z" />
    <glyph glyph-name="I" unicode="I" horiz-adv-x="276" 
d="M98 724h79v-724h-79v724z" />
    <glyph glyph-name="J" unicode="J" horiz-adv-x="454" 
d="M77 -1.5q-40 11.5 -68 33.5l31 64q59 -37 124 -37q59 0 89 31t30 91v543h79v-543q0 -92 -52 -143t-146 -51q-47 0 -87 11.5z" />
    <glyph glyph-name="K" unicode="K" horiz-adv-x="618" 
d="M269 332l-94 -112v-220h-79v724h79v-402l326 402h97l-277 -330l292 -394h-96z" />
    <glyph glyph-name="L" unicode="L" horiz-adv-x="527" 
d="M498 72v-72h-402v724h79v-652h323z" />
    <glyph glyph-name="M" unicode="M" horiz-adv-x="844" 
d="M748 724v-724h-77v600l-208 -450h-83l-208 450v-600h-76v724h95l232 -497l228 497h97z" />
    <glyph glyph-name="N" unicode="N" horiz-adv-x="722" 
d="M626 724v-724h-74l-379 590v-590h-77v724h74l379 -588v588h77z" />
    <glyph glyph-name="O" unicode="O" horiz-adv-x="712" 
d="M138.5 82.5q-75.5 95.5 -75.5 279.5t75.5 279.5t217.5 95.5t218 -95.5t76 -279.5t-76 -279.5t-218 -95.5t-217.5 95.5zM513.5 135.5q53.5 77.5 53.5 226.5t-53.5 226.5t-157.5 77.5t-157 -77t-53 -227t53 -227t157 -77t157.5 77.5z" />
    <glyph glyph-name="P" unicode="P" horiz-adv-x="595" 
d="M511.5 663q59.5 -61 59.5 -170q0 -110 -61 -172t-169 -62h-166v-259h-79v724h79h170q107 0 166.5 -61zM452 372q36 41 36 120t-37 120t-110 41h-166v-322h170q71 0 107 41z" />
    <glyph glyph-name="Q" unicode="Q" horiz-adv-x="712" 
d="M605 -153l-136 159q-48 -19 -113 -19q-142 0 -217.5 95.5t-75.5 279.5t75.5 279.5t217.5 95.5t218 -95.5t76 -279.5q0 -114 -30 -194.5t-87 -125.5l127 -138zM199 135q53 -77 157 -77t157.5 77.5t53.5 226.5t-53.5 226.5t-157.5 77.5t-157 -77t-53 -227t53 -227z" />
    <glyph glyph-name="R" unicode="R" horiz-adv-x="631" 
d="M318 279h-143v-279h-79v724h79h161q105 0 164.5 -58.5t59.5 -163.5q0 -86 -40.5 -142t-115.5 -73l190 -287h-97zM175 350h161q141 0 141 152q0 74 -37 112.5t-108 38.5h-157v-303z" />
    <glyph glyph-name="S" unicode="S" horiz-adv-x="560" 
d="M148.5 3q-58.5 15 -103.5 43l28 68q93 -54 194 -54q76 0 118 33.5t42 92.5q0 49 -27.5 80t-86.5 47l-82 23q-93 25 -136 73.5t-43 125.5q0 92 61.5 146.5t166.5 54.5q52 0 107.5 -11.5t100.5 -32.5l-28 -69q-102 41 -182 41q-69 0 -107.5 -31t-38.5 -87q0 -49 28 -80
t87 -47l82 -23q92 -26 135 -74t43 -125q0 -96 -65 -152.5t-175 -56.5q-60 0 -118.5 15z" />
    <glyph glyph-name="T" unicode="T" horiz-adv-x="526" 
d="M496 652h-193v-652h-79v652h-193v72h272h193v-72z" />
    <glyph glyph-name="U" unicode="U" horiz-adv-x="684" 
d="M157 58q-66 71 -66 198v468h79v-467q0 -98 43.5 -148.5t128.5 -50.5t128.5 50.5t43.5 148.5v467h79v-468q0 -127 -66.5 -198t-185.5 -71q-118 0 -184 71z" />
    <glyph glyph-name="V" unicode="V" horiz-adv-x="630" 
d="M596 724l-236 -724h-89l-236 724h86l196 -634l194 634h85z" />
    <glyph glyph-name="W" unicode="W" horiz-adv-x="894" 
d="M858 724l-185 -724h-89l-138 602l-136 -602h-89l-184 724h84l145 -629l138 628h87l139 -626l145 627h83z" />
    <glyph glyph-name="X" unicode="X" horiz-adv-x="606" 
d="M481 0l-179 302l-178 -302h-92l227 365l-220 359h94l172 -292l176 292h92l-224 -355l226 -369h-94z" />
    <glyph glyph-name="Y" unicode="Y" horiz-adv-x="586" 
d="M560 724l-228 -466v-258h-79v258l-226 466h88l179 -374l179 374h87z" />
    <glyph glyph-name="Z" unicode="Z" horiz-adv-x="551" 
d="M504 70v-70h-459v71l366 583h-354v70h443v-70l-366 -584h370z" />
    <glyph glyph-name="bracketleft" unicode="[" horiz-adv-x="351" 
d="M170 710v-736h149v-64h-223v864h223v-64h-149z" />
    <glyph glyph-name="backslash" unicode="\" horiz-adv-x="439" 
d="M345 -86l-320 824h67l321 -824h-68z" />
    <glyph glyph-name="bracketright" unicode="]" horiz-adv-x="351" 
d="M254 774v-864h-222v64h149v736h-149v64h222z" />
    <glyph glyph-name="asciicircum" unicode="^" horiz-adv-x="412" 
d="M163 724h85l141 -195h-90l-92 139l-94 -139h-90z" />
    <glyph glyph-name="underscore" unicode="_" horiz-adv-x="597" 
d="M96 -74h405v-74h-405v74z" />
    <glyph glyph-name="grave" unicode="`" horiz-adv-x="500" 
d="M122 774v10h90l94 -159v-10h-60z" />
    <glyph glyph-name="a" unicode="a" horiz-adv-x="529" 
d="M390.5 504.5q52.5 -43.5 52.5 -126.5v-378h-71v66q-52 -77 -161 -77q-79 0 -123 42t-44 117q0 96 78.5 141.5t244.5 46.5v35q0 52 -32 78.5t-94 26.5q-63 0 -126 -29l-20 64q74 37 156 37q87 0 139.5 -43.5zM367 123v150q-127 -1 -186.5 -29.5t-59.5 -89.5
q0 -47 27.5 -71t80.5 -24q80 0 138 64z" />
    <glyph glyph-name="b" unicode="b" horiz-adv-x="575" 
d="M466 473q53 -75 53 -209q0 -131 -56 -204t-156 -73q-44 0 -81 17.5t-62 50.5v-55h-72v63v432v275h77v-296q54 74 149 74t148 -75zM405 109.5q34 52.5 34 153.5q0 104 -35.5 157.5t-105.5 53.5q-38 0 -69.5 -15.5t-59.5 -48.5v-291q25 -29 60.5 -45.5t74.5 -16.5
q67 0 101 52.5z" />
    <glyph glyph-name="c" unicode="c" horiz-adv-x="479" 
d="M115 62q-63 74 -63 207q0 83 29 146.5t82 98t123 34.5q39 0 79 -12t73 -32l-30 -62q-65 35 -124 35q-72 0 -112 -53.5t-40 -148.5q0 -106 41.5 -160.5t123.5 -54.5q61 0 118 34l29 -62q-29 -21 -69 -32.5t-84 -11.5q-113 0 -176 74z" />
    <glyph glyph-name="d" unicode="d" horiz-adv-x="575" 
d="M482 770v-770h-71v69q-27 -40 -66.5 -61t-88.5 -21q-95 0 -147.5 75t-52.5 209q0 131 55.5 204t155.5 73q42 0 77.5 -16t60.5 -45v283h77zM344.5 76.5q31.5 15.5 60.5 47.5v293q-25 29 -60.5 45t-74.5 16q-67 0 -100.5 -52.5t-33.5 -154.5q0 -104 35 -157t105 -53
q37 0 68.5 15.5z" />
    <glyph glyph-name="e" unicode="e" horiz-adv-x="539" 
d="M486 247h-354q5 -92 46.5 -139.5t118.5 -47.5q74 0 138 41l29 -61q-31 -25 -76.5 -38.5t-95.5 -13.5q-112 0 -175 74t-63 205q0 133 58 207t162 74q102 0 158.5 -68t56.5 -190q0 -25 -3 -43zM175 436q-35 -43 -42 -126h278q-1 80 -37.5 124.5t-101.5 44.5q-62 0 -97 -43z
" />
    <glyph glyph-name="f" unicode="f" horiz-adv-x="362" 
d="M112 470h-92v65h92v66q0 82 48.5 128.5t134.5 46.5q32 0 52 -5v-68q-32 4 -52 4q-52 0 -79 -27t-27 -79v-66h139v-65h-139v-470h-77v470z" />
    <glyph glyph-name="g" unicode="g" horiz-adv-x="577" 
d="M485 535v-537q0 -103 -61.5 -160.5t-170.5 -57.5q-41 0 -80.5 8t-66.5 23l23 68q58 -28 122 -28q77 0 117 37t40 110v93q-54 -74 -150 -74q-95 0 -148.5 71t-53.5 198q0 124 56 193t157 69q44 0 81.5 -18t63.5 -51v56h71zM348.5 106.5q31.5 15.5 59.5 48.5v261
q-26 30 -61.5 46t-74.5 16q-67 0 -101.5 -48.5t-34.5 -143.5q0 -96 36 -145.5t107 -49.5q38 0 69.5 15.5z" />
    <glyph glyph-name="h" unicode="h" horiz-adv-x="583" 
d="M451.5 503q43.5 -45 43.5 -125v-378h-77v372q0 102 -111 102q-39 0 -72 -12.5t-66 -39.5v-422h-77v770h77v-287q67 65 160 65q79 0 122.5 -45z" />
    <glyph glyph-name="i" unicode="i" horiz-adv-x="266" 
d="M94 535h77v-535h-77v535zM93.5 643.5q-14.5 14.5 -14.5 40.5t14.5 41t39.5 15t39.5 -14.5t14.5 -40.5t-14.5 -41t-39.5 -15t-39.5 14.5z" />
    <glyph glyph-name="j" unicode="j" horiz-adv-x="266" 
d="M-43 -155q54 19 83.5 41t41.5 55t12 87v507h77v-507q0 -72 -16.5 -117t-57 -75.5t-114.5 -55.5zM93.5 643.5q-14.5 14.5 -14.5 40.5t14.5 41t39.5 15t39.5 -14.5t14.5 -40.5t-14.5 -41t-39.5 -15t-39.5 14.5z" />
    <glyph glyph-name="k" unicode="k" horiz-adv-x="537" 
d="M245 251l-76 -85v-166h-77v770h77v-509l237 274h94l-202 -225l213 -310h-94z" />
    <glyph glyph-name="l" unicode="l" horiz-adv-x="306" 
d="M119 23.5q-29 29.5 -29 87.5v659h77v-654q0 -28 13 -40.5t42 -12.5q18 0 39 4l8 -65q-32 -8 -64 -8q-57 0 -86 29.5z" />
    <glyph glyph-name="m" unicode="m" horiz-adv-x="883" 
d="M754 503q42 -45 42 -125v-378h-77v372q0 102 -104 102q-36 0 -69 -13.5t-66 -41.5q4 -17 4 -41v-378h-77v372q0 50 -26.5 76t-78.5 26q-36 0 -68 -12.5t-65 -39.5v-422h-77v535h72v-58q66 71 160 71q51 0 87.5 -21.5t55.5 -61.5q71 83 170 83q75 0 117 -45z" />
    <glyph glyph-name="n" unicode="n" horiz-adv-x="581" 
d="M449.5 503q43.5 -45 43.5 -125v-378h-77v372q0 50 -28 76t-82 26q-38 0 -71 -12.5t-66 -39.5v-422h-77v535h72v-58q66 71 164 71q78 0 121.5 -45z" />
    <glyph glyph-name="o" unicode="o" horiz-adv-x="556" 
d="M113 58.5q-57 71.5 -57 208.5q0 138 57.5 209.5t164.5 71.5t164.5 -71.5t57.5 -209.5q0 -137 -58 -208.5t-165 -71.5t-164 71.5zM383.5 109.5q36.5 53.5 36.5 157.5t-36 158t-106 54t-106 -53.5t-36 -158.5q0 -104 35.5 -157.5t105.5 -53.5t106.5 53.5z" />
    <glyph glyph-name="p" unicode="p" horiz-adv-x="575" 
d="M466 473q53 -75 53 -209q0 -131 -56 -204t-156 -73q-41 0 -76.5 16t-61.5 45v-255h-77v270v432v40h72v-40v-29q55 82 154 82q95 0 148 -75zM405 109.5q34 52.5 34 153.5q0 104 -35.5 157.5t-105.5 53.5q-38 0 -69.5 -15.5t-59.5 -48.5v-291q25 -29 60.5 -45.5t74.5 -16.5
q67 0 101 52.5z" />
    <glyph glyph-name="q" unicode="q" horiz-adv-x="575" 
d="M482 535v-742h-77v268q-27 -37 -65 -55.5t-84 -18.5q-95 0 -147.5 75t-52.5 209q0 131 55.5 204t155.5 73q44 0 81.5 -17.5t62.5 -50.5v55h71zM344.5 76.5q31.5 15.5 60.5 47.5v293q-25 29 -60.5 45t-74.5 16q-67 0 -100.5 -52.5t-33.5 -154.5q0 -104 35 -157t105 -53
q37 0 68.5 15.5z" />
    <glyph glyph-name="r" unicode="r" horiz-adv-x="399" 
d="M376 533l-18 -75q-40 10 -70 10q-38 0 -67 -16t-52 -51v-401h-77v535h72v-75q57 86 145 86q35 0 67 -13z" />
    <glyph glyph-name="s" unicode="s" horiz-adv-x="464" 
d="M123 0.5q-47 12.5 -83 35.5l28 65q72 -44 152 -44q59 0 89 22t30 64q0 33 -18.5 52.5t-59.5 29.5l-71 17q-73 17 -108 53t-35 95q0 74 49 115.5t137 41.5q45 0 88.5 -10.5t77.5 -29.5l-30 -65q-72 36 -138 36q-53 0 -80 -20.5t-27 -60.5q0 -31 19 -50t59 -29l71 -17
q73 -17 107.5 -54t34.5 -98q0 -76 -51.5 -118.5t-143.5 -42.5q-50 0 -97 12.5z" />
    <glyph glyph-name="t" unicode="t" horiz-adv-x="384" 
d="M154 37.5q-42 44.5 -42 132.5v300h-92v65h93v159h76v-159h161v-65h-161v-289q0 -61 24.5 -90t75.5 -29q27 0 55 9l13 -66q-36 -12 -80 -12q-81 0 -123 44.5z" />
    <glyph glyph-name="u" unicode="u" horiz-adv-x="573" 
d="M480 535v-535h-71v65q-58 -78 -161 -78q-77 0 -120 45t-43 125v378h77v-372q0 -50 27.5 -76t80.5 -26q40 0 72.5 15t60.5 47v412h77z" />
    <glyph glyph-name="v" unicode="v" horiz-adv-x="520" 
d="M489 535l-186 -535h-85l-187 535h83l148 -451l145 451h82z" />
    <glyph glyph-name="w" unicode="w" horiz-adv-x="780" 
d="M747 535l-158 -535h-85l-115 425l-114 -425h-85l-157 535h82l119 -451l116 451h81l117 -451l118 451h81z" />
    <glyph glyph-name="x" unicode="x" horiz-adv-x="507" 
d="M381 0l-130 210l-127 -210h-90l175 271l-168 264h92l122 -200l126 200h90l-174 -261l176 -274h-92z" />
    <glyph glyph-name="y" unicode="y" horiz-adv-x="516" 
d="M485 535l-188 -540q-26 -74 -85.5 -128t-150.5 -86l-27 68q71 25 116 60.5t70 85.5l-189 540h83l145 -444l144 444h82z" />
    <glyph glyph-name="z" unicode="z" horiz-adv-x="464" 
d="M420 65v-65h-377v65l284 405h-276v65h365v-65l-285 -405h289z" />
    <glyph glyph-name="braceleft" unicode="{" horiz-adv-x="374" 
d="M209.5 -69q-37.5 25 -54.5 67t-17 110v123q0 40 -27.5 59t-84.5 20v64q57 1 84.5 20t27.5 59v124q0 67 17 109t55 67t104 40l19 -66q-48 -11 -74 -28t-37 -45.5t-11 -76.5v-124q0 -46 -19 -72.5t-59 -37.5q40 -10 59 -37.5t19 -74.5v-123q0 -49 11 -77.5t37 -45.5t74 -28
l-19 -65q-67 14 -104.5 39z" />
    <glyph glyph-name="bar" unicode="|" horiz-adv-x="253" 
d="M96 816h61v-1066h-61v1066z" />
    <glyph glyph-name="braceright" unicode="}" horiz-adv-x="374" 
d="M41 -43q48 11 74 28t37 45.5t11 77.5v123q0 47 19 74.5t59 37.5q-40 10 -59 37t-19 73v124q0 48 -11 76.5t-37 45.5t-74 28l19 66q66 -15 104 -40t54.5 -67t16.5 -109v-124q0 -40 27.5 -59t84.5 -20v-64q-57 -1 -84.5 -20t-27.5 -59v-123q0 -68 -16.5 -110t-54 -67
t-104.5 -39z" />
    <glyph glyph-name="asciitilde" unicode="~" horiz-adv-x="572" 
d="M325 301.5q-20 8.5 -48 25.5q-25 16 -40.5 23t-36.5 7q-25 0 -48.5 -14t-47.5 -43l-47 49q66 80 143 80q27 0 47 -8.5t47 -25.5q25 -15 41 -22.5t37 -7.5q25 0 48 14t47 43l48 -49q-68 -80 -144 -80q-26 0 -46 8.5z" />
    <glyph glyph-name="uni00A0" unicode="&#xa0;" horiz-adv-x="229" 
 />
    <glyph glyph-name="exclamdown" unicode="&#xa1;" horiz-adv-x="347" 
d="M216 531.5q15 -15.5 15 -42.5t-15 -42.5t-43 -15.5q-27 0 -42 15t-15 42q0 28 15 43.5t42 15.5q28 0 43 -15.5zM220 -190h-91l15 527h62z" />
    <glyph glyph-name="cent" unicode="&#xa2;" horiz-adv-x="474" 
d="M370 39.5q-34 -11.5 -69 -13.5v-111h-64v115q-88 15 -136.5 80.5t-48.5 171.5q0 100 50 166.5t135 80.5v115h64v-112q70 -5 124 -37l-29 -59q-47 24 -95 28v-369q48 3 102 33l28 -59q-27 -18 -61 -29.5zM155.5 161q26.5 -46 81.5 -60v360q-108 -24 -108 -173
q0 -81 26.5 -127z" />
    <glyph glyph-name="sterling" unicode="&#xa3;" horiz-adv-x="530" 
d="M147 70h321v-70h-399v70l34 40q65 77 65 195q0 18 -1 26h-107v67h95q-6 20 -22 54q-15 31 -22 55t-7 57q0 82 50.5 127.5t141.5 45.5q110 0 174 -63l-39 -65q-55 53 -135 53q-54 0 -81.5 -25t-27.5 -72q0 -23 6 -42t19 -51q20 -49 26 -74h167v-67h-158v-14
q0 -146 -100 -247z" />
    <glyph glyph-name="currency" unicode="&#xa4;" horiz-adv-x="591" 
d="M465 134l70 -87l-54 -43l-70 85q-48 -27 -116 -27q-67 0 -115 27l-70 -85l-54 43l69 87q-53 67 -53 179q0 111 53 178l-69 87l54 43l69 -85q50 27 116 27q68 0 116 -27l70 85l54 -43l-70 -87q54 -66 54 -178q0 -113 -54 -179zM401 178.5q36 45.5 36 134.5t-36 134
t-106 45t-105.5 -45t-35.5 -134t35.5 -134.5t105.5 -45.5t106 45.5z" />
    <glyph glyph-name="yen" unicode="&#xa5;" horiz-adv-x="540" 
d="M336 333h115v-63h-144v-81h144v-64h-144v-125h-77v125h-143v64h143v81h-143v63h115l-176 391h86l158 -389l158 389h85z" />
    <glyph glyph-name="brokenbar" unicode="&#xa6;" horiz-adv-x="253" 
d="M96 816h61v-447h-61v447zM96 198h61v-448h-61v448z" />
    <glyph glyph-name="section" unicode="&#xa7;" horiz-adv-x="531" 
d="M463 -30q0 -86 -52.5 -134.5t-146.5 -48.5q-47 0 -99 13t-96 36l29 69q92 -46 166 -46q62 0 91 25.5t29 80.5q0 45 -21.5 70.5t-71.5 39.5l-62 18q-82 23 -121 68t-39 116q0 86 55 146q-51 45 -51 128q0 87 53.5 136t150.5 49q43 0 87 -9.5t79 -26.5l-28 -69
q-70 33 -140 33q-64 0 -94 -26t-30 -82q0 -45 22 -70.5t72 -39.5l62 -18q80 -23 118 -67.5t38 -115.5q0 -86 -54 -145q54 -48 54 -130zM307 152q28 -9 45 -16q38 41 38 99q0 46 -23.5 73t-76.5 43l-62 18q-26 8 -48 18q-38 -41 -38 -99q0 -47 24 -74.5t79 -43.5z" />
    <glyph glyph-name="dieresis" unicode="&#xa8;" horiz-adv-x="500" 
d="M119.5 642q-13.5 14 -13.5 39t13.5 39t37.5 14q25 0 38 -13.5t13 -38.5q0 -26 -13 -40t-38 -14q-24 0 -37.5 14zM305 642q-13 14 -13 39q0 26 13 39.5t38 13.5q24 0 37.5 -13.5t13.5 -38.5t-13.5 -39.5t-37.5 -14.5q-25 0 -38 14z" />
    <glyph glyph-name="copyright" unicode="&#xa9;" horiz-adv-x="831" 
d="M242 31q-73 44 -112 128.5t-39 202.5t39 202.5t112 128.5t173 44q101 0 174 -44t112 -128.5t39 -202.5t-39 -202.5t-112 -128.5t-174 -44q-100 0 -173 44zM612 126.5q70 83.5 70 235.5t-70 235.5t-197 83.5t-196.5 -83.5t-69.5 -235.5t69.5 -235.5t196.5 -83.5t197 83.5z
M314 226.5q-41 48.5 -41 136.5q0 86 40 134.5t113 48.5q28 0 55.5 -7.5t48.5 -20.5l-25 -51q-43 23 -80 23q-44 0 -67.5 -31.5t-23.5 -91.5q0 -66 25 -99.5t74 -33.5q40 0 78 23l22 -50q-20 -14 -47 -21.5t-57 -7.5q-74 0 -115 48.5z" />
    <glyph glyph-name="ordfeminine" unicode="&#xaa;" horiz-adv-x="518" 
d="M369.5 695.5q42.5 -34.5 42.5 -95.5v-269q-36 -19 -80 -29t-86 -10q-82 0 -127 34t-45 96q0 77 62 110t204 33v26q0 36 -25 54.5t-73 18.5q-51 0 -108 -25l-20 59q60 32 136 32q77 0 119.5 -34.5zM246 357q55 0 94 15v136q-104 0 -149.5 -20t-45.5 -64q0 -67 101 -67z
M95 188h317v-63h-317v63z" />
    <glyph glyph-name="guillemotleft" unicode="&#xab;" horiz-adv-x="581" 
d="M366 287l170 -196l-53 -49l-210 243l211 244l52 -49zM134 287l170 -196l-53 -49l-210 243l211 244l52 -49z" />
    <glyph glyph-name="logicalnot" unicode="&#xac;" horiz-adv-x="572" 
d="M501 488v-73v-168h-75v168h-355v73h430z" />
    <glyph glyph-name="uni00AD" unicode="&#xad;" horiz-adv-x="406" 
d="M56 330h294v-68h-294v68z" />
    <glyph glyph-name="registered" unicode="&#xae;" horiz-adv-x="831" 
d="M589 693q73 -44 112 -128.5t39 -202.5t-39 -202.5t-112 -128.5t-174 -44q-100 0 -173 44t-112 128.5t-39 202.5t39 202.5t112 128.5t173 44q101 0 174 -44zM612 126.5q70 83.5 70 235.5t-70 235.5t-197 83.5t-196.5 -83.5t-69.5 -235.5t69.5 -235.5t196.5 -83.5t197 83.5
zM520 352.5q-16 -28.5 -45 -41.5l76 -127h-71l-65 116h-51v-116h-59v356h119q53 0 82.5 -31.5t29.5 -87.5q0 -40 -16 -68.5zM364 354h60q49 0 49 64q0 65 -54 65h-55v-129z" />
    <glyph glyph-name="macron" unicode="&#xaf;" horiz-adv-x="500" 
d="M106 701h288v-60h-288v60z" />
    <glyph glyph-name="degree" unicode="&#xb0;" horiz-adv-x="449" 
d="M102 440.5q-47 47.5 -47 123.5t47 124t122 48t122.5 -48t47.5 -124t-47.5 -123.5t-122.5 -47.5t-122 47.5zM292.5 492q26.5 28 26.5 72q0 45 -26.5 73t-68.5 28t-68 -28t-26 -73q0 -44 26 -72t68 -28t68.5 28z" />
    <glyph glyph-name="plusminus" unicode="&#xb1;" horiz-adv-x="572" 
d="M515 482v-73h-192v-182h-75v182h-191v73h191v183h75v-183h192zM57 159h458v-71h-458v71z" />
    <glyph glyph-name="uni00B2" unicode="&#xb2;" horiz-adv-x="376" 
d="M322 389v-59h-289v59l164 172q27 28 36.5 47t9.5 42q0 31 -17.5 47t-50.5 16q-26 0 -55.5 -10t-57.5 -29l-30 52q32 24 71 37.5t77 13.5q63 0 98 -31.5t35 -89.5q0 -33 -15.5 -63t-54.5 -71l-130 -133h209z" />
    <glyph glyph-name="uni00B3" unicode="&#xb3;" horiz-adv-x="400" 
d="M298.5 561.5q36.5 -34.5 36.5 -94.5q0 -68 -44 -106t-123 -38q-39 0 -75 10.5t-61 29.5l26 57q48 -33 110 -33q47 0 71.5 20t24.5 59q0 76 -90 76q-27 0 -48 -6l-23 32l134 143h-196v59h273v-59l-116 -114q64 -1 100.5 -35.5z" />
    <glyph glyph-name="acute" unicode="&#xb4;" horiz-adv-x="500" 
d="M198 625l103 159h89v-10l-132 -159h-60v10z" />
    <glyph glyph-name="uni00B5" unicode="&#xb5;" horiz-adv-x="586" 
d="M494 535v-535h-70v66q-58 -78 -161 -78q-66 0 -94 37v-232h-77v540v202h77v-363q0 -55 28.5 -83.5t82.5 -28.5q42 0 75 15.5t62 47.5v412h77z" />
    <glyph glyph-name="paragraph" unicode="&#xb6;" horiz-adv-x="572" 
d="M476 0h-68v655h-80v-655h-67v322h-2q-106 0 -166 53t-60 147q0 95 60.5 148.5t169.5 53.5h213v-724z" />
    <glyph glyph-name="periodcentered" unicode="&#xb7;" horiz-adv-x="248" 
d="M81.5 291q-14.5 15 -14.5 42q0 28 14.5 43t42.5 15q27 0 42 -15t15 -42q0 -28 -15 -43t-42 -15q-28 0 -42.5 15z" />
    <glyph glyph-name="cedilla" unicode="&#xb8;" horiz-adv-x="500" 
d="M334.5 -80.5q27.5 -21.5 27.5 -59.5q0 -42 -31 -65t-86 -23q-56 0 -100 23l16 46q48 -19 83 -19q53 0 53 38t-49 38q-22 0 -44 -8l-21 24l45 106l60 -6l-50 -76q9 3 20 3q49 0 76.5 -21.5z" />
    <glyph glyph-name="uni00B9" unicode="&#xb9;" horiz-adv-x="332" 
d="M210 770v-440h-68v369l-96 -33l-19 54l130 50h53z" />
    <glyph glyph-name="ordmasculine" unicode="&#xba;" horiz-adv-x="524" 
d="M124 347q-48 56 -48 165q0 107 48.5 163t138.5 56q89 0 137 -56t48 -163q0 -109 -48 -165t-138 -56t-138 56zM346.5 395q28.5 40 28.5 117t-28.5 116t-83.5 39q-56 0 -85 -39.5t-29 -115.5q0 -77 28.5 -117t84.5 -40t84.5 40zM104 188h317v-63h-317v63z" />
    <glyph glyph-name="guillemotright" unicode="&#xbb;" horiz-adv-x="581" 
d="M309 286l-211 -244l-52 49l170 194l-170 195l53 49zM540 286l-211 -244l-52 49l170 194l-170 195l53 49z" />
    <glyph glyph-name="onequarter" unicode="&#xbc;" horiz-adv-x="883" 
d="M659 702l-425 -713l-57 33l425 713zM142 284v369l-96 -33l-19 54l130 50h53v-440h-68zM847 144v-57h-57v-87h-65v87h-206v57l174 296h97v-296h57zM725 144v238l-138 -238h138z" />
    <glyph glyph-name="onehalf" unicode="&#xbd;" horiz-adv-x="918" 
d="M659 702l-425 -713l-57 33l425 713zM142 284v369l-96 -33l-19 54l130 50h53v-440h-68zM867 59v-59h-289v59l164 172q27 28 36.5 47t9.5 42q0 31 -17.5 47t-50.5 16q-26 0 -55.5 -10t-57.5 -29l-30 52q32 24 71 37.5t77 13.5q63 0 98 -32t35 -89q0 -33 -15.5 -63
t-54.5 -71l-130 -133h209z" />
    <glyph glyph-name="threequarters" unicode="&#xbe;" horiz-adv-x="968" 
d="M745 702l-425 -713l-57 33l425 713zM291 314.5q-44 -37.5 -123 -37.5q-39 0 -75 10.5t-61 29.5l26 57q48 -33 110 -33q47 0 71.5 20t24.5 59q0 37 -23 56.5t-67 19.5q-27 0 -48 -6l-23 32l134 143h-196v59h273v-59l-116 -114q64 -1 100.5 -35.5t36.5 -95.5
q0 -68 -44 -105.5zM932 144v-57h-57v-87h-65v87h-206v57l174 296h97v-296h57zM810 144v238l-138 -238h138z" />
    <glyph glyph-name="questiondown" unicode="&#xbf;" horiz-adv-x="465" 
d="M329 531.5q15 -15.5 15 -42.5t-15 -42.5t-42 -15.5q-28 0 -43 15t-15 42q0 28 15 43.5t43 15.5q27 0 42 -15.5zM328 277q0 -56 -23.5 -94.5t-87.5 -89.5q-40 -31 -54.5 -54.5t-14.5 -57.5q0 -109 119 -109q77 0 159 53l33 -68q-86 -60 -193 -60q-95 0 -148 47t-53 131
q0 50 22.5 87.5t79.5 80.5q50 38 67 65.5t17 71.5q0 23 -3 57h77q3 -37 3 -60z" />
    <glyph glyph-name="Agrave" unicode="&#xc0;" horiz-adv-x="666" 
d="M326 781l-173 133v12h100l143 -133v-12h-70zM483 195h-301l-66 -195h-85l258 724h89l258 -724h-86zM459 265l-127 374l-127 -374h254z" />
    <glyph glyph-name="Aacute" unicode="&#xc1;" horiz-adv-x="666" 
d="M339 781h-70v12l153 133h99v-12zM483 195h-301l-66 -195h-85l258 724h89l258 -724h-86zM459 265l-127 374l-127 -374h254z" />
    <glyph glyph-name="Acircumflex" unicode="&#xc2;" horiz-adv-x="666" 
d="M234 781h-61v12l117 133h86l117 -133v-12h-64l-98 92zM483 195h-301l-66 -195h-85l258 724h89l258 -724h-86zM459 265l-127 374l-127 -374h254z" />
    <glyph glyph-name="Atilde" unicode="&#xc3;" horiz-adv-x="666" 
d="M218 792h-50q2 59 26.5 93t68.5 34q26 0 46 -10.5t44 -29.5q18 -14 29 -20.5t23 -6.5q35 0 43 65h50q-2 -60 -26.5 -93.5t-68.5 -33.5q-26 0 -45 10t-45 29q-18 14 -29 20.5t-23 6.5q-35 0 -43 -64zM483 195h-301l-66 -195h-85l258 724h89l258 -724h-86zM459 265
l-127 374l-127 -374h254z" />
    <glyph glyph-name="Adieresis" unicode="&#xc4;" horiz-adv-x="666" 
d="M198.5 811q-13.5 14 -13.5 39t13.5 39t37.5 14q25 0 38.5 -14t13.5 -38q0 -26 -13.5 -40t-38.5 -14q-24 0 -37.5 14zM392.5 811q-13.5 14 -13.5 39t13.5 39t37.5 14q25 0 38.5 -14t13.5 -38q0 -26 -13.5 -40t-38.5 -14q-24 0 -37.5 14zM483 195h-301l-66 -195h-85
l258 724h89l258 -724h-86zM459 265l-127 374l-127 -374h254z" />
    <glyph glyph-name="Aring" unicode="&#xc5;" horiz-adv-x="666" 
d="M246 797q-31 28 -31 79q0 50 31.5 78.5t86.5 28.5t86.5 -28.5t31.5 -78.5q0 -51 -31 -79t-87 -28t-87 28zM273 876q0 -61 60 -61t60 61q0 60 -60 60t-60 -60zM483 195h-301l-66 -195h-85l258 724h89l258 -724h-86zM459 265l-127 374l-127 -374h254z" />
    <glyph glyph-name="AE" unicode="&#xc6;" horiz-adv-x="901" 
d="M856 71v-71h-417v187h-255l-99 -187h-87l391 724h81h374v-71h-328v-247h242v-72h-242v-263h340zM439 257v409l-218 -409h218z" />
    <glyph glyph-name="Ccedilla" unicode="&#xc7;" horiz-adv-x="599" 
d="M435.5 -80.5q27.5 -21.5 27.5 -59.5q0 -42 -31 -65t-86 -23q-56 0 -100 23l16 46q48 -19 83 -19q53 0 53 38t-49 38q-22 0 -44 -8l-21 24l33 78q-126 17 -195 110t-69 246q0 116 39 204.5t110 136.5t166 48q49 0 97 -12.5t88 -35.5l-30 -64q-82 39 -157 39
q-109 0 -169.5 -81.5t-60.5 -227.5q0 -144 61.5 -218.5t181.5 -74.5q89 0 150 35l30 -63q-32 -22 -81 -34t-105 -12h-1l-33 -49q14 2 20 2q49 0 76.5 -21.5z" />
    <glyph glyph-name="Egrave" unicode="&#xc8;" horiz-adv-x="574" 
d="M305 781l-173 133v12h100l143 -133v-12h-70zM530 71v-71h-434v724h421v-71h-342v-247h257v-72h-257v-263h355z" />
    <glyph glyph-name="Eacute" unicode="&#xc9;" horiz-adv-x="574" 
d="M318 781h-70v12l153 133h99v-12zM530 71v-71h-434v724h421v-71h-342v-247h257v-72h-257v-263h355z" />
    <glyph glyph-name="Ecircumflex" unicode="&#xca;" horiz-adv-x="574" 
d="M213 781h-61v12l117 133h86l117 -133v-12h-64l-98 92zM530 71v-71h-434v724h421v-71h-342v-247h257v-72h-257v-263h355z" />
    <glyph glyph-name="Edieresis" unicode="&#xcb;" horiz-adv-x="574" 
d="M177.5 811q-13.5 14 -13.5 39t13.5 39t37.5 14q25 0 38.5 -14t13.5 -38q0 -26 -13.5 -40t-38.5 -14q-24 0 -37.5 14zM371.5 811q-13.5 14 -13.5 39t13.5 39t37.5 14q25 0 38.5 -14t13.5 -38q0 -26 -13.5 -40t-38.5 -14q-24 0 -37.5 14zM530 71v-71h-434v724h421v-71h-342
v-247h257v-72h-257v-263h355z" />
    <glyph glyph-name="Igrave" unicode="&#xcc;" horiz-adv-x="276" 
d="M-42 914v12h100l143 -133v-12h-70zM98 724h79v-724h-79v724z" />
    <glyph glyph-name="Iacute" unicode="&#xcd;" horiz-adv-x="276" 
d="M74 793l153 133h99v-12l-182 -133h-70v12zM98 724h79v-724h-79v724z" />
    <glyph glyph-name="Icircumflex" unicode="&#xce;" horiz-adv-x="276" 
d="M298 793v-12h-64l-98 92l-97 -92h-61v12l117 133h86zM98 724h79v-724h-79v724z" />
    <glyph glyph-name="Idieresis" unicode="&#xcf;" horiz-adv-x="276" 
d="M3.5 811q-13.5 14 -13.5 39t13.5 39t37.5 14q25 0 38.5 -14t13.5 -38q0 -26 -13.5 -40t-38.5 -14q-24 0 -37.5 14zM197.5 811q-13.5 14 -13.5 39t13.5 39t37.5 14q25 0 38.5 -14t13.5 -38q0 -26 -13.5 -40t-38.5 -14q-24 0 -37.5 14zM98 724h79v-724h-79v724z" />
    <glyph glyph-name="Eth" unicode="&#xd0;" horiz-adv-x="688" 
d="M540 632q86 -92 86 -270t-86.5 -270t-250.5 -92h-193v332h-68v69h68v323h196q162 0 248 -92zM479.5 145q63.5 74 63.5 217t-64.5 217t-190.5 74h-113v-252h188v-69h-188v-261h117q124 0 187.5 74z" />
    <glyph glyph-name="Ntilde" unicode="&#xd1;" horiz-adv-x="722" 
d="M246 792h-50q2 59 26.5 93t68.5 34q26 0 46 -10.5t44 -29.5q18 -14 29 -20.5t23 -6.5q35 0 43 65h50q-2 -60 -26.5 -93.5t-68.5 -33.5q-26 0 -45 10t-45 29q-18 14 -29 20.5t-23 6.5q-35 0 -43 -64zM626 724v-724h-74l-379 590v-590h-77v724h74l379 -588v588h77z" />
    <glyph glyph-name="Ograve" unicode="&#xd2;" horiz-adv-x="712" 
d="M176 914v12h100l143 -133v-12h-70zM138.5 82.5q-75.5 95.5 -75.5 279.5t75.5 279.5t217.5 95.5t218 -95.5t76 -279.5t-76 -279.5t-218 -95.5t-217.5 95.5zM513.5 135.5q53.5 77.5 53.5 226.5t-53.5 226.5t-157.5 77.5t-157 -77t-53 -227t53 -227t157 -77t157.5 77.5z" />
    <glyph glyph-name="Oacute" unicode="&#xd3;" horiz-adv-x="712" 
d="M292 793l153 133h99v-12l-182 -133h-70v12zM138.5 82.5q-75.5 95.5 -75.5 279.5t75.5 279.5t217.5 95.5t218 -95.5t76 -279.5t-76 -279.5t-218 -95.5t-217.5 95.5zM513.5 135.5q53.5 77.5 53.5 226.5t-53.5 226.5t-157.5 77.5t-157 -77t-53 -227t53 -227t157 -77
t157.5 77.5z" />
    <glyph glyph-name="Ocircumflex" unicode="&#xd4;" horiz-adv-x="712" 
d="M257 781h-61v12l117 133h86l117 -133v-12h-64l-98 92zM574 641.5q76 -95.5 76 -279.5t-76 -279.5t-218 -95.5t-217.5 95.5t-75.5 279.5t75.5 279.5t217.5 95.5t218 -95.5zM513.5 135.5q53.5 77.5 53.5 226.5t-53.5 226.5t-157.5 77.5t-157 -77t-53 -227t53 -227t157 -77
t157.5 77.5z" />
    <glyph glyph-name="Otilde" unicode="&#xd5;" horiz-adv-x="712" 
d="M381 800q-19 10 -45 29q-18 14 -29 20.5t-23 6.5q-35 0 -43 -64h-50q2 59 26.5 93t68.5 34q26 0 46 -10.5t44 -29.5q18 -14 29 -20.5t23 -6.5q35 0 43 65h50q-2 -60 -26.5 -93.5t-68.5 -33.5q-26 0 -45 10zM138.5 82.5q-75.5 95.5 -75.5 279.5t75.5 279.5t217.5 95.5
t218 -95.5t76 -279.5t-76 -279.5t-218 -95.5t-217.5 95.5zM513.5 135.5q53.5 77.5 53.5 226.5t-53.5 226.5t-157.5 77.5t-157 -77t-53 -227t53 -227t157 -77t157.5 77.5z" />
    <glyph glyph-name="Odieresis" unicode="&#xd6;" horiz-adv-x="712" 
d="M221.5 811q-13.5 14 -13.5 39t13.5 39t37.5 14q25 0 38.5 -14t13.5 -38q0 -26 -13.5 -40t-38.5 -14q-24 0 -37.5 14zM415.5 811q-13.5 14 -13.5 39t13.5 39t37.5 14q25 0 38.5 -14t13.5 -38q0 -26 -13.5 -40t-38.5 -14q-24 0 -37.5 14zM138.5 82.5
q-75.5 95.5 -75.5 279.5t75.5 279.5t217.5 95.5t218 -95.5t76 -279.5t-76 -279.5t-218 -95.5t-217.5 95.5zM513.5 135.5q53.5 77.5 53.5 226.5t-53.5 226.5t-157.5 77.5t-157 -77t-53 -227t53 -227t157 -77t157.5 77.5z" />
    <glyph glyph-name="multiply" unicode="&#xd7;" horiz-adv-x="572" 
d="M335 368l160 -168l-50 -51l-159 167l-160 -167l-50 51l160 168l-160 168l50 51l160 -167l159 167l50 -51z" />
    <glyph glyph-name="Oslash" unicode="&#xd8;" horiz-adv-x="712" 
d="M680 722l-87 -108q57 -96 57 -252q0 -184 -76 -279.5t-218 -95.5q-124 0 -198 74l-54 -71h-71v12l86 108q-56 94 -56 252q0 184 75.5 279.5t217.5 95.5q124 0 198 -74l54 71h72v-12zM197.5 590.5q-53.5 -77.5 -53.5 -228.5q0 -115 27 -186l338 429q-52 63 -153 63
q-105 0 -158.5 -77.5zM515 133.5q54 77.5 54 228.5q0 117 -28 186l-337 -429q51 -63 152 -63q105 0 159 77.5z" />
    <glyph glyph-name="Ugrave" unicode="&#xd9;" horiz-adv-x="684" 
d="M162 914v12h100l143 -133v-12h-70zM157 58q-66 71 -66 198v468h79v-467q0 -98 43.5 -148.5t128.5 -50.5t128.5 50.5t43.5 148.5v467h79v-468q0 -127 -66.5 -198t-185.5 -71q-118 0 -184 71z" />
    <glyph glyph-name="Uacute" unicode="&#xda;" horiz-adv-x="684" 
d="M278 793l153 133h99v-12l-182 -133h-70v12zM157 58q-66 71 -66 198v468h79v-467q0 -98 43.5 -148.5t128.5 -50.5t128.5 50.5t43.5 148.5v467h79v-468q0 -127 -66.5 -198t-185.5 -71q-118 0 -184 71z" />
    <glyph glyph-name="Ucircumflex" unicode="&#xdb;" horiz-adv-x="684" 
d="M243 781h-61v12l117 133h86l117 -133v-12h-64l-98 92zM593 724v-468q0 -127 -66.5 -198t-185.5 -71q-118 0 -184 71t-66 198v468h79v-467q0 -98 43.5 -148.5t128.5 -50.5t128.5 50.5t43.5 148.5v467h79z" />
    <glyph glyph-name="Udieresis" unicode="&#xdc;" horiz-adv-x="684" 
d="M207.5 811q-13.5 14 -13.5 39t13.5 39t37.5 14q25 0 38.5 -14t13.5 -38q0 -26 -13.5 -40t-38.5 -14q-24 0 -37.5 14zM401.5 811q-13.5 14 -13.5 39t13.5 39t37.5 14q25 0 38.5 -14t13.5 -38q0 -26 -13.5 -40t-38.5 -14q-24 0 -37.5 14zM157 58q-66 71 -66 198v468h79
v-467q0 -98 43.5 -148.5t128.5 -50.5t128.5 50.5t43.5 148.5v467h79v-468q0 -127 -66.5 -198t-185.5 -71q-118 0 -184 71z" />
    <glyph glyph-name="Yacute" unicode="&#xdd;" horiz-adv-x="586" 
d="M298 781h-70v12l153 133h99v-12zM560 724l-228 -466v-258h-79v258l-226 466h88l179 -374l179 374h87z" />
    <glyph glyph-name="Thorn" unicode="&#xde;" horiz-adv-x="613" 
d="M506.5 538.5q59.5 -59.5 59.5 -167.5t-60 -168.5t-168 -60.5h-163v-142h-79v724h79v-126h165q107 0 166.5 -59.5zM447 253q36 40 36 118q0 77 -37 116.5t-108 39.5h-163v-314h165q71 0 107 40z" />
    <glyph glyph-name="germandbls" unicode="&#xdf;" horiz-adv-x="597" 
d="M500 341.5q51 -58.5 51 -149.5q0 -94 -54.5 -146.5t-151.5 -52.5q-58 0 -110 15l19 68q45 -14 91 -14q64 0 97 32.5t33 95.5q0 80 -52.5 124.5t-155.5 49.5v66q70 31 102.5 72.5t32.5 98.5q0 52 -27 79t-80 27q-62 0 -94 -37t-32 -109v-561h-77v561q0 101 53.5 158
t148.5 57q86 0 134 -45.5t48 -127.5q0 -131 -120 -186q93 -17 144 -75.5z" />
    <glyph glyph-name="agrave" unicode="&#xe0;" horiz-adv-x="529" 
d="M390.5 504.5q52.5 -43.5 52.5 -126.5v-378h-71v66q-52 -77 -161 -77q-79 0 -123 42t-44 117q0 96 78.5 141.5t244.5 46.5v35q0 52 -32 78.5t-94 26.5q-63 0 -126 -29l-20 64q74 37 156 37q87 0 139.5 -43.5zM367 123v150q-127 -1 -186.5 -29.5t-59.5 -89.5
q0 -47 27.5 -71t80.5 -24q80 0 138 64zM124 774v10h89l95 -159v-10h-60z" />
    <glyph glyph-name="aacute" unicode="&#xe1;" horiz-adv-x="529" 
d="M390.5 504.5q52.5 -43.5 52.5 -126.5v-378h-71v66q-52 -77 -161 -77q-79 0 -123 42t-44 117q0 96 78.5 141.5t244.5 46.5v35q0 52 -32 78.5t-94 26.5q-63 0 -126 -29l-20 64q74 37 156 37q87 0 139.5 -43.5zM367 123v150q-127 -1 -186.5 -29.5t-59.5 -89.5
q0 -47 27.5 -71t80.5 -24q80 0 138 64zM200 625l102 159h90v-10l-132 -159h-60v10z" />
    <glyph glyph-name="acircumflex" unicode="&#xe2;" horiz-adv-x="529" 
d="M390.5 504.5q52.5 -43.5 52.5 -126.5v-378h-71v66q-52 -77 -161 -77q-79 0 -123 42t-44 117q0 96 78.5 141.5t244.5 46.5v35q0 52 -32 78.5t-94 26.5q-63 0 -126 -29l-20 64q74 37 156 37q87 0 139.5 -43.5zM367 123v150q-127 -1 -186.5 -29.5t-59.5 -89.5
q0 -47 27.5 -71t80.5 -24q80 0 138 64zM394 625v-10h-58l-86 111l-85 -111h-55v10l102 159h80z" />
    <glyph glyph-name="atilde" unicode="&#xe3;" horiz-adv-x="529" 
d="M390.5 504.5q52.5 -43.5 52.5 -126.5v-378h-71v66q-52 -77 -161 -77q-79 0 -123 42t-44 117q0 96 78.5 141.5t244.5 46.5v35q0 52 -32 78.5t-94 26.5q-63 0 -126 -29l-20 64q74 37 156 37q87 0 139.5 -43.5zM367 123v150q-127 -1 -186.5 -29.5t-59.5 -89.5
q0 -47 27.5 -71t80.5 -24q80 0 138 64zM277 630q-19 10 -45 29q-18 14 -29 20.5t-23 6.5q-35 0 -43 -64h-50q2 59 26.5 93t68.5 34q26 0 46 -10.5t44 -29.5q18 -14 29 -20.5t23 -6.5q35 0 43 65h50q-2 -60 -26.5 -93.5t-68.5 -33.5q-26 0 -45 10z" />
    <glyph glyph-name="adieresis" unicode="&#xe4;" horiz-adv-x="529" 
d="M121.5 642q-13.5 14 -13.5 39t13.5 39t37.5 14q25 0 38.5 -14t13.5 -38q0 -26 -13.5 -40t-38.5 -14q-24 0 -37.5 14zM307.5 642q-13.5 14 -13.5 39t13.5 39t37.5 14q25 0 38.5 -14t13.5 -38q0 -26 -13.5 -40t-38.5 -14q-24 0 -37.5 14zM390.5 504.5
q52.5 -43.5 52.5 -126.5v-378h-71v66q-52 -77 -161 -77q-79 0 -123 42t-44 117q0 96 78.5 141.5t244.5 46.5v35q0 52 -32 78.5t-94 26.5q-63 0 -126 -29l-20 64q74 37 156 37q87 0 139.5 -43.5zM367 123v150q-127 -1 -186.5 -29.5t-59.5 -89.5q0 -47 27.5 -71t80.5 -24
q80 0 138 64z" />
    <glyph glyph-name="aring" unicode="&#xe5;" horiz-adv-x="529" 
d="M390.5 504.5q52.5 -43.5 52.5 -126.5v-378h-71v66q-52 -77 -161 -77q-79 0 -123 42t-44 117q0 96 78.5 141.5t244.5 46.5v35q0 52 -32 78.5t-94 26.5q-63 0 -126 -29l-20 64q74 37 156 37q87 0 139.5 -43.5zM367 123v150q-127 -1 -186.5 -29.5t-59.5 -89.5
q0 -47 27.5 -71t80.5 -24q80 0 138 64zM166 632q-31 28 -31 79q0 50 31 78.5t86 28.5t86 -28.5t31 -78.5q0 -51 -31 -79t-86 -28t-86 28zM312 711q0 61 -60 61t-60 -61q0 -62 60 -62t60 62z" />
    <glyph glyph-name="ae" unicode="&#xe6;" horiz-adv-x="828" 
d="M775 247h-344q4 -92 44.5 -139.5t115.5 -47.5q69 0 133 41l29 -61q-31 -25 -75 -38.5t-91 -13.5q-63 0 -111.5 25t-77.5 73q-41 -50 -88 -73.5t-104 -23.5q-76 0 -119 42t-43 117q0 92 76 136t237 45v42q0 52 -30.5 78.5t-89.5 26.5q-62 0 -122 -29l-20 64
q40 20 79.5 28.5t71.5 8.5q58 0 99.5 -22.5t61.5 -64.5q24 41 66 64t96 23q99 0 154 -68t55 -190q0 -26 -3 -43zM473 436q-34 -43 -41 -126h269q-1 79 -36.5 124t-97.5 45q-60 0 -94 -43zM303.5 79.5q36.5 20.5 69.5 63.5q-18 53 -18 123q-120 -1 -177 -28t-57 -84
q0 -47 26 -71t77 -24q43 0 79.5 20.5z" />
    <glyph glyph-name="ccedilla" unicode="&#xe7;" horiz-adv-x="479" 
d="M349.5 -80.5q27.5 -21.5 27.5 -59.5q0 -42 -31 -65t-86 -23q-56 0 -100 23l16 46q48 -19 83 -19q53 0 53 38t-49 38q-22 0 -44 -8l-21 24l34 80q-86 18 -133 89t-47 186q0 83 29 146.5t82 98t123 34.5q39 0 79 -12t73 -32l-30 -62q-65 35 -124 35q-72 0 -112 -53.5
t-40 -148.5q0 -106 41.5 -160.5t123.5 -54.5q61 0 118 34l29 -62q-29 -21 -69 -32.5t-84 -11.5h-5l-33 -49q14 2 20 2q49 0 76.5 -21.5z" />
    <glyph glyph-name="egrave" unicode="&#xe8;" horiz-adv-x="539" 
d="M486 247h-354q5 -92 46.5 -139.5t118.5 -47.5q74 0 138 41l29 -61q-31 -25 -76.5 -38.5t-95.5 -13.5q-112 0 -175 74t-63 205q0 133 58 207t162 74q102 0 158.5 -68t56.5 -190q0 -25 -3 -43zM175 436q-35 -43 -42 -126h278q-1 80 -37.5 124.5t-101.5 44.5q-62 0 -97 -43z
M146 774v10h89l95 -159v-10h-60z" />
    <glyph glyph-name="eacute" unicode="&#xe9;" horiz-adv-x="539" 
d="M486 247h-354q5 -92 46.5 -139.5t118.5 -47.5q74 0 138 41l29 -61q-31 -25 -76.5 -38.5t-95.5 -13.5q-112 0 -175 74t-63 205q0 133 58 207t162 74q102 0 158.5 -68t56.5 -190q0 -25 -3 -43zM175 436q-35 -43 -42 -126h278q-1 80 -37.5 124.5t-101.5 44.5q-62 0 -97 -43z
M222 625l102 159h90v-10l-132 -159h-60v10z" />
    <glyph glyph-name="ecircumflex" unicode="&#xea;" horiz-adv-x="539" 
d="M486 247h-354q5 -92 46.5 -139.5t118.5 -47.5q74 0 138 41l29 -61q-31 -25 -76.5 -38.5t-95.5 -13.5q-112 0 -175 74t-63 205q0 133 58 207t162 74q102 0 158.5 -68t56.5 -190q0 -25 -3 -43zM175 436q-35 -43 -42 -126h278q-1 80 -37.5 124.5t-101.5 44.5q-62 0 -97 -43z
M416 625v-10h-58l-86 111l-85 -111h-55v10l102 159h80z" />
    <glyph glyph-name="edieresis" unicode="&#xeb;" horiz-adv-x="539" 
d="M143.5 642q-13.5 14 -13.5 39t13.5 39t37.5 14q25 0 38.5 -14t13.5 -38q0 -26 -13.5 -40t-38.5 -14q-24 0 -37.5 14zM329.5 642q-13.5 14 -13.5 39t13.5 39t37.5 14q25 0 38.5 -14t13.5 -38q0 -26 -13.5 -40t-38.5 -14q-24 0 -37.5 14zM486 247h-354q5 -92 46.5 -139.5
t118.5 -47.5q74 0 138 41l29 -61q-31 -25 -76.5 -38.5t-95.5 -13.5q-112 0 -175 74t-63 205q0 133 58 207t162 74q102 0 158.5 -68t56.5 -190q0 -25 -3 -43zM175 436q-35 -43 -42 -126h278q-1 80 -37.5 124.5t-101.5 44.5q-62 0 -97 -43z" />
    <glyph glyph-name="igrave" unicode="&#xec;" horiz-adv-x="266" 
d="M94 535h77v-535h-77v535zM5 774v10h89l95 -159v-10h-60z" />
    <glyph glyph-name="iacute" unicode="&#xed;" horiz-adv-x="266" 
d="M94 535h77v-535h-77v535zM81 625l102 159h90v-10l-132 -159h-60v10z" />
    <glyph glyph-name="icircumflex" unicode="&#xee;" horiz-adv-x="266" 
d="M94 535h77v-535h-77v535zM275 625v-10h-58l-86 111l-85 -111h-55v10l102 159h80z" />
    <glyph glyph-name="idieresis" unicode="&#xef;" horiz-adv-x="266" 
d="M13 642q-13 14 -13 39t13 39t38 14q24 0 37 -14t13 -38q0 -26 -13 -40t-37 -14q-25 0 -38 14zM177 642q-13 14 -13 39t13 39t38 14q24 0 37 -14t13 -38q0 -26 -13 -40t-37 -14q-25 0 -38 14zM94 535h77v-535h-77v535z" />
    <glyph glyph-name="eth" unicode="&#xf0;" horiz-adv-x="556" 
d="M460 516.5q40 -96.5 40 -229.5q0 -148 -58 -224t-167 -76t-166.5 69t-57.5 202q0 132 55.5 201t159.5 69q47 0 84.5 -21.5t59.5 -60.5q-35 123 -130 199l-121 -76l-28 46l105 60q-36 22 -86 40l-28 10l20 56l28 -10q69 -26 124 -59l99 62l28 -46l-83 -48
q82 -67 122 -163.5zM384 107.5q37 51.5 37 151.5q0 95 -38.5 148.5t-107.5 53.5q-71 0 -107.5 -51.5t-36.5 -151.5q0 -99 36.5 -150.5t107.5 -51.5q72 0 109 51.5z" />
    <glyph glyph-name="ntilde" unicode="&#xf1;" horiz-adv-x="581" 
d="M449.5 503q43.5 -45 43.5 -125v-378h-77v372q0 50 -28 76t-82 26q-38 0 -71 -12.5t-66 -39.5v-422h-77v535h72v-58q66 71 164 71q78 0 121.5 -45zM318 630q-19 10 -45 29q-18 14 -29 20.5t-23 6.5q-35 0 -43 -64h-50q2 59 26.5 93t68.5 34q26 0 46 -10.5t44 -29.5
q18 -14 29 -20.5t23 -6.5q35 0 43 65h50q-2 -60 -26.5 -93.5t-68.5 -33.5q-26 0 -45 10z" />
    <glyph glyph-name="ograve" unicode="&#xf2;" horiz-adv-x="556" 
d="M113 58.5q-57 71.5 -57 208.5q0 138 57.5 209.5t164.5 71.5t164.5 -71.5t57.5 -209.5q0 -137 -58 -208.5t-165 -71.5t-164 71.5zM383.5 109.5q36.5 53.5 36.5 157.5t-36 158t-106 54t-106 -53.5t-36 -158.5q0 -104 35.5 -157.5t105.5 -53.5t106.5 53.5zM150 774v10h89
l95 -159v-10h-60z" />
    <glyph glyph-name="oacute" unicode="&#xf3;" horiz-adv-x="556" 
d="M113 58.5q-57 71.5 -57 208.5q0 138 57.5 209.5t164.5 71.5t164.5 -71.5t57.5 -209.5q0 -137 -58 -208.5t-165 -71.5t-164 71.5zM383.5 109.5q36.5 53.5 36.5 157.5t-36 158t-106 54t-106 -53.5t-36 -158.5q0 -104 35.5 -157.5t105.5 -53.5t106.5 53.5zM226 625l102 159
h90v-10l-132 -159h-60v10z" />
    <glyph glyph-name="ocircumflex" unicode="&#xf4;" horiz-adv-x="556" 
d="M113 58.5q-57 71.5 -57 208.5q0 138 57.5 209.5t164.5 71.5t164.5 -71.5t57.5 -209.5q0 -137 -58 -208.5t-165 -71.5t-164 71.5zM383.5 109.5q36.5 53.5 36.5 157.5t-36 158t-106 54t-106 -53.5t-36 -158.5q0 -104 35.5 -157.5t105.5 -53.5t106.5 53.5zM420 625v-10h-58
l-86 111l-85 -111h-55v10l102 159h80z" />
    <glyph glyph-name="otilde" unicode="&#xf5;" horiz-adv-x="556" 
d="M113 58.5q-57 71.5 -57 208.5q0 138 57.5 209.5t164.5 71.5t164.5 -71.5t57.5 -209.5q0 -137 -58 -208.5t-165 -71.5t-164 71.5zM383.5 109.5q36.5 53.5 36.5 157.5t-36 158t-106 54t-106 -53.5t-36 -158.5q0 -104 35.5 -157.5t105.5 -53.5t106.5 53.5zM303 630
q-19 10 -45 29q-18 14 -29 20.5t-23 6.5q-35 0 -43 -64h-50q2 59 26.5 93t68.5 34q26 0 46 -10.5t44 -29.5q18 -14 29 -20.5t23 -6.5q35 0 43 65h50q-2 -60 -26.5 -93.5t-68.5 -33.5q-26 0 -45 10z" />
    <glyph glyph-name="odieresis" unicode="&#xf6;" horiz-adv-x="556" 
d="M147.5 642q-13.5 14 -13.5 39t13.5 39t37.5 14q25 0 38.5 -14t13.5 -38q0 -26 -13.5 -40t-38.5 -14q-24 0 -37.5 14zM333.5 642q-13.5 14 -13.5 39t13.5 39t37.5 14q25 0 38.5 -14t13.5 -38q0 -26 -13.5 -40t-38.5 -14q-24 0 -37.5 14zM113 58.5q-57 71.5 -57 208.5
q0 138 57.5 209.5t164.5 71.5t164.5 -71.5t57.5 -209.5q0 -137 -58 -208.5t-165 -71.5t-164 71.5zM383.5 109.5q36.5 53.5 36.5 157.5t-36 158t-106 54t-106 -53.5t-36 -158.5q0 -104 35.5 -157.5t105.5 -53.5t106.5 53.5z" />
    <glyph glyph-name="divide" unicode="&#xf7;" horiz-adv-x="572" 
d="M247 508.5q-15 14.5 -15 39.5t15 40t39 15t39 -15t15 -40t-15 -39.5t-39 -14.5t-39 14.5zM71 405h430v-73h-430v73zM247 148q-15 15 -15 40t15 39.5t39 14.5t39 -14.5t15 -39.5t-15 -40t-39 -15t-39 15z" />
    <glyph glyph-name="oslash" unicode="&#xf8;" horiz-adv-x="556" 
d="M530 535l-70 -86q40 -71 40 -182q0 -137 -57.5 -208.5t-164.5 -71.5q-90 0 -146 53l-38 -50h-68v10l70 86q-40 69 -40 181q0 138 57.5 209.5t164.5 71.5q90 0 145 -53l39 50h68v-10zM170 427q-37 -54 -37 -160q0 -71 15 -117l231 290q-34 41 -101 41q-71 0 -108 -54z
M385.5 108q36.5 54 36.5 159q0 75 -14 118l-232 -290q35 -41 101 -41q72 0 108.5 54z" />
    <glyph glyph-name="ugrave" unicode="&#xf9;" horiz-adv-x="573" 
d="M480 535v-535h-71v65q-58 -78 -161 -78q-77 0 -120 45t-43 125v378h77v-372q0 -50 27.5 -76t80.5 -26q40 0 72.5 15t60.5 47v412h77zM155 774v10h89l95 -159v-10h-60z" />
    <glyph glyph-name="uacute" unicode="&#xfa;" horiz-adv-x="573" 
d="M480 535v-535h-71v65q-58 -78 -161 -78q-77 0 -120 45t-43 125v378h77v-372q0 -50 27.5 -76t80.5 -26q40 0 72.5 15t60.5 47v412h77zM231 625l102 159h90v-10l-132 -159h-60v10z" />
    <glyph glyph-name="ucircumflex" unicode="&#xfb;" horiz-adv-x="573" 
d="M480 535v-535h-71v65q-58 -78 -161 -78q-77 0 -120 45t-43 125v378h77v-372q0 -50 27.5 -76t80.5 -26q40 0 72.5 15t60.5 47v412h77zM425 625v-10h-58l-86 111l-85 -111h-55v10l102 159h80z" />
    <glyph glyph-name="udieresis" unicode="&#xfc;" horiz-adv-x="573" 
d="M152.5 642q-13.5 14 -13.5 39t13.5 39t37.5 14q25 0 38.5 -14t13.5 -38q0 -26 -13.5 -40t-38.5 -14q-24 0 -37.5 14zM338.5 642q-13.5 14 -13.5 39t13.5 39t37.5 14q25 0 38.5 -14t13.5 -38q0 -26 -13.5 -40t-38.5 -14q-24 0 -37.5 14zM480 535v-535h-71v65
q-58 -78 -161 -78q-77 0 -120 45t-43 125v378h77v-372q0 -50 27.5 -76t80.5 -26q40 0 72.5 15t60.5 47v412h77z" />
    <glyph glyph-name="yacute" unicode="&#xfd;" horiz-adv-x="516" 
d="M485 535l-188 -540q-26 -74 -85.5 -128t-150.5 -86l-27 68q71 25 116 60.5t70 85.5l-189 540h83l145 -444l144 444h82zM207 625l102 159h90v-10l-132 -159h-60v10z" />
    <glyph glyph-name="thorn" unicode="&#xfe;" horiz-adv-x="575" 
d="M466 473q53 -75 53 -209q0 -131 -56 -204t-156 -73q-41 0 -76.5 16t-61.5 45v-255h-77v270v432v275h77v-296q54 74 149 74t148 -75zM405 109.5q34 52.5 34 153.5q0 104 -35.5 157.5t-105.5 53.5q-38 0 -69.5 -15.5t-59.5 -48.5v-291q25 -29 60.5 -45.5t74.5 -16.5
q67 0 101 52.5z" />
    <glyph glyph-name="ydieresis" unicode="&#xff;" horiz-adv-x="516" 
d="M128.5 642q-13.5 14 -13.5 39t13.5 39t37.5 14q25 0 38.5 -14t13.5 -38q0 -26 -13.5 -40t-38.5 -14q-24 0 -37.5 14zM314.5 642q-13.5 14 -13.5 39t13.5 39t37.5 14q25 0 38.5 -14t13.5 -38q0 -26 -13.5 -40t-38.5 -14q-24 0 -37.5 14zM485 535l-188 -540
q-26 -74 -85.5 -128t-150.5 -86l-27 68q71 25 116 60.5t70 85.5l-189 540h83l145 -444l144 444h82z" />
    <glyph glyph-name="Amacron" unicode="&#x100;" horiz-adv-x="666" 
d="M477 811h-288v60h288v-60zM483 195h-301l-66 -195h-85l258 724h89l258 -724h-86zM459 265l-127 374l-127 -374h254z" />
    <glyph glyph-name="amacron" unicode="&#x101;" horiz-adv-x="529" 
d="M390.5 504.5q52.5 -43.5 52.5 -126.5v-378h-71v66q-52 -77 -161 -77q-79 0 -123 42t-44 117q0 96 78.5 141.5t244.5 46.5v35q0 52 -32 78.5t-94 26.5q-63 0 -126 -29l-20 64q74 37 156 37q87 0 139.5 -43.5zM367 123v150q-127 -1 -186.5 -29.5t-59.5 -89.5
q0 -47 27.5 -71t80.5 -24q80 0 138 64zM108 701h288v-60h-288v60z" />
    <glyph glyph-name="Abreve" unicode="&#x102;" horiz-adv-x="666" 
d="M231.5 823.5q-37.5 38.5 -40.5 108.5h53q12 -83 90 -83q79 0 91 83h50q-3 -70 -40.5 -108.5t-101.5 -38.5t-101.5 38.5zM483 195h-301l-66 -195h-85l258 724h89l258 -724h-86zM459 265l-127 374l-127 -374h254z" />
    <glyph glyph-name="abreve" unicode="&#x103;" horiz-adv-x="529" 
d="M390.5 504.5q52.5 -43.5 52.5 -126.5v-378h-71v66q-52 -77 -161 -77q-79 0 -123 42t-44 117q0 96 78.5 141.5t244.5 46.5v35q0 52 -32 78.5t-94 26.5q-63 0 -126 -29l-20 64q74 37 156 37q87 0 139.5 -43.5zM367 123v150q-127 -1 -186.5 -29.5t-59.5 -89.5
q0 -47 27.5 -71t80.5 -24q80 0 138 64zM150.5 653.5q-37.5 38.5 -40.5 108.5h53q12 -83 90 -83q79 0 91 83h50q-3 -70 -40.5 -108.5t-101.5 -38.5t-101.5 38.5z" />
    <glyph glyph-name="Aogonek" unicode="&#x104;" horiz-adv-x="666" 
d="M682 -189q-20 -14 -47 -21.5t-55 -7.5q-48 0 -75.5 23.5t-27.5 66.5q0 38 22.5 71.5t62.5 56.5h-12l-67 195h-301l-66 -195h-85l258 724h89l258 -724h-1q-89 -51 -89 -114q0 -44 48 -44q32 0 66 18zM459 265l-127 374l-127 -374h254z" />
    <glyph glyph-name="aogonek" unicode="&#x105;" horiz-adv-x="529" 
d="M490 -189q-20 -14 -47 -21.5t-55 -7.5q-48 0 -75.5 23.5t-27.5 66.5q0 38 23 72t65 58v66q-32 -41 -71 -60t-91 -19q-79 0 -123 42t-44 117q0 96 78.5 141.5t244.5 46.5v35q0 52 -32 78.5t-94 26.5q-63 0 -126 -29l-20 64q74 37 156 37q87 0 139.5 -43.5t52.5 -126.5
v-378q-89 -51 -89 -114q0 -44 48 -44q32 0 66 18zM367 123v150q-127 -1 -186.5 -29.5t-59.5 -89.5q0 -47 27.5 -71t80.5 -24q80 0 138 64z" />
    <glyph glyph-name="Cacute" unicode="&#x106;" horiz-adv-x="599" 
d="M287 793l153 133h99v-12l-182 -133h-70v12zM201 31q-72 43 -110 124t-38 193q0 116 39 204.5t110 136.5t166 48q49 0 97 -12.5t88 -35.5l-30 -64q-82 39 -157 39q-109 0 -169.5 -81.5t-60.5 -227.5q0 -144 61.5 -218.5t181.5 -74.5q89 0 150 35l30 -63q-32 -22 -81 -34
t-105 -12q-100 0 -172 43z" />
    <glyph glyph-name="cacute" unicode="&#x107;" horiz-adv-x="479" 
d="M115 62q-63 74 -63 207q0 83 29 146.5t82 98t123 34.5q39 0 79 -12t73 -32l-30 -62q-65 35 -124 35q-72 0 -112 -53.5t-40 -148.5q0 -106 41.5 -160.5t123.5 -54.5q61 0 118 34l29 -62q-29 -21 -69 -32.5t-84 -11.5q-113 0 -176 74zM212 625l102 159h90v-10l-132 -159
h-60v10z" />
    <glyph glyph-name="Ccircumflex" unicode="&#x108;" horiz-adv-x="599" 
d="M252 781h-61v12l117 133h86l117 -133v-12h-64l-98 92zM559 34q-32 -22 -81 -34t-105 -12q-100 0 -172 43t-110 124t-38 193q0 116 39 204.5t110 136.5t166 48q49 0 97 -12.5t88 -35.5l-30 -64q-82 39 -157 39q-109 0 -169.5 -81.5t-60.5 -227.5q0 -144 61.5 -218.5
t181.5 -74.5q89 0 150 35z" />
    <glyph glyph-name="ccircumflex" unicode="&#x109;" horiz-adv-x="479" 
d="M115 62q-63 74 -63 207q0 83 29 146.5t82 98t123 34.5q39 0 79 -12t73 -32l-30 -62q-65 35 -124 35q-72 0 -112 -53.5t-40 -148.5q0 -106 41.5 -160.5t123.5 -54.5q61 0 118 34l29 -62q-29 -21 -69 -32.5t-84 -11.5q-113 0 -176 74zM406 625v-10h-58l-86 111l-85 -111
h-55v10l102 159h80z" />
    <glyph glyph-name="Cdotaccent" unicode="&#x10a;" horiz-adv-x="599" 
d="M311.5 812.5q-14.5 14.5 -14.5 40.5t14.5 41t39.5 15t39.5 -14.5t14.5 -40.5t-14.5 -41t-39.5 -15t-39.5 14.5zM201 31q-72 43 -110 124t-38 193q0 116 39 204.5t110 136.5t166 48q49 0 97 -12.5t88 -35.5l-30 -64q-82 39 -157 39q-109 0 -169.5 -81.5t-60.5 -227.5
q0 -144 61.5 -218.5t181.5 -74.5q89 0 150 35l30 -63q-32 -22 -81 -34t-105 -12q-100 0 -172 43z" />
    <glyph glyph-name="cdotaccent" unicode="&#x10b;" horiz-adv-x="479" 
d="M115 62q-63 74 -63 207q0 83 29 146.5t82 98t123 34.5q39 0 79 -12t73 -32l-30 -62q-65 35 -124 35q-72 0 -112 -53.5t-40 -148.5q0 -106 41.5 -160.5t123.5 -54.5q61 0 118 34l29 -62q-29 -21 -69 -32.5t-84 -11.5q-113 0 -176 74zM224.5 643.5q-14.5 14.5 -14.5 40.5
t14.5 41t39.5 15t39.5 -14.5t14.5 -40.5t-14.5 -41t-39.5 -15t-39.5 14.5z" />
    <glyph glyph-name="Ccaron" unicode="&#x10c;" horiz-adv-x="599" 
d="M308 781l-117 133v12h64l98 -92l97 92h61v-12l-117 -133h-86zM559 34q-32 -22 -81 -34t-105 -12q-100 0 -172 43t-110 124t-38 193q0 116 39 204.5t110 136.5t166 48q49 0 97 -12.5t88 -35.5l-30 -64q-82 39 -157 39q-109 0 -169.5 -81.5t-60.5 -227.5
q0 -144 61.5 -218.5t181.5 -74.5q89 0 150 35z" />
    <glyph glyph-name="ccaron" unicode="&#x10d;" horiz-adv-x="479" 
d="M115 62q-63 74 -63 207q0 83 29 146.5t82 98t123 34.5q39 0 79 -12t73 -32l-30 -62q-65 35 -124 35q-72 0 -112 -53.5t-40 -148.5q0 -106 41.5 -160.5t123.5 -54.5q61 0 118 34l29 -62q-29 -21 -69 -32.5t-84 -11.5q-113 0 -176 74zM406 784v-10l-102 -159h-80l-102 159
v10h58l85 -111l86 111h55z" />
    <glyph glyph-name="Dcaron" unicode="&#x10e;" horiz-adv-x="689" 
d="M295 781l-117 133v12h64l98 -92l97 92h61v-12l-117 -133h-86zM541 632q86 -92 86 -270t-87 -270t-251 -92h-193v724h197q162 0 248 -92zM480.5 145q63.5 74 63.5 217t-64.5 217t-190.5 74h-114v-582h118q124 0 187.5 74z" />
    <glyph glyph-name="dcaron" unicode="&#x10f;" horiz-adv-x="575" 
d="M405 770h77v-770h-71v69q-27 -40 -66.5 -61t-88.5 -21q-95 0 -147.5 75t-52.5 209q0 131 55.5 204t155.5 73q42 0 77.5 -16t60.5 -45v283zM633 770v-10l-27 -202h-48v212h75zM344.5 76.5q31.5 15.5 60.5 47.5v293q-25 29 -60.5 45t-74.5 16q-67 0 -100.5 -52.5
t-33.5 -154.5q0 -104 35 -157t105 -53q37 0 68.5 15.5z" />
    <glyph glyph-name="Dcroat" unicode="&#x110;" horiz-adv-x="688" 
d="M540 632q86 -92 86 -270t-87 -270t-251 -92h-193v332h-67v69h67v323h197q162 0 248 -92zM479.5 145q63.5 74 63.5 217t-64.5 217t-190.5 74h-114v-252h189v-69h-189v-261h118q124 0 187.5 74z" />
    <glyph glyph-name="dcroat" unicode="&#x111;" horiz-adv-x="577" 
d="M552 621h-68v-621h-71v69q-27 -40 -66.5 -61t-88.5 -21q-96 0 -149 72.5t-53 202.5q0 127 56 197.5t157 70.5q42 0 77.5 -16t60.5 -45v152h-227v55h227v94h77v-94h68v-55zM347.5 76.5q31.5 15.5 59.5 48.5v274q-25 28 -61 44.5t-74 16.5q-67 0 -101.5 -50t-34.5 -147
q0 -100 36 -151t106 -51q38 0 69.5 15.5z" />
    <glyph glyph-name="Emacron" unicode="&#x112;" horiz-adv-x="574" 
d="M456 811h-288v60h288v-60zM530 71v-71h-434v724h421v-71h-342v-247h257v-72h-257v-263h355z" />
    <glyph glyph-name="emacron" unicode="&#x113;" horiz-adv-x="539" 
d="M486 247h-354q5 -92 46.5 -139.5t118.5 -47.5q74 0 138 41l29 -61q-31 -25 -76.5 -38.5t-95.5 -13.5q-112 0 -175 74t-63 205q0 133 58 207t162 74q102 0 158.5 -68t56.5 -190q0 -25 -3 -43zM175 436q-35 -43 -42 -126h278q-1 80 -37.5 124.5t-101.5 44.5q-62 0 -97 -43z
M130 701h288v-60h-288v60z" />
    <glyph glyph-name="Ebreve" unicode="&#x114;" horiz-adv-x="574" 
d="M210.5 823.5q-37.5 38.5 -40.5 108.5h53q12 -83 90 -83q79 0 91 83h50q-3 -70 -40.5 -108.5t-101.5 -38.5t-101.5 38.5zM530 71v-71h-434v724h421v-71h-342v-247h257v-72h-257v-263h355z" />
    <glyph glyph-name="ebreve" unicode="&#x115;" horiz-adv-x="539" 
d="M486 247h-354q5 -92 46.5 -139.5t118.5 -47.5q74 0 138 41l29 -61q-31 -25 -76.5 -38.5t-95.5 -13.5q-112 0 -175 74t-63 205q0 133 58 207t162 74q102 0 158.5 -68t56.5 -190q0 -25 -3 -43zM175 436q-35 -43 -42 -126h278q-1 80 -37.5 124.5t-101.5 44.5q-62 0 -97 -43z
M172.5 653.5q-37.5 38.5 -40.5 108.5h53q12 -83 90 -83q79 0 91 83h50q-3 -70 -40.5 -108.5t-101.5 -38.5t-101.5 38.5z" />
    <glyph glyph-name="Edotaccent" unicode="&#x116;" horiz-adv-x="574" 
d="M272.5 812.5q-14.5 14.5 -14.5 40.5t14.5 41t39.5 15t39.5 -14.5t14.5 -40.5t-14.5 -41t-39.5 -15t-39.5 14.5zM530 71v-71h-434v724h421v-71h-342v-247h257v-72h-257v-263h355z" />
    <glyph glyph-name="edotaccent" unicode="&#x117;" horiz-adv-x="539" 
d="M486 247h-354q5 -92 46.5 -139.5t118.5 -47.5q74 0 138 41l29 -61q-31 -25 -76.5 -38.5t-95.5 -13.5q-112 0 -175 74t-63 205q0 133 58 207t162 74q102 0 158.5 -68t56.5 -190q0 -25 -3 -43zM175 436q-35 -43 -42 -126h278q-1 80 -37.5 124.5t-101.5 44.5q-62 0 -97 -43z
M234.5 643.5q-14.5 14.5 -14.5 40.5t14.5 41t39.5 15t39.5 -14.5t14.5 -40.5t-14.5 -41t-39.5 -15t-39.5 14.5z" />
    <glyph glyph-name="Eogonek" unicode="&#x118;" horiz-adv-x="574" 
d="M576 -189q-20 -14 -47 -21.5t-55 -7.5q-48 0 -75.5 23.5t-27.5 66.5q0 38 22.5 71.5t62.5 56.5h-360v724h421v-71h-342v-247h257v-72h-257v-263h355v-71h-1q-89 -51 -89 -114q0 -44 48 -44q32 0 66 18z" />
    <glyph glyph-name="eogonek" unicode="&#x119;" horiz-adv-x="539" 
d="M486 247h-354q5 -92 46.5 -139.5t118.5 -47.5q74 0 138 41l29 -61q-10 -8 -36 -22q-48 -27 -75.5 -62t-27.5 -70q0 -44 48 -44q32 0 66 18l22 -49q-20 -14 -47 -21.5t-55 -7.5q-48 0 -75.5 23.5t-27.5 66.5q0 32 17 62.5t48 55.5q-20 -2 -29 -2q-113 0 -175.5 73.5
t-62.5 205.5q0 133 58 207t162 74q102 0 158.5 -68t56.5 -190q0 -25 -3 -43zM175 436q-35 -43 -42 -126h278q-1 80 -37.5 124.5t-101.5 44.5q-62 0 -97 -43z" />
    <glyph glyph-name="Ecaron" unicode="&#x11a;" horiz-adv-x="574" 
d="M269 781l-117 133v12h64l98 -92l97 92h61v-12l-117 -133h-86zM530 71v-71h-434v724h421v-71h-342v-247h257v-72h-257v-263h355z" />
    <glyph glyph-name="ecaron" unicode="&#x11b;" horiz-adv-x="539" 
d="M486 247h-354q5 -92 46.5 -139.5t118.5 -47.5q74 0 138 41l29 -61q-31 -25 -76.5 -38.5t-95.5 -13.5q-112 0 -175 74t-63 205q0 133 58 207t162 74q102 0 158.5 -68t56.5 -190q0 -25 -3 -43zM175 436q-35 -43 -42 -126h278q-1 80 -37.5 124.5t-101.5 44.5q-62 0 -97 -43z
M416 784v-10l-102 -159h-80l-102 159v10h58l85 -111l86 111h55z" />
    <glyph glyph-name="Gcircumflex" unicode="&#x11c;" horiz-adv-x="668" 
d="M260 781h-61v12l117 133h86l117 -133v-12h-64l-98 92zM592 381v-344q-37 -24 -91 -37t-114 -13q-101 0 -174 44.5t-111.5 129t-38.5 201.5t38.5 201.5t111.5 129t174 44.5q53 0 103 -12t85 -34l-24 -67q-85 41 -166 41q-118 0 -178.5 -77t-60.5 -226q0 -150 61 -227
t180 -77q64 0 126 20v232h-133v71h212z" />
    <glyph glyph-name="gcircumflex" unicode="&#x11d;" horiz-adv-x="577" 
d="M485 535v-537q0 -103 -61.5 -160.5t-170.5 -57.5q-41 0 -80.5 8t-66.5 23l23 68q58 -28 122 -28q77 0 117 37t40 110v93q-54 -74 -150 -74q-95 0 -148.5 71t-53.5 198q0 124 56 193t157 69q44 0 81.5 -18t63.5 -51v56h71zM348.5 106.5q31.5 15.5 59.5 48.5v261
q-26 30 -61.5 46t-74.5 16q-67 0 -101.5 -48.5t-34.5 -143.5q0 -96 36 -145.5t107 -49.5q38 0 69.5 15.5zM427 625v-10h-58l-86 111l-85 -111h-55v10l102 159h80z" />
    <glyph glyph-name="Gbreve" unicode="&#x11e;" horiz-adv-x="668" 
d="M257.5 823.5q-37.5 38.5 -40.5 108.5h53q12 -83 90 -83q79 0 91 83h50q-3 -70 -40.5 -108.5t-101.5 -38.5t-101.5 38.5zM592 381v-344q-37 -24 -91 -37t-114 -13q-101 0 -174 44.5t-111.5 129t-38.5 201.5t38.5 201.5t111.5 129t174 44.5q53 0 103 -12t85 -34l-24 -67
q-85 41 -166 41q-118 0 -178.5 -77t-60.5 -226q0 -150 61 -227t180 -77q64 0 126 20v232h-133v71h212z" />
    <glyph glyph-name="gbreve" unicode="&#x11f;" horiz-adv-x="577" 
d="M485 535v-537q0 -103 -61.5 -160.5t-170.5 -57.5q-41 0 -80.5 8t-66.5 23l23 68q58 -28 122 -28q77 0 117 37t40 110v93q-54 -74 -150 -74q-95 0 -148.5 71t-53.5 198q0 124 56 193t157 69q44 0 81.5 -18t63.5 -51v56h71zM348.5 106.5q31.5 15.5 59.5 48.5v261
q-26 30 -61.5 46t-74.5 16q-67 0 -101.5 -48.5t-34.5 -143.5q0 -96 36 -145.5t107 -49.5q38 0 69.5 15.5zM183.5 653.5q-37.5 38.5 -40.5 108.5h53q12 -83 90 -83q79 0 91 83h50q-3 -70 -40.5 -108.5t-101.5 -38.5t-101.5 38.5z" />
    <glyph glyph-name="Gdotaccent" unicode="&#x120;" horiz-adv-x="668" 
d="M319.5 812.5q-14.5 14.5 -14.5 40.5t14.5 41t39.5 15t39.5 -14.5t14.5 -40.5t-14.5 -41t-39.5 -15t-39.5 14.5zM592 381v-344q-37 -24 -91 -37t-114 -13q-101 0 -174 44.5t-111.5 129t-38.5 201.5t38.5 201.5t111.5 129t174 44.5q53 0 103 -12t85 -34l-24 -67
q-85 41 -166 41q-118 0 -178.5 -77t-60.5 -226q0 -150 61 -227t180 -77q64 0 126 20v232h-133v71h212z" />
    <glyph glyph-name="gdotaccent" unicode="&#x121;" horiz-adv-x="577" 
d="M485 535v-537q0 -103 -61.5 -160.5t-170.5 -57.5q-41 0 -80.5 8t-66.5 23l23 68q58 -28 122 -28q77 0 117 37t40 110v93q-54 -74 -150 -74q-95 0 -148.5 71t-53.5 198q0 124 56 193t157 69q44 0 81.5 -18t63.5 -51v56h71zM348.5 106.5q31.5 15.5 59.5 48.5v261
q-26 30 -61.5 46t-74.5 16q-67 0 -101.5 -48.5t-34.5 -143.5q0 -96 36 -145.5t107 -49.5q38 0 69.5 15.5zM245.5 643.5q-14.5 14.5 -14.5 40.5t14.5 41t39.5 15t39.5 -14.5t14.5 -40.5t-14.5 -41t-39.5 -15t-39.5 14.5z" />
    <glyph glyph-name="Gcommaaccent" unicode="&#x122;" horiz-adv-x="668" 
d="M592 381v-344q-37 -24 -91 -37t-114 -13q-101 0 -174 44.5t-111.5 129t-38.5 201.5t38.5 201.5t111.5 129t174 44.5q53 0 103 -12t85 -34l-24 -67q-85 41 -166 41q-118 0 -178.5 -77t-60.5 -226q0 -150 61 -227t180 -77q64 0 126 20v232h-133v71h212zM276 -238
q26 29 36.5 55.5t10.5 66.5q0 16 -2 34h76q2 -18 2 -33q0 -45 -21.5 -81.5t-70.5 -74.5z" />
    <glyph glyph-name="gcommaaccent" unicode="&#x123;" horiz-adv-x="577" 
d="M485 535v-537q0 -103 -61.5 -160.5t-170.5 -57.5q-41 0 -80.5 8t-66.5 23l23 68q58 -28 122 -28q77 0 117 37t40 110v93q-54 -74 -150 -74q-95 0 -148.5 71t-53.5 198q0 124 56 193t157 69q44 0 81.5 -18t63.5 -51v56h71zM348.5 106.5q31.5 15.5 59.5 48.5v261
q-26 30 -61.5 46t-74.5 16q-67 0 -101.5 -48.5t-34.5 -143.5q0 -96 36 -145.5t107 -49.5q38 0 69.5 15.5zM366 772q-26 -29 -36.5 -55.5t-10.5 -66.5q0 -16 2 -34h-76q-2 18 -2 33q0 45 21.5 81t70.5 75z" />
    <glyph glyph-name="Hcircumflex" unicode="&#x124;" horiz-adv-x="700" 
d="M251 781h-61v12l117 133h86l117 -133v-12h-64l-98 92zM604 724v-724h-79v332h-350v-332h-79v724h79v-321h350v321h79z" />
    <glyph glyph-name="hcircumflex" unicode="&#x125;" horiz-adv-x="583" 
d="M129 919l-97 -92h-61v12l117 133h86l117 -133v-12h-64zM451.5 503q43.5 -45 43.5 -125v-378h-77v372q0 102 -111 102q-39 0 -72 -12.5t-66 -39.5v-422h-77v770h77v-287q67 65 160 65q79 0 122.5 -45z" />
    <glyph glyph-name="Hbar" unicode="&#x126;" horiz-adv-x="700" 
d="M672 529h-68v-529h-79v332h-350v-332h-79v529h-68v65h68v130h79v-130h350v130h79v-130h68v-65zM525 529h-350v-126h350v126z" />
    <glyph glyph-name="hbar" unicode="&#x127;" horiz-adv-x="585" 
d="M453 485q44 -45 44 -125v-360h-77v354q0 102 -112 102q-39 0 -72.5 -12.5t-66.5 -39.5v-404h-77v621h-67v56h67v93h77v-93h228v-56h-228v-156q67 65 161 65q79 0 123 -45z" />
    <glyph glyph-name="Itilde" unicode="&#x128;" horiz-adv-x="276" 
d="M155.5 800q-15.5 10 -33.5 29q-14 15 -23 21.5t-22 6.5q-17 0 -26.5 -15.5t-11.5 -49.5h-49q0 60 23.5 93.5t66.5 33.5q25 0 41 -10.5t33 -29.5q14 -15 23 -21.5t22 -6.5q17 0 26.5 16t11.5 50h49q0 -60 -23.5 -93.5t-66.5 -33.5q-25 0 -40.5 10zM98 724h79v-724h-79v724
z" />
    <glyph glyph-name="itilde" unicode="&#x129;" horiz-adv-x="266" 
d="M150.5 630q-15.5 10 -33.5 29q-14 15 -23 21.5t-22 6.5q-17 0 -26.5 -15.5t-11.5 -49.5h-49q0 60 23.5 93.5t66.5 33.5q25 0 41 -10.5t33 -29.5q14 -15 23 -21.5t22 -6.5q17 0 26.5 16t11.5 50h49q0 -60 -23.5 -93.5t-66.5 -33.5q-25 0 -40.5 10zM94 535h77v-535h-77v535
z" />
    <glyph glyph-name="Imacron" unicode="&#x12a;" horiz-adv-x="276" 
d="M-6 871h288v-60h-288v60zM98 724h79v-724h-79v724z" />
    <glyph glyph-name="imacron" unicode="&#x12b;" horiz-adv-x="266" 
d="M20 701h226v-60h-226v60zM94 535h77v-535h-77v535z" />
    <glyph glyph-name="Ibreve" unicode="&#x12c;" horiz-adv-x="276" 
d="M36.5 823.5q-37.5 38.5 -40.5 108.5h53q12 -83 90 -83q79 0 91 83h50q-3 -70 -40.5 -108.5t-101.5 -38.5t-101.5 38.5zM98 724h79v-724h-79v724z" />
    <glyph glyph-name="ibreve" unicode="&#x12d;" horiz-adv-x="266" 
d="M94 535h77v-535h-77v535zM31.5 653.5q-37.5 38.5 -40.5 108.5h53q12 -83 90 -83q79 0 91 83h50q-3 -70 -40.5 -108.5t-101.5 -38.5t-101.5 38.5z" />
    <glyph glyph-name="Iogonek" unicode="&#x12e;" horiz-adv-x="276" 
d="M244 -189q-20 -14 -46.5 -21.5t-54.5 -7.5q-48 0 -75.5 24t-27.5 66q0 35 18 68.5t51 59.5h-11v724h79v-724q-68 -57 -68 -114q0 -44 47 -44q32 0 67 18z" />
    <glyph glyph-name="iogonek" unicode="&#x12f;" horiz-adv-x="266" 
d="M93.5 643.5q-14.5 14.5 -14.5 40.5t14.5 41t39.5 15t39.5 -14.5t14.5 -40.5t-14.5 -41t-39.5 -15t-39.5 14.5zM238 -189q-20 -14 -46.5 -21.5t-54.5 -7.5q-49 0 -76 24t-27 66q0 35 18 68.5t51 59.5h-9v535h77v-535q-69 -58 -69 -114q0 -44 48 -44q33 0 66 18z" />
    <glyph glyph-name="Idotaccent" unicode="&#x130;" horiz-adv-x="276" 
d="M98.5 812.5q-14.5 14.5 -14.5 40.5t14.5 41t39.5 15t39.5 -14.5t14.5 -40.5t-14.5 -41t-39.5 -15t-39.5 14.5zM98 724h79v-724h-79v724z" />
    <glyph glyph-name="dotlessi" unicode="&#x131;" horiz-adv-x="266" 
d="M94 535h77v-535h-77v535z" />
    <glyph glyph-name="IJ" unicode="&#x132;" horiz-adv-x="645" 
d="M96 724h79v-724h-79v724zM315.5 -5q-35.5 8 -63.5 22l26 68q60 -26 106 -26q51 0 77 31t26 91v543h79v-543q0 -92 -48 -143t-133 -51q-34 0 -69.5 8z" />
    <glyph glyph-name="ij" unicode="&#x133;" horiz-adv-x="532" 
d="M94 535h77v-535h-77v535zM93.5 643.5q-14.5 14.5 -14.5 40.5t14.5 41t39.5 15t39.5 -14.5t14.5 -40.5t-14.5 -41t-39.5 -15t-39.5 14.5zM223 -155q54 19 83.5 41t41.5 55t12 87v507h77v-507q0 -72 -16.5 -117t-57 -75.5t-114.5 -55.5zM359.5 643.5q-14.5 14.5 -14.5 40.5
t14.5 41t39.5 15t39.5 -14.5t14.5 -40.5t-14.5 -41t-39.5 -15t-39.5 14.5z" />
    <glyph glyph-name="Jcircumflex" unicode="&#x134;" horiz-adv-x="454" 
d="M483 793v-12h-64l-98 92l-97 -92h-61v12l117 133h86zM283 724h79v-543q0 -92 -52 -143t-146 -51q-47 0 -87 11.5t-68 33.5l31 64q59 -37 124 -37q59 0 89 31t30 91v543z" />
    <glyph glyph-name="jcircumflex" unicode="&#x135;" horiz-adv-x="266" 
d="M-43 -155q54 19 83.5 41t41.5 55t12 87v507h77v-507q0 -72 -16.5 -117t-57 -75.5t-114.5 -55.5zM275 625v-10h-58l-86 111l-85 -111h-55v10l102 159h80z" />
    <glyph glyph-name="Kcommaaccent" unicode="&#x136;" horiz-adv-x="618" 
d="M269 332l-94 -112v-220h-79v724h79v-402l326 402h97l-277 -330l292 -394h-96zM254 -238q26 29 36.5 55.5t10.5 66.5q0 16 -2 34h76q2 -18 2 -33q0 -45 -21.5 -81.5t-70.5 -74.5z" />
    <glyph glyph-name="kcommaaccent" unicode="&#x137;" horiz-adv-x="537" 
d="M245 251l-76 -85v-166h-77v770h77v-509l237 274h94l-202 -225l213 -310h-94zM205 -238q26 29 36.5 55.5t10.5 66.5q0 16 -2 34h76q2 -18 2 -33q0 -45 -21.5 -81.5t-70.5 -74.5z" />
    <glyph glyph-name="kgreenlandic" unicode="&#x138;" horiz-adv-x="537" 
d="M245 251l-76 -85v-166h-77v535h77v-274l237 274h94l-202 -225l213 -310h-94z" />
    <glyph glyph-name="Lacute" unicode="&#x139;" horiz-adv-x="527" 
d="M162 781h-70v12l152 133h100v-12zM498 72v-72h-402v724h79v-652h323z" />
    <glyph glyph-name="lacute" unicode="&#x13a;" horiz-adv-x="306" 
d="M65 839l153 133h99v-12l-182 -133h-70v12zM119 23.5q-29 29.5 -29 87.5v659h77v-654q0 -28 13 -40.5t42 -12.5q18 0 39 4l8 -65q-32 -8 -64 -8q-57 0 -86 29.5z" />
    <glyph glyph-name="Lcommaaccent" unicode="&#x13b;" horiz-adv-x="527" 
d="M498 72v-72h-402v724h79v-652h323zM217 -238q26 29 36.5 55.5t10.5 66.5q0 16 -2 34h76q2 -18 2 -33q0 -45 -21.5 -81.5t-70.5 -74.5z" />
    <glyph glyph-name="lcommaaccent" unicode="&#x13c;" horiz-adv-x="306" 
d="M119 23.5q-29 29.5 -29 87.5v659h77v-654q0 -28 13 -40.5t42 -12.5q18 0 39 4l8 -65q-32 -8 -64 -8q-57 0 -86 29.5zM91 -238q26 29 36.5 55.5t10.5 66.5q0 16 -2 34h76q2 -18 2 -33q0 -45 -21.5 -81.5t-70.5 -74.5z" />
    <glyph glyph-name="Lcaron" unicode="&#x13d;" horiz-adv-x="527" 
d="M346 558h-48v212h76v-10zM498 72v-72h-402v724h79v-652h323z" />
    <glyph glyph-name="lcaron" unicode="&#x13e;" horiz-adv-x="308" 
d="M119 23.5q-29 29.5 -29 87.5v659h77v-654q0 -28 13 -40.5t42 -12.5q18 0 39 4l8 -65q-32 -8 -64 -8q-57 0 -86 29.5zM252 770h76v-10l-28 -202h-48v212z" />
    <glyph glyph-name="Ldot" unicode="&#x13f;" horiz-adv-x="527" 
d="M498 72v-72h-402v724h79v-652h323zM353.5 351.5q-14.5 14.5 -14.5 40.5t14.5 41t39.5 15t39.5 -14.5t14.5 -40.5t-14.5 -41t-39.5 -15t-39.5 14.5z" />
    <glyph glyph-name="ldot" unicode="&#x140;" horiz-adv-x="375" 
d="M119 23.5q-29 29.5 -29 87.5v659h77v-654q0 -28 13 -40.5t42 -12.5q18 0 39 4l8 -65q-32 -8 -64 -8q-57 0 -86 29.5zM276.5 348.5q-14.5 14.5 -14.5 40.5t14.5 41t39.5 15t39.5 -14.5t14.5 -40.5t-14.5 -41t-39.5 -15t-39.5 14.5z" />
    <glyph glyph-name="Lslash" unicode="&#x141;" horiz-adv-x="531" 
d="M502 72v-72h-402v264l-53 -33h-10v69l63 37v387h79v-342l219 133h10v-69l-229 -135v-239h323z" />
    <glyph glyph-name="lslash" unicode="&#x142;" horiz-adv-x="344" 
d="M191 395v-279q0 -28 13 -40.5t42 -12.5q18 0 39 4l8 -65q-32 -8 -64 -8q-57 0 -86 29.5t-29 87.5v231l-75 -53h-10v67l85 57v357h77v-304l97 69h10v-67z" />
    <glyph glyph-name="Nacute" unicode="&#x143;" horiz-adv-x="722" 
d="M367 781h-70v12l153 133h99v-12zM626 724v-724h-74l-379 590v-590h-77v724h74l379 -588v588h77z" />
    <glyph glyph-name="nacute" unicode="&#x144;" horiz-adv-x="581" 
d="M449.5 503q43.5 -45 43.5 -125v-378h-77v372q0 50 -28 76t-82 26q-38 0 -71 -12.5t-66 -39.5v-422h-77v535h72v-58q66 71 164 71q78 0 121.5 -45zM241 625l102 159h90v-10l-132 -159h-60v10z" />
    <glyph glyph-name="Ncommaaccent" unicode="&#x145;" horiz-adv-x="722" 
d="M626 724v-724h-74l-379 590v-590h-77v724h74l379 -588v588h77zM278 -238q26 29 36.5 55.5t10.5 66.5q0 16 -2 34h76q2 -18 2 -33q0 -45 -21.5 -81.5t-70.5 -74.5z" />
    <glyph glyph-name="ncommaaccent" unicode="&#x146;" horiz-adv-x="581" 
d="M449.5 503q43.5 -45 43.5 -125v-378h-77v372q0 50 -28 76t-82 26q-38 0 -71 -12.5t-66 -39.5v-422h-77v535h72v-58q66 71 164 71q78 0 121.5 -45zM211 -238q26 29 36.5 55.5t10.5 66.5q0 16 -2 34h76q2 -18 2 -33q0 -45 -21.5 -81.5t-70.5 -74.5z" />
    <glyph glyph-name="Ncaron" unicode="&#x147;" horiz-adv-x="722" 
d="M318 781l-117 133v12h64l98 -92l97 92h61v-12l-117 -133h-86zM626 724v-724h-74l-379 590v-590h-77v724h74l379 -588v588h77z" />
    <glyph glyph-name="ncaron" unicode="&#x148;" horiz-adv-x="581" 
d="M449.5 503q43.5 -45 43.5 -125v-378h-77v372q0 50 -28 76t-82 26q-38 0 -71 -12.5t-66 -39.5v-422h-77v535h72v-58q66 71 164 71q78 0 121.5 -45zM435 784v-10l-102 -159h-80l-102 159v10h58l85 -111l86 111h55z" />
    <glyph glyph-name="napostrophe" unicode="&#x149;" horiz-adv-x="581" 
d="M449.5 503q43.5 -45 43.5 -125v-378h-77v372q0 50 -28 76t-82 26q-38 0 -71 -12.5t-66 -39.5v-422h-77v535h72v-58q66 71 164 71q78 0 121.5 -45zM-57 580q32 34 46 68.5t14 79.5q0 20 -2 42h74q2 -22 2 -41q0 -52 -25.5 -95.5t-79.5 -85.5z" />
    <glyph glyph-name="Eng" unicode="&#x14a;" horiz-adv-x="722" 
d="M626 724v-724v-36q0 -87 -47 -135.5t-131 -48.5q-39 0 -74.5 11t-60.5 30l30 62q51 -33 105 -33q50 0 75.5 29t25.5 85v41l-376 585v-590h-77v724h74l379 -588v588h77z" />
    <glyph glyph-name="eng" unicode="&#x14b;" horiz-adv-x="581" 
d="M449.5 503q43.5 -45 43.5 -125v-378v-56q0 -77 -39 -120.5t-109 -43.5q-33 0 -63 9t-51 25l27 61q47 -27 86 -27q35 0 53.5 24.5t18.5 71.5v181v247q0 50 -28 76t-82 26q-38 0 -71 -12.5t-66 -39.5v-422h-77v535h72v-58q66 71 164 71q78 0 121.5 -45z" />
    <glyph glyph-name="Omacron" unicode="&#x14c;" horiz-adv-x="712" 
d="M212 871h288v-60h-288v60zM138.5 82.5q-75.5 95.5 -75.5 279.5t75.5 279.5t217.5 95.5t218 -95.5t76 -279.5t-76 -279.5t-218 -95.5t-217.5 95.5zM513.5 135.5q53.5 77.5 53.5 226.5t-53.5 226.5t-157.5 77.5t-157 -77t-53 -227t53 -227t157 -77t157.5 77.5z" />
    <glyph glyph-name="omacron" unicode="&#x14d;" horiz-adv-x="556" 
d="M113 58.5q-57 71.5 -57 208.5q0 138 57.5 209.5t164.5 71.5t164.5 -71.5t57.5 -209.5q0 -137 -58 -208.5t-165 -71.5t-164 71.5zM383.5 109.5q36.5 53.5 36.5 157.5t-36 158t-106 54t-106 -53.5t-36 -158.5q0 -104 35.5 -157.5t105.5 -53.5t106.5 53.5zM134 701h288v-60
h-288v60z" />
    <glyph glyph-name="Obreve" unicode="&#x14e;" horiz-adv-x="712" 
d="M254.5 823.5q-37.5 38.5 -40.5 108.5h53q12 -83 90 -83q79 0 91 83h50q-3 -70 -40.5 -108.5t-101.5 -38.5t-101.5 38.5zM138.5 82.5q-75.5 95.5 -75.5 279.5t75.5 279.5t217.5 95.5t218 -95.5t76 -279.5t-76 -279.5t-218 -95.5t-217.5 95.5zM513.5 135.5
q53.5 77.5 53.5 226.5t-53.5 226.5t-157.5 77.5t-157 -77t-53 -227t53 -227t157 -77t157.5 77.5z" />
    <glyph glyph-name="obreve" unicode="&#x14f;" horiz-adv-x="556" 
d="M113 58.5q-57 71.5 -57 208.5q0 138 57.5 209.5t164.5 71.5t164.5 -71.5t57.5 -209.5q0 -137 -58 -208.5t-165 -71.5t-164 71.5zM383.5 109.5q36.5 53.5 36.5 157.5t-36 158t-106 54t-106 -53.5t-36 -158.5q0 -104 35.5 -157.5t105.5 -53.5t106.5 53.5zM176.5 653.5
q-37.5 38.5 -40.5 108.5h53q12 -83 90 -83q79 0 91 83h50q-3 -70 -40.5 -108.5t-101.5 -38.5t-101.5 38.5z" />
    <glyph glyph-name="Ohungarumlaut" unicode="&#x150;" horiz-adv-x="712" 
d="M228 793l100 133h87v-12l-130 -133h-57v12zM385 793l100 133h86v-12l-129 -133h-57v12zM138.5 82.5q-75.5 95.5 -75.5 279.5t75.5 279.5t217.5 95.5t218 -95.5t76 -279.5t-76 -279.5t-218 -95.5t-217.5 95.5zM513.5 135.5q53.5 77.5 53.5 226.5t-53.5 226.5t-157.5 77.5
t-157 -77t-53 -227t53 -227t157 -77t157.5 77.5z" />
    <glyph glyph-name="ohungarumlaut" unicode="&#x151;" horiz-adv-x="556" 
d="M113 58.5q-57 71.5 -57 208.5q0 138 57.5 209.5t164.5 71.5t164.5 -71.5t57.5 -209.5q0 -137 -58 -208.5t-165 -71.5t-164 71.5zM383.5 109.5q36.5 53.5 36.5 157.5t-36 158t-106 54t-106 -53.5t-36 -158.5q0 -104 35.5 -157.5t105.5 -53.5t106.5 53.5zM169 625l61 159
h81v-10l-91 -159h-51v10zM311 625l62 159h80v-10l-91 -159h-51v10z" />
    <glyph glyph-name="OE" unicode="&#x152;" horiz-adv-x="960" 
d="M916 71v-71h-417h-143q-142 0 -217.5 92.5t-75.5 269.5t75.5 269.5t217.5 92.5h180h367v-71h-328v-247h243v-72h-243v-263h341zM499 71v582h-143q-103 0 -156.5 -74t-53.5 -217t53.5 -217t156.5 -74h143z" />
    <glyph glyph-name="oe" unicode="&#x153;" horiz-adv-x="881" 
d="M828 247h-344q4 -92 44.5 -139.5t115.5 -47.5q69 0 133 41l29 -61q-31 -25 -75 -38.5t-91 -13.5q-65 0 -113.5 27.5t-77.5 79.5q-26 -53 -71 -80.5t-106 -27.5q-104 0 -160 71.5t-56 208.5q0 138 55.5 209.5t161.5 71.5q60 0 105 -27.5t71 -80.5q23 51 68 79.5t105 28.5
q99 0 154 -68t55 -190q0 -26 -3 -43zM526 436q-34 -43 -41 -126h269q-1 79 -36.5 124t-97.5 45q-60 0 -94 -43zM375.5 109.5q34.5 53.5 34.5 157.5q0 105 -34.5 158.5t-102.5 53.5t-102.5 -53.5t-34.5 -158.5q0 -104 34.5 -157.5t101.5 -53.5q69 0 103.5 53.5z" />
    <glyph glyph-name="Racute" unicode="&#x154;" horiz-adv-x="631" 
d="M322 781h-70v12l153 133h99v-12zM318 279h-143v-279h-79v724h79h161q105 0 164.5 -58.5t59.5 -163.5q0 -86 -40.5 -142t-115.5 -73l190 -287h-97zM175 350h161q141 0 141 152q0 74 -37 112.5t-108 38.5h-157v-303z" />
    <glyph glyph-name="racute" unicode="&#x155;" horiz-adv-x="399" 
d="M376 533l-18 -75q-40 10 -70 10q-38 0 -67 -16t-52 -51v-401h-77v535h72v-75q57 86 145 86q35 0 67 -13zM179 625l102 159h90v-10l-132 -159h-60v10z" />
    <glyph glyph-name="Rcommaaccent" unicode="&#x156;" horiz-adv-x="631" 
d="M318 279h-143v-279h-79v724h79h161q105 0 164.5 -58.5t59.5 -163.5q0 -86 -40.5 -142t-115.5 -73l190 -287h-97zM175 350h161q141 0 141 152q0 74 -37 112.5t-108 38.5h-157v-303zM252 -238q26 29 36.5 55.5t10.5 66.5q0 16 -2 34h76q2 -18 2 -33q0 -45 -21.5 -81.5
t-70.5 -74.5z" />
    <glyph glyph-name="rcommaaccent" unicode="&#x157;" horiz-adv-x="399" 
d="M376 533l-18 -75q-40 10 -70 10q-38 0 -67 -16t-52 -51v-401h-77v535h72v-75q57 86 145 86q35 0 67 -13zM48 -238q26 29 36.5 55.5t10.5 66.5q0 16 -2 34h76q2 -18 2 -33q0 -45 -21.5 -81.5t-70.5 -74.5z" />
    <glyph glyph-name="Rcaron" unicode="&#x158;" horiz-adv-x="631" 
d="M273 781l-117 133v12h64l98 -92l97 92h61v-12l-117 -133h-86zM318 279h-143v-279h-79v724h79h161q105 0 164.5 -58.5t59.5 -163.5q0 -86 -40.5 -142t-115.5 -73l190 -287h-97zM175 350h161q141 0 141 152q0 74 -37 112.5t-108 38.5h-157v-303z" />
    <glyph glyph-name="rcaron" unicode="&#x159;" horiz-adv-x="399" 
d="M376 533l-18 -75q-40 10 -70 10q-38 0 -67 -16t-52 -51v-401h-77v535h72v-75q57 86 145 86q35 0 67 -13zM373 784v-10l-102 -159h-80l-102 159v10h58l85 -111l86 111h55z" />
    <glyph glyph-name="Sacute" unicode="&#x15a;" horiz-adv-x="560" 
d="M204 793l153 133h99v-12l-182 -133h-70v12zM148.5 3q-58.5 15 -103.5 43l28 68q93 -54 194 -54q76 0 118 33.5t42 92.5q0 49 -27.5 80t-86.5 47l-82 23q-93 25 -136 73.5t-43 125.5q0 92 61.5 146.5t166.5 54.5q52 0 107.5 -11.5t100.5 -32.5l-28 -69q-102 41 -182 41
q-69 0 -107.5 -31t-38.5 -87q0 -49 28 -80t87 -47l82 -23q92 -26 135 -74t43 -125q0 -96 -65 -152.5t-175 -56.5q-60 0 -118.5 15z" />
    <glyph glyph-name="sacute" unicode="&#x15b;" horiz-adv-x="464" 
d="M123 0.5q-47 12.5 -83 35.5l28 65q72 -44 152 -44q59 0 89 22t30 64q0 33 -18.5 52.5t-59.5 29.5l-71 17q-73 17 -108 53t-35 95q0 74 49 115.5t137 41.5q45 0 88.5 -10.5t77.5 -29.5l-30 -65q-72 36 -138 36q-53 0 -80 -20.5t-27 -60.5q0 -31 19 -50t59 -29l71 -17
q73 -17 107.5 -54t34.5 -98q0 -76 -51.5 -118.5t-143.5 -42.5q-50 0 -97 12.5zM172 625l102 159h90v-10l-132 -159h-60v10z" />
    <glyph glyph-name="Scircumflex" unicode="&#x15c;" horiz-adv-x="560" 
d="M169 781h-61v12l117 133h86l117 -133v-12h-64l-98 92zM464 322q43 -48 43 -125q0 -96 -65 -152.5t-175 -56.5q-60 0 -118.5 15t-103.5 43l28 68q93 -54 194 -54q76 0 118 33.5t42 92.5q0 49 -27.5 80t-86.5 47l-82 23q-93 25 -136 73.5t-43 125.5q0 92 61.5 146.5
t166.5 54.5q52 0 107.5 -11.5t100.5 -32.5l-28 -69q-102 41 -182 41q-69 0 -107.5 -31t-38.5 -87q0 -49 28 -80t87 -47l82 -23q92 -26 135 -74z" />
    <glyph glyph-name="scircumflex" unicode="&#x15d;" horiz-adv-x="464" 
d="M123 0.5q-47 12.5 -83 35.5l28 65q72 -44 152 -44q59 0 89 22t30 64q0 33 -18.5 52.5t-59.5 29.5l-71 17q-73 17 -108 53t-35 95q0 74 49 115.5t137 41.5q45 0 88.5 -10.5t77.5 -29.5l-30 -65q-72 36 -138 36q-53 0 -80 -20.5t-27 -60.5q0 -31 19 -50t59 -29l71 -17
q73 -17 107.5 -54t34.5 -98q0 -76 -51.5 -118.5t-143.5 -42.5q-50 0 -97 12.5zM366 625v-10h-58l-86 111l-85 -111h-55v10l102 159h80z" />
    <glyph glyph-name="Scedilla" unicode="&#x15e;" horiz-adv-x="560" 
d="M451 52.5q-56 -55.5 -154 -63.5l-33 -50q14 2 20 2q49 0 76.5 -21.5t27.5 -59.5q0 -42 -31 -65t-86 -23q-56 0 -100 23l16 46q48 -19 83 -19q53 0 53 38t-49 38q-22 0 -44 -8l-21 24l32 75q-54 3 -105.5 18t-90.5 39l28 68q93 -54 194 -54q76 0 118 33.5t42 92.5
q0 49 -27.5 80t-86.5 47l-82 23q-93 25 -136 73.5t-43 125.5q0 92 61.5 146.5t166.5 54.5q52 0 107.5 -11.5t100.5 -32.5l-28 -69q-102 41 -182 41q-69 0 -107.5 -31t-38.5 -87q0 -49 28 -80t87 -47l82 -23q92 -26 135 -74t43 -125q0 -89 -56 -144.5z" />
    <glyph glyph-name="scedilla" unicode="&#x15f;" horiz-adv-x="464" 
d="M371.5 37.5q-43.5 -41.5 -122.5 -48.5l-33 -50q14 2 20 2q49 0 76.5 -21.5t27.5 -59.5q0 -42 -31 -65t-86 -23q-56 0 -100 23l16 46q48 -19 83 -19q53 0 53 38t-49 38q-22 0 -44 -8l-21 24l32 75q-91 6 -153 47l28 65q72 -44 152 -44q59 0 89 22t30 64q0 33 -18.5 52.5
t-59.5 29.5l-71 17q-73 17 -108 53t-35 95q0 74 49 115.5t137 41.5q45 0 88.5 -10.5t77.5 -29.5l-30 -65q-72 36 -138 36q-53 0 -80 -20.5t-27 -60.5q0 -31 19 -50t59 -29l71 -17q73 -17 107.5 -54t34.5 -98q0 -70 -43.5 -111.5z" />
    <glyph glyph-name="Scaron" unicode="&#x160;" horiz-adv-x="560" 
d="M225 781l-117 133v12h64l98 -92l97 92h61v-12l-117 -133h-86zM464 322q43 -48 43 -125q0 -96 -65 -152.5t-175 -56.5q-60 0 -118.5 15t-103.5 43l28 68q93 -54 194 -54q76 0 118 33.5t42 92.5q0 49 -27.5 80t-86.5 47l-82 23q-93 25 -136 73.5t-43 125.5q0 92 61.5 146.5
t166.5 54.5q52 0 107.5 -11.5t100.5 -32.5l-28 -69q-102 41 -182 41q-69 0 -107.5 -31t-38.5 -87q0 -49 28 -80t87 -47l82 -23q92 -26 135 -74z" />
    <glyph glyph-name="scaron" unicode="&#x161;" horiz-adv-x="464" 
d="M123 0.5q-47 12.5 -83 35.5l28 65q72 -44 152 -44q59 0 89 22t30 64q0 33 -18.5 52.5t-59.5 29.5l-71 17q-73 17 -108 53t-35 95q0 74 49 115.5t137 41.5q45 0 88.5 -10.5t77.5 -29.5l-30 -65q-72 36 -138 36q-53 0 -80 -20.5t-27 -60.5q0 -31 19 -50t59 -29l71 -17
q73 -17 107.5 -54t34.5 -98q0 -76 -51.5 -118.5t-143.5 -42.5q-50 0 -97 12.5zM366 784v-10l-102 -159h-80l-102 159v10h58l85 -111l86 111h55z" />
    <glyph glyph-name="uni0162" unicode="&#x162;" horiz-adv-x="526" 
d="M292 0l-41 -61q14 2 20 2q49 0 76.5 -21.5t27.5 -59.5q0 -42 -31 -65t-86 -23q-56 0 -100 23l16 46q48 -19 83 -19q53 0 53 38t-49 38q-22 0 -44 -8l-21 24l37 86h-9v652h-193v72h272h193v-72h-193v-652h-11z" />
    <glyph glyph-name="uni0163" unicode="&#x163;" horiz-adv-x="384" 
d="M308.5 -80.5q27.5 -21.5 27.5 -59.5q0 -42 -31 -65t-86 -23q-56 0 -100 23l16 46q48 -19 83 -19q53 0 53 38t-49 38q-22 0 -44 -8l-21 24l40 94q-85 36 -85 162v300h-92v65h93v159h76v-159h161v-65h-161v-289q0 -61 24.5 -90t75.5 -29q27 0 55 9l13 -66q-36 -12 -80 -12
q-19 0 -28 1l-37 -55q14 2 20 2q49 0 76.5 -21.5z" />
    <glyph glyph-name="Tcaron" unicode="&#x164;" horiz-adv-x="526" 
d="M220 781l-117 133v12h64l98 -92l97 92h61v-12l-117 -133h-86zM496 652h-193v-652h-79v652h-193v72h272h193v-72z" />
    <glyph glyph-name="tcaron" unicode="&#x165;" horiz-adv-x="384" 
d="M269 770h75v-10l-24 -174h-51v184zM154 37.5q-42 44.5 -42 132.5v300h-92v65h93v159h76v-159h161v-65h-161v-289q0 -61 24.5 -90t75.5 -29q27 0 55 9l13 -66q-36 -12 -80 -12q-81 0 -123 44.5z" />
    <glyph glyph-name="Tbar" unicode="&#x166;" horiz-adv-x="526" 
d="M303 652v-267h123v-68h-123v-317h-79v317h-124v68h124v267h-193v72h272h193v-72h-193z" />
    <glyph glyph-name="tbar" unicode="&#x167;" horiz-adv-x="384" 
d="M357 5q-36 -12 -80 -12q-81 0 -123 44.5t-42 132.5v122h-92v62h92v116h-92v65h93v159h76v-159h161v-65h-161v-116h161v-62h-161v-111q0 -61 24.5 -90t75.5 -29q27 0 55 9z" />
    <glyph glyph-name="Utilde" unicode="&#x168;" horiz-adv-x="684" 
d="M367 800q-19 10 -45 29q-18 14 -29 20.5t-23 6.5q-35 0 -43 -64h-50q2 59 26.5 93t68.5 34q26 0 46 -10.5t44 -29.5q18 -14 29 -20.5t23 -6.5q35 0 43 65h50q-2 -60 -26.5 -93.5t-68.5 -33.5q-26 0 -45 10zM157 58q-66 71 -66 198v468h79v-467q0 -98 43.5 -148.5
t128.5 -50.5t128.5 50.5t43.5 148.5v467h79v-468q0 -127 -66.5 -198t-185.5 -71q-118 0 -184 71z" />
    <glyph glyph-name="utilde" unicode="&#x169;" horiz-adv-x="573" 
d="M480 535v-535h-71v65q-58 -78 -161 -78q-77 0 -120 45t-43 125v378h77v-372q0 -50 27.5 -76t80.5 -26q40 0 72.5 15t60.5 47v412h77zM308 630q-19 10 -45 29q-18 14 -29 20.5t-23 6.5q-35 0 -43 -64h-50q2 59 26.5 93t68.5 34q26 0 46 -10.5t44 -29.5q18 -14 29 -20.5
t23 -6.5q35 0 43 65h50q-2 -60 -26.5 -93.5t-68.5 -33.5q-26 0 -45 10z" />
    <glyph glyph-name="Umacron" unicode="&#x16a;" horiz-adv-x="684" 
d="M198 871h288v-60h-288v60zM157 58q-66 71 -66 198v468h79v-467q0 -98 43.5 -148.5t128.5 -50.5t128.5 50.5t43.5 148.5v467h79v-468q0 -127 -66.5 -198t-185.5 -71q-118 0 -184 71z" />
    <glyph glyph-name="umacron" unicode="&#x16b;" horiz-adv-x="573" 
d="M480 535v-535h-71v65q-58 -78 -161 -78q-77 0 -120 45t-43 125v378h77v-372q0 -50 27.5 -76t80.5 -26q40 0 72.5 15t60.5 47v412h77zM139 701h288v-60h-288v60z" />
    <glyph glyph-name="Ubreve" unicode="&#x16c;" horiz-adv-x="684" 
d="M240.5 823.5q-37.5 38.5 -40.5 108.5h53q12 -83 90 -83q79 0 91 83h50q-3 -70 -40.5 -108.5t-101.5 -38.5t-101.5 38.5zM157 58q-66 71 -66 198v468h79v-467q0 -98 43.5 -148.5t128.5 -50.5t128.5 50.5t43.5 148.5v467h79v-468q0 -127 -66.5 -198t-185.5 -71
q-118 0 -184 71z" />
    <glyph glyph-name="ubreve" unicode="&#x16d;" horiz-adv-x="573" 
d="M480 535v-535h-71v65q-58 -78 -161 -78q-77 0 -120 45t-43 125v378h77v-372q0 -50 27.5 -76t80.5 -26q40 0 72.5 15t60.5 47v412h77zM181.5 653.5q-37.5 38.5 -40.5 108.5h53q12 -83 90 -83q79 0 91 83h50q-3 -70 -40.5 -108.5t-101.5 -38.5t-101.5 38.5z" />
    <glyph glyph-name="Uring" unicode="&#x16e;" horiz-adv-x="684" 
d="M255 797q-31 28 -31 79q0 50 31.5 78.5t86.5 28.5t86.5 -28.5t31.5 -78.5q0 -51 -31 -79t-87 -28t-87 28zM402 876q0 60 -60 60t-60 -60q0 -61 60 -61t60 61zM157 58q-66 71 -66 198v468h79v-467q0 -98 43.5 -148.5t128.5 -50.5t128.5 50.5t43.5 148.5v467h79v-468
q0 -127 -66.5 -198t-185.5 -71q-118 0 -184 71z" />
    <glyph glyph-name="uring" unicode="&#x16f;" horiz-adv-x="573" 
d="M480 535v-535h-71v65q-58 -78 -161 -78q-77 0 -120 45t-43 125v378h77v-372q0 -50 27.5 -76t80.5 -26q40 0 72.5 15t60.5 47v412h77zM197 632q-31 28 -31 79q0 50 31 78.5t86 28.5t86 -28.5t31 -78.5q0 -51 -31 -79t-86 -28t-86 28zM343 711q0 61 -60 61t-60 -61
q0 -62 60 -62t60 62z" />
    <glyph glyph-name="Uhungarumlaut" unicode="&#x170;" horiz-adv-x="684" 
d="M214 793l100 133h87v-12l-130 -133h-57v12zM371 793l100 133h86v-12l-129 -133h-57v12zM157 58q-66 71 -66 198v468h79v-467q0 -98 43.5 -148.5t128.5 -50.5t128.5 50.5t43.5 148.5v467h79v-468q0 -127 -66.5 -198t-185.5 -71q-118 0 -184 71z" />
    <glyph glyph-name="uhungarumlaut" unicode="&#x171;" horiz-adv-x="573" 
d="M480 535v-535h-71v65q-58 -78 -161 -78q-77 0 -120 45t-43 125v378h77v-372q0 -50 27.5 -76t80.5 -26q40 0 72.5 15t60.5 47v412h77zM174 625l61 159h81v-10l-91 -159h-51v10zM316 625l62 159h80v-10l-91 -159h-51v10z" />
    <glyph glyph-name="Uogonek" unicode="&#x172;" horiz-adv-x="684" 
d="M409.5 -53q-20.5 -32 -20.5 -61q0 -44 48 -44q31 0 66 18l22 -49q-20 -14 -46.5 -21.5t-54.5 -7.5q-49 0 -76 24t-27 66q0 64 57 118q-18 -3 -37 -3q-118 0 -184 71t-66 198v468h79v-467q0 -98 43 -148.5t128 -50.5t129 51t44 148v467h79v-468q0 -76 -23.5 -129
t-75.5 -95l-28 -23q-36 -30 -56.5 -62z" />
    <glyph glyph-name="uogonek" unicode="&#x173;" horiz-adv-x="573" 
d="M527 -189q-20 -14 -47 -21.5t-55 -7.5q-48 0 -75.5 23.5t-27.5 66.5q0 38 23.5 72.5t65.5 57.5v67q-35 -43 -74.5 -62.5t-88.5 -19.5q-77 0 -120 45t-43 125v378h77v-372q0 -50 27.5 -76t80.5 -26q40 0 72.5 15t60.5 47v412h77v-535q-89 -51 -89 -114q0 -44 48 -44
q31 0 66 18z" />
    <glyph glyph-name="Wcircumflex" unicode="&#x174;" horiz-adv-x="894" 
d="M348 781h-61v12l117 133h86l117 -133v-12h-64l-98 92zM858 724l-185 -724h-89l-138 602l-136 -602h-89l-184 724h84l145 -629l138 628h87l139 -626l145 627h83z" />
    <glyph glyph-name="wcircumflex" unicode="&#x175;" horiz-adv-x="780" 
d="M747 535l-158 -535h-85l-115 425l-114 -425h-85l-157 535h82l119 -451l116 451h81l117 -451l118 451h81zM533 625v-10h-58l-86 111l-85 -111h-55v10l102 159h80z" />
    <glyph glyph-name="Ycircumflex" unicode="&#x176;" horiz-adv-x="586" 
d="M193 781h-61v12l117 133h86l117 -133v-12h-64l-98 92zM560 724l-228 -466v-258h-79v258l-226 466h88l179 -374l179 374h87z" />
    <glyph glyph-name="ycircumflex" unicode="&#x177;" horiz-adv-x="516" 
d="M485 535l-188 -540q-26 -74 -85.5 -128t-150.5 -86l-27 68q71 25 116 60.5t70 85.5l-189 540h83l145 -444l144 444h82zM401 625v-10h-58l-86 111l-85 -111h-55v10l102 159h80z" />
    <glyph glyph-name="Ydieresis" unicode="&#x178;" horiz-adv-x="586" 
d="M157.5 811q-13.5 14 -13.5 39t13.5 39t37.5 14q25 0 38.5 -14t13.5 -38q0 -26 -13.5 -40t-38.5 -14q-24 0 -37.5 14zM351.5 811q-13.5 14 -13.5 39t13.5 39t37.5 14q25 0 38.5 -14t13.5 -38q0 -26 -13.5 -40t-38.5 -14q-24 0 -37.5 14zM560 724l-228 -466v-258h-79v258
l-226 466h88l179 -374l179 374h87z" />
    <glyph glyph-name="Zacute" unicode="&#x179;" horiz-adv-x="551" 
d="M280 781h-70v12l153 133h99v-12zM504 70v-70h-459v71l366 583h-354v70h443v-70l-366 -584h370z" />
    <glyph glyph-name="zacute" unicode="&#x17a;" horiz-adv-x="464" 
d="M420 65v-65h-377v65l284 405h-276v65h365v-65l-285 -405h289zM177 625l102 159h90v-10l-132 -159h-60v10z" />
    <glyph glyph-name="Zdotaccent" unicode="&#x17b;" horiz-adv-x="551" 
d="M234.5 812.5q-14.5 14.5 -14.5 40.5t14.5 41t39.5 15t39.5 -14.5t14.5 -40.5t-14.5 -41t-39.5 -15t-39.5 14.5zM504 70v-70h-459v71l366 583h-354v70h443v-70l-366 -584h370z" />
    <glyph glyph-name="zdotaccent" unicode="&#x17c;" horiz-adv-x="464" 
d="M420 65v-65h-377v65l284 405h-276v65h365v-65l-285 -405h289zM189.5 643.5q-14.5 14.5 -14.5 40.5t14.5 41t39.5 15t39.5 -14.5t14.5 -40.5t-14.5 -41t-39.5 -15t-39.5 14.5z" />
    <glyph glyph-name="Zcaron" unicode="&#x17d;" horiz-adv-x="551" 
d="M231 781l-117 133v12h64l98 -92l97 92h61v-12l-117 -133h-86zM504 70v-70h-459v71l366 583h-354v70h443v-70l-366 -584h370z" />
    <glyph glyph-name="zcaron" unicode="&#x17e;" horiz-adv-x="464" 
d="M420 65v-65h-377v65l284 405h-276v65h365v-65l-285 -405h289zM371 784v-10l-102 -159h-80l-102 159v10h58l85 -111l86 111h55z" />
    <glyph glyph-name="longs" unicode="&#x17f;" horiz-adv-x="281" 
d="M317 771v-68q-30 4 -52 4q-47 0 -71.5 -27t-24.5 -79v-9v-592h-77v581v20q0 83 45.5 129t127.5 46q32 0 52 -5z" />
    <glyph glyph-name="uni0180" unicode="&#x180;" horiz-adv-x="577" 
d="M467.5 457.5q53.5 -72.5 53.5 -202.5q0 -127 -56.5 -197.5t-157.5 -70.5q-44 0 -81 17.5t-62 50.5v-55h-72v621h-67v56h67v93h77v-93h228v-56h-228v-165q27 37 65 55.5t84 18.5q96 0 149.5 -72.5zM406 107q35 50 35 148q0 99 -36.5 150t-106.5 51q-37 0 -68.5 -15.5
t-60.5 -48.5v-274q26 -29 61.5 -45t73.5 -16q67 0 102 50z" />
    <glyph glyph-name="uni0181" unicode="&#x181;" horiz-adv-x="697" 
d="M610 320.5q34 -44.5 34 -115.5q0 -97 -58 -151t-162 -54h-233h-42v653q-78 0 -78 -75q0 -15 3 -39h-74q-4 15 -4 38q0 70 40.5 108.5t112.5 38.5h79h161q101 0 157.5 -52t56.5 -146q0 -57 -23.5 -93.5t-68.5 -50.5q65 -17 99 -61.5zM228 653v-246h161q65 0 98.5 30.5
t33.5 88.5q0 62 -35 94.5t-102 32.5h-156zM527.5 105q33.5 34 33.5 100q0 65 -34.5 98.5t-102.5 33.5h-196v-266h201q65 0 98.5 34z" />
    <glyph glyph-name="uni0182" unicode="&#x182;" horiz-adv-x="623" 
d="M509 394q62 -58 62 -169q0 -108 -62.5 -166.5t-170.5 -58.5h-242v724h79h344v-65h-344v-207h159q113 0 175 -58zM448 109.5q40 38.5 40 115.5q0 79 -39 117.5t-111 38.5h-163v-310h159q74 0 114 38.5z" />
    <glyph glyph-name="uni0183" unicode="&#x183;" horiz-adv-x="575" 
d="M466 473q53 -75 53 -209q0 -131 -56 -204t-156 -73q-44 0 -81 17.5t-62 50.5v-55h-72v63v432v275h77h267v-63h-267v-233q54 74 149 74t148 -75zM405 109.5q34 52.5 34 153.5q0 104 -35.5 157.5t-105.5 53.5q-38 0 -69.5 -15.5t-59.5 -48.5v-291q25 -29 60.5 -45.5
t74.5 -16.5q67 0 101 52.5z" />
    <glyph glyph-name="uni0184" unicode="&#x184;" horiz-adv-x="604" 
d="M517.5 393.5q62.5 -58.5 62.5 -168.5q0 -107 -62.5 -166t-170.5 -59h-242v522l-69 63v34l92 105h56v-199v-73h159q112 0 174.5 -58.5zM457 109.5q40 38.5 40 115.5q0 79 -39 117.5t-111 38.5h-163v-310h159q74 0 114 38.5z" />
    <glyph glyph-name="uni0185" unicode="&#x185;" horiz-adv-x="576" 
d="M467 473q53 -75 53 -209q0 -131 -56 -204t-156 -73q-44 0 -81 17.5t-62 50.5v-55h-72v63v432v78l-61 68v27l84 102h54v-193v-103q54 74 149 74t148 -75zM406 109.5q34 52.5 34 153.5q0 104 -35.5 157.5t-105.5 53.5q-38 0 -69.5 -15.5t-59.5 -48.5v-291q26 -29 61 -45.5
t74 -16.5q67 0 101 52.5z" />
    <glyph glyph-name="uni0186" unicode="&#x186;" horiz-adv-x="600" 
d="M398.5 693q72.5 -43 110.5 -124t38 -193q0 -116 -39 -204.5t-110.5 -136.5t-166.5 -48q-48 0 -96.5 12.5t-87.5 35.5l29 64q83 -39 157 -39q109 0 170 82t61 227q0 144 -62 218.5t-182 74.5q-89 0 -150 -35l-29 63q31 22 80 34t105 12q100 0 172.5 -43z" />
    <glyph glyph-name="uni0187" unicode="&#x187;" horiz-adv-x="693" 
d="M672 849v-68q-22 3 -39 3q-39 0 -59.5 -21.5t-20.5 -62.5v-12v-63h-30q-82 39 -157 39q-109 0 -169.5 -81.5t-60.5 -227.5q0 -144 61.5 -218.5t181.5 -74.5q89 0 150 35l30 -63q-32 -22 -81 -34t-105 -12q-100 0 -172 43t-110 124t-38 193q0 116 39 204.5t110 136.5
t166 48q60 0 120 -19q5 63 43 98.5t103 35.5q23 0 38 -3z" />
    <glyph glyph-name="uni0188" unicode="&#x188;" horiz-adv-x="573" 
d="M557 664v-67q-23 3 -38 3q-81 0 -81 -86v-11v-61h-30q-65 35 -124 35q-72 0 -112 -53.5t-40 -148.5q0 -106 41.5 -160.5t123.5 -54.5q61 0 118 34l29 -62q-29 -21 -69 -32.5t-84 -11.5q-113 0 -176 74t-63 207q0 83 29 146.5t82 98t123 34.5q43 0 87 -14q5 63 43.5 98
t103.5 35q22 0 37 -3z" />
    <glyph glyph-name="uni0189" unicode="&#x189;" horiz-adv-x="688" 
d="M540 632q86 -92 86 -270t-87 -270t-251 -92h-193v332h-67v69h67v323h197q162 0 248 -92zM479.5 145q63.5 74 63.5 217t-64.5 217t-190.5 74h-114v-252h189v-69h-189v-261h118q124 0 187.5 74z" />
    <glyph glyph-name="uni018A" unicode="&#x18a;" horiz-adv-x="742" 
d="M593 632q86 -92 86 -270t-86.5 -270t-250.5 -92h-193v653q-78 0 -78 -75q0 -15 3 -39h-74q-4 15 -4 38q0 70 40.5 108.5t112.5 38.5h197q161 0 247 -92zM532.5 145q63.5 74 63.5 217t-64.5 217t-189.5 74h-114v-582h117q124 0 187.5 74z" />
    <glyph glyph-name="uni018B" unicode="&#x18b;" horiz-adv-x="624" 
d="M527 0h-242q-108 0 -170 58.5t-62 166.5q0 111 62 169t174 58h159v207h-344v65h423v-724zM448 381h-163q-72 0 -110.5 -38.5t-38.5 -117.5q0 -77 39.5 -115.5t113.5 -38.5h159v310z" />
    <glyph glyph-name="uni018C" unicode="&#x18c;" horiz-adv-x="575" 
d="M482 0h-71v69q-27 -40 -66.5 -61t-88.5 -21q-95 0 -147.5 75t-52.5 209q0 131 55.5 204t155.5 73q42 0 77.5 -16t60.5 -45v220h-266v63h343v-770zM344.5 76.5q31.5 15.5 60.5 47.5v293q-25 29 -60.5 45t-74.5 16q-67 0 -100.5 -52.5t-33.5 -154.5q0 -104 35 -157t105 -53
q37 0 68.5 15.5z" />
    <glyph glyph-name="uni018D" unicode="&#x18d;" horiz-adv-x="555" 
d="M164.5 -209.5q-33.5 10.5 -66.5 29.5l30 65q35 -18 60 -26.5t63 -8.5q51 0 75.5 20t24.5 50t-22 51t-71 53l-32 21q-51 35 -86.5 68.5t-59.5 83t-24 116.5q0 55 23.5 109t74 90t125.5 36q65 0 115 -30.5t77.5 -83.5t27.5 -118q0 -80 -42.5 -149t-126.5 -102
q53 -36 76.5 -64.5t23.5 -70.5q0 -64 -47.5 -107t-134.5 -43q-50 0 -83.5 10.5zM376 177.5q43 53.5 43 135.5q0 75 -38.5 120.5t-104.5 45.5q-64 0 -102.5 -45.5t-38.5 -119.5q0 -81 34 -128t99 -83q65 21 108 74.5z" />
    <glyph glyph-name="uni018E" unicode="&#x18e;" horiz-adv-x="575" 
d="M478 724v-724h-433v71h354v263h-256v72h256v247h-342v71h421z" />
    <glyph glyph-name="uni018F" unicode="&#x18f;" horiz-adv-x="685" 
d="M542 640.5q81 -95.5 81 -279.5q0 -183 -74 -278t-213 -95q-86 0 -151 40t-101 119t-36 192q0 28 4 52h491q-7 126 -69 196.5t-167 70.5q-91 0 -188 -53l-32 68q43 30 101.5 46.5t120.5 16.5q152 0 233 -95.5zM483.5 127.5q51.5 65.5 59.5 193.5h-414q1 -123 56 -191
t153 -68q94 0 145.5 65.5z" />
    <glyph glyph-name="uni0190" unicode="&#x190;" horiz-adv-x="547" 
d="M533 40q-45 -26 -103 -39t-118 -13q-121 0 -192.5 56.5t-71.5 163.5q0 132 131 173q-103 47 -103 164q0 94 66.5 143t174.5 49q52 0 100.5 -12.5t85.5 -34.5l-27 -62q-81 37 -155 37q-72 0 -117.5 -32t-45.5 -95q0 -64 38.5 -97.5t109.5 -33.5h105v-70h-113
q-75 0 -121 -30t-46 -99q0 -72 49 -109t142 -37q46 0 91.5 11t85.5 31z" />
    <glyph glyph-name="uni0191" unicode="&#x191;" horiz-adv-x="536" 
d="M175 653v-259h275v-73h-275v-321v-64q0 -76 -36.5 -115t-108.5 -39q-31 0 -58 9l12 68q19 -6 46 -6q34 0 50 20t16 63v230v558h415v-71h-336z" />
    <glyph glyph-name="florin" unicode="&#x192;" horiz-adv-x="551" 
d="M326 576l-22 -160h154v-65h-163l-53 -392q-10 -79 -55.5 -123.5t-116.5 -44.5q-20 0 -50 4l11 73q17 -4 35 -4q42 0 66.5 24.5t31.5 72.5l53 390h-113v65h122l22 162q10 75 55 117t115 42q34 0 66 -10t53 -29l-39 -60q-36 26 -81 26q-79 0 -91 -88z" />
    <glyph glyph-name="uni0193" unicode="&#x193;" horiz-adv-x="752" 
d="M695 849v-68q-24 3 -39 3q-39 0 -60 -21.5t-21 -62.5v-12v-64h-24q-85 41 -166 41q-118 0 -178.5 -77t-60.5 -226q0 -150 61 -227t180 -77q64 0 126 20v232h-133v71h212v-344q-37 -24 -91 -37t-114 -13q-101 0 -174 44.5t-111.5 129t-38.5 201.5t38.5 201.5t111.5 129
t174 44.5q67 0 124 -18q5 63 43.5 98t102.5 35q23 0 38 -3z" />
    <glyph glyph-name="uni0194" unicode="&#x194;" horiz-adv-x="630" 
d="M405 42q24 -55 24 -99q0 -53 -30 -83.5t-83 -30.5q-52 0 -81.5 30t-29.5 83q0 42 23 100l49 119l-242 563h86l195 -469l195 469h85l-242 -560zM345.5 -92.5q10.5 12.5 10.5 35.5q0 35 -23 88l-18 42l-18 -42q-23 -55 -23 -87q0 -24 11 -36.5t31 -12.5q19 0 29.5 12.5z
" />
    <glyph glyph-name="uni0195" unicode="&#x195;" horiz-adv-x="909" 
d="M817 278q0 -143 -54 -217t-159 -74q-88 0 -137 50.5t-49 140.5v102v92q0 102 -111 102q-39 0 -72 -12.5t-66 -39.5v-422h-77v770h77v-287q67 65 160 65q79 0 122.5 -45t43.5 -125v-174v-7q0 -70 28.5 -105.5t83.5 -35.5q67 0 98.5 54t31.5 168q0 81 -7.5 139t-23.5 118
h80q31 -117 31 -257z" />
    <glyph glyph-name="uni0196" unicode="&#x196;" horiz-adv-x="294" 
d="M123 22q-27 29 -27 85v617h79v-612q0 -24 11 -35.5t34 -11.5q17 0 40 4l7 -68q-32 -8 -64 -8q-53 0 -80 29z" />
    <glyph glyph-name="uni0197" unicode="&#x197;" horiz-adv-x="315" 
d="M287 338h-90v-338h-79v338h-90v69h90v317h79v-317h90v-69z" />
    <glyph glyph-name="uni0198" unicode="&#x198;" horiz-adv-x="625" 
d="M526 650.5q-17 -13.5 -43 -44.5l-165 -207l295 -399h-96l-250 335l-92 -115v-220h-79v724h79v-402l256 334q33 43 63 62t66 19q61 0 100 -47l-45 -57q-34 31 -57 31q-15 0 -32 -13.5z" />
    <glyph glyph-name="uni0199" unicode="&#x199;" horiz-adv-x="537" 
d="M245 251l-76 -85v-166h-77v535v102q0 69 34 104t100 35q33 0 59 -10l-11 -61q-20 6 -47 6q-29 0 -43.5 -18t-14.5 -55v-270v-107l237 274h94l-202 -225l213 -310h-94z" />
    <glyph glyph-name="uni019A" unicode="&#x19a;" horiz-adv-x="339" 
d="M293 2q-32 -8 -64 -8q-56 0 -85 29.5t-29 87.5v250h-86v61h86v348h77v-348h95v-61h-95v-245q0 -28 13 -40.5t41 -12.5q17 0 40 4z" />
    <glyph glyph-name="uni019B" unicode="&#x19b;" horiz-adv-x="516" 
d="M403 0l-144 443l-145 -443h-83l189 540q-11 21 -25 40l-119 -61h-10v57l89 45q-45 38 -121 65l27 68q100 -35 163 -98l114 58h10v-57l-88 -44q23 -34 37 -73l188 -540h-82z" />
    <glyph glyph-name="uni019C" unicode="&#x19c;" horiz-adv-x="889" 
d="M792 724v-724h-73v58q-33 -35 -73 -53t-84 -18q-51 0 -87 21t-55 61q-35 -40 -77.5 -61t-89.5 -21q-73 0 -115 45t-42 125v567h79v-561q0 -50 25.5 -76t74.5 -26q65 0 131 57q-3 18 -3 39v567h79v-561q0 -50 25.5 -76t75.5 -26q66 0 130 56v607h79z" />
    <glyph glyph-name="uni019D" unicode="&#x19d;" horiz-adv-x="722" 
d="M626 724v-724h-74l-379 590v-590v-64q0 -76 -36.5 -115t-106.5 -39q-34 0 -59 9l11 68q21 -6 47 -6q35 0 51 20t16 63v230v558h74l379 -588v588h77z" />
    <glyph glyph-name="uni019E" unicode="&#x19e;" horiz-adv-x="581" 
d="M449.5 503q43.5 -45 43.5 -125v-378v-207h-77v272v307q0 50 -28 76t-82 26q-38 0 -71 -12.5t-66 -39.5v-422h-77v535h72v-58q66 71 164 71q78 0 121.5 -45z" />
    <glyph glyph-name="uni019F" unicode="&#x19f;" horiz-adv-x="712" 
d="M574 641.5q76 -95.5 76 -279.5t-76 -279.5t-218 -95.5t-217.5 95.5t-75.5 279.5t75.5 279.5t217.5 95.5t218 -95.5zM205.5 598q-53.5 -68 -59.5 -199h421q-7 131 -60.5 199t-150.5 68t-150.5 -68zM508.5 127.5q53.5 69.5 58.5 203.5h-422q6 -134 59.5 -203.5t151.5 -69.5
q99 0 152.5 69.5z" />
    <glyph glyph-name="Ohorn" unicode="&#x1a0;" horiz-adv-x="712" 
d="M659.5 705q-34.5 -34 -109.5 -39q100 -95 100 -304q0 -183 -76 -279t-218 -96t-217.5 95.5t-75.5 279.5t75.5 279.5t217.5 95.5q28 0 46.5 -3t41.5 -9q39 -11 78 -11q54 0 76.5 21t22.5 67q0 25 -5 61h73q5 -30 5 -59q0 -65 -34.5 -99zM513.5 588.5
q-53.5 77.5 -157.5 77.5t-157 -77t-53 -227t53 -227t157 -77t157.5 77.5t53.5 226.5t-53.5 226.5z" />
    <glyph glyph-name="ohorn" unicode="&#x1a1;" horiz-adv-x="566" 
d="M534 522.5q-32 -30.5 -102 -36.5q68 -70 68 -219q0 -137 -57.5 -208.5t-164.5 -71.5t-164.5 71.5t-57.5 208.5q0 138 57.5 209.5t164.5 71.5q31 0 61 -7q32 -6 59 -6q55 0 77 17t22 61q0 25 -5 61h69q5 -30 5 -59q0 -62 -32 -92.5zM384 109.5q36 53.5 36 157.5t-36 158
t-106 54t-106 -53.5t-36 -158.5q0 -104 36 -157.5t106 -53.5t106 53.5z" />
    <glyph glyph-name="uni01A2" unicode="&#x1a2;" horiz-adv-x="880" 
d="M783 724v-932h-79v861h-103v-615q-90 -49 -245 -49q-143 0 -218 94.5t-75 278.5q0 187 71.5 280t221.5 93q22 0 53 -3q104 -8 192 -8h182zM522 82v573q-32 2 -51 4q-11 1 -45.5 3t-69.5 2q-104 0 -157 -76.5t-53 -225.5t53 -225.5t157 -76.5q103 0 166 22z" />
    <glyph glyph-name="uni01A3" unicode="&#x1a3;" horiz-adv-x="723" 
d="M631 535v-741h-77v672h-89v-452q-101 -25 -188 -25q-107 0 -164 70.5t-57 207.5q0 138 57.5 208.5t164.5 70.5q15 0 53 -4q70 -7 134 -7h166zM388 67v402q-60 6 -90 7l-20 1q-70 0 -106 -53t-36 -157q0 -103 35.5 -156t105.5 -53q65 0 111 9z" />
    <glyph glyph-name="uni01A4" unicode="&#x1a4;" horiz-adv-x="648" 
d="M564 663q59 -61 59 -170q0 -110 -60.5 -172t-169.5 -62h-165v-259h-79v653q-78 0 -78 -75q0 -15 3 -39h-74q-4 15 -4 38q0 70 40.5 108.5t112.5 38.5h79h170q107 0 166 -61zM504 372q36 41 36 120t-37 120t-110 41h-165v-322h170q70 0 106 41z" />
    <glyph glyph-name="uni01A5" unicode="&#x1a5;" horiz-adv-x="575" 
d="M466 473q53 -75 53 -209q0 -131 -56 -204t-156 -73q-41 0 -76.5 16t-61.5 45v-255h-77v599v143v102q0 69 34 104t100 35q33 0 59 -10l-11 -61q-26 6 -47 6q-29 0 -43.5 -18t-14.5 -55v-164q27 37 65 55.5t84 18.5q95 0 148 -75zM405 109.5q34 52.5 34 153.5
q0 104 -35.5 157.5t-105.5 53.5q-37 0 -68.5 -15.5t-60.5 -48.5v-292q26 -29 61 -45t74 -16q67 0 101 52.5z" />
    <glyph glyph-name="uni01A6" unicode="&#x1a6;" horiz-adv-x="624" 
d="M562 -110l-222 346h-9h-156v-236h-79v724h79v-81h160q103 0 161.5 -55.5t58.5 -147.5q0 -70 -34.5 -120t-97.5 -71l236 -359h-97zM175 307h160q68 0 102.5 35t34.5 98q0 62 -35.5 97t-105.5 35h-156v-265z" />
    <glyph glyph-name="uni01A7" unicode="&#x1a7;" horiz-adv-x="561" 
d="M118 44.5q-65 56.5 -65 152.5q0 77 43.5 125t135.5 74l82 23q59 16 86.5 47t27.5 80q0 56 -38.5 87t-107.5 31q-78 0 -182 -41l-27 69q45 21 100 32.5t107 11.5q105 0 166.5 -54.5t61.5 -146.5q0 -77 -43 -125.5t-135 -73.5l-82 -23q-59 -16 -87 -47t-28 -80
q0 -59 42 -92.5t118 -33.5q101 0 194 54l29 -68q-46 -28 -104.5 -43t-118.5 -15q-110 0 -175 56.5z" />
    <glyph glyph-name="uni01A8" unicode="&#x1a8;" horiz-adv-x="464" 
d="M100.5 30.5q-51.5 42.5 -51.5 118.5q0 61 34.5 98t107.5 54l71 17q40 10 59 29t19 50q0 40 -27 60.5t-80 20.5q-66 0 -138 -36l-30 65q34 19 77.5 29.5t88.5 10.5q88 0 137 -41.5t49 -115.5q0 -59 -35 -95t-108 -53l-71 -17q-41 -10 -59.5 -29.5t-18.5 -52.5
q0 -42 30 -64t89 -22q80 0 152 44l28 -65q-36 -23 -83 -35.5t-97 -12.5q-92 0 -143.5 42.5z" />
    <glyph glyph-name="uni01A9" unicode="&#x1a9;" horiz-adv-x="575" 
d="M55 71l242 296l-242 287v70h475v-70h-383l246 -287l-246 -297h383v-70h-475v71z" />
    <glyph glyph-name="uni01AA" unicode="&#x1aa;" horiz-adv-x="299" 
d="M355 -145v-68q-22 -5 -52 -5q-82 0 -127.5 46t-45.5 129v96v522q-22 -19 -63 -19q-51 0 -82 29t-31 84t33 86.5t91 31.5t93 -33t35 -87v-656v-54q0 -52 25 -79t72 -27q20 0 52 4zM130 670q0 24 -13.5 37.5t-36.5 13.5q-50 0 -50 -52t49 -52q51 0 51 53z" />
    <glyph glyph-name="uni01AB" unicode="&#x1ab;" horiz-adv-x="384" 
d="M357 5v-83q0 -69 -33 -104t-97 -35q-38 0 -63 9l10 62q21 -6 51 -6q32 0 48 18t16 55v72h-12q-81 0 -123 44.5t-42 132.5v300h-92v65h93v159h76v-159h161v-65h-161v-289q0 -61 24.5 -90t75.5 -29q27 0 55 9l12 -66h1z" />
    <glyph glyph-name="uni01AC" unicode="&#x1ac;" horiz-adv-x="526" 
d="M496 652h-193v-652h-79v652h-69q-38 0 -58 -19t-20 -55q0 -15 3 -39h-74q-3 17 -3 38q0 69 40 108t111 39h149h193v-72z" />
    <glyph glyph-name="uni01AD" unicode="&#x1ad;" horiz-adv-x="384" 
d="M357 5q-36 -12 -80 -12q-81 0 -123 44.5t-42 132.5v300h-92v65h93v66q0 82 48.5 128.5t134.5 46.5q30 0 52 -5v-68q-32 4 -52 4q-52 0 -79.5 -27t-27.5 -79v-66h161v-65h-161v-289q0 -61 24.5 -90t75.5 -29q27 0 55 9z" />
    <glyph glyph-name="uni01AE" unicode="&#x1ae;" horiz-adv-x="526" 
d="M303 652v-486v-230q0 -43 16 -63t50 -20q26 0 46 6l12 -68q-27 -9 -58 -9q-72 0 -108.5 39t-36.5 115v64v652h-193v72h272h193v-72h-193z" />
    <glyph glyph-name="Uhorn" unicode="&#x1af;" horiz-adv-x="684" 
d="M685.5 713.5q-28.5 -30.5 -92.5 -37.5v-420q0 -127 -66.5 -198t-185.5 -71q-118 0 -184 71t-66 198v468h79v-467q0 -98 43.5 -148.5t128.5 -50.5t128.5 50.5t43.5 148.5v467h28q55 0 77 17t22 61q0 25 -5 61h73q5 -30 5 -59q0 -60 -28.5 -90.5z" />
    <glyph glyph-name="uhorn" unicode="&#x1b0;" horiz-adv-x="573" 
d="M568.5 526q-27.5 -30 -88.5 -38v-488h-71v65q-58 -78 -161 -78q-77 0 -120 45t-43 125v378h77v-372q0 -50 27.5 -76t80.5 -26q40 0 72.5 15t60.5 47v412h25q55 0 77 17t22 61q0 25 -5 61h69q5 -30 5 -59q0 -59 -27.5 -89z" />
    <glyph glyph-name="uni01B1" unicode="&#x1b1;" horiz-adv-x="732" 
d="M150.5 73.5q-77.5 85.5 -77.5 238.5q0 102 35.5 188t104.5 153h-150v71h257v-68q-84 -63 -124 -145.5t-40 -192.5q0 -129 53 -194.5t157 -65.5q210 0 210 260q0 110 -40 192.5t-124 145.5v68h258v-71h-151q69 -67 104.5 -153t35.5 -188q0 -153 -77.5 -238.5t-215.5 -85.5
t-215.5 85.5z" />
    <glyph glyph-name="uni01B2" unicode="&#x1b2;" horiz-adv-x="684" 
d="M593 353v-97q0 -127 -66.5 -198t-185.5 -71q-118 0 -184 71t-66 198v468h79v-467q0 -98 43.5 -148.5t128.5 -50.5t128.5 50.5t43.5 148.5v212v114q0 43 -16 63t-51 20q-25 0 -45 -6l-12 68q27 9 58 9q71 0 108 -39t37 -115v-230z" />
    <glyph glyph-name="uni01B3" unicode="&#x1b3;" horiz-adv-x="649" 
d="M639 705.5q29 -33.5 33 -98.5l-67 -13q-5 36 -16 53t-30 17q-15 0 -27.5 -12t-25.5 -39l-174 -355v-258h-79v258l-226 466h88l179 -374l139 291q25 51 55 74.5t71 23.5q51 0 80 -33.5z" />
    <glyph glyph-name="uni01B4" unicode="&#x1b4;" horiz-adv-x="624" 
d="M611 617.5q28 -32.5 32 -95.5l-65 -12q-9 68 -45 68q-18 0 -31 -16t-26 -53l-179 -514q-53 -150 -236 -214l-27 68q71 25 116 60.5t70 85.5l-189 540h83l145 -444l145 447q36 112 130 112q49 0 77 -32.5z" />
    <glyph glyph-name="uni01B5" unicode="&#x1b5;" horiz-adv-x="551" 
d="M504 70v-70h-459v71l172 274h-132v67h174l152 242h-354v70h443v-70l-152 -242h116v-67h-157l-173 -275h370z" />
    <glyph glyph-name="uni01B6" unicode="&#x1b6;" horiz-adv-x="464" 
d="M420 65v-65h-377v65l125 179h-101v56h141l119 170h-276v65h365v-65l-120 -170h106v-56h-145l-126 -179h289z" />
    <glyph glyph-name="uni01B7" unicode="&#x1b7;" horiz-adv-x="567" 
d="M447.5 370.5q64.5 -50.5 64.5 -150.5q0 -113 -74.5 -172.5t-198.5 -59.5q-60 0 -119 13.5t-104 39.5l33 65q42 -20 92 -32t97 -12q93 0 142 39.5t49 118.5q0 77 -57.5 111t-164.5 34h-41v66l207 222h-321v71h417v-72l-207 -223q121 -8 185.5 -58.5z" />
    <glyph glyph-name="uni01B8" unicode="&#x1b8;" horiz-adv-x="567" 
d="M551 41q-45 -26 -104 -39.5t-119 -13.5q-124 0 -198.5 59.5t-74.5 172.5q0 101 64 151t185 58l-206 223v72h417v-71h-321l207 -222v-66h-41q-107 0 -164.5 -34t-57.5 -111q0 -79 49 -118.5t142 -39.5q47 0 97 12t92 32z" />
    <glyph glyph-name="uni01B9" unicode="&#x1b9;" horiz-adv-x="503" 
d="M475 -180q-36 -21 -85 -30.5t-99 -9.5q-109 0 -177 57.5t-68 169.5q0 99 63 149.5t173 58.5l-199 253v67h375v-66h-285l194 -253v-64h-44q-90 0 -143.5 -34.5t-53.5 -112.5q0 -75 45 -115.5t126 -40.5q41 0 76 7.5t74 25.5z" />
    <glyph glyph-name="uni01BA" unicode="&#x1ba;" horiz-adv-x="460" 
d="M277 -123.5q48 10.5 93 31.5l27 -63q-56 -25 -106 -35t-102 -10q-86 0 -133.5 33.5t-47.5 95.5q0 123 181 127q51 2 79.5 7.5t47 24.5t18.5 59q0 55 -41 79.5t-132 24.5h-34v60l154 158h-253v66h348v-68l-156 -156q99 -7 146.5 -45.5t47.5 -114.5q0 -67 -31.5 -102.5
t-79 -47.5t-113.5 -14q-46 -1 -76 -11.5t-30 -46.5q0 -63 110 -63q35 0 83 10.5z" />
    <glyph glyph-name="uni01BB" unicode="&#x1bb;" horiz-adv-x="530" 
d="M348 327l-214 -259h332v-68h-423v69l210 258h-197v66h251q40 50 56 84.5t16 68.5q0 55 -35.5 86.5t-96.5 31.5q-43 0 -87.5 -15t-80.5 -41l-38 62q38 30 96 48.5t115 18.5q93 0 149.5 -50t56.5 -133q0 -38 -14 -76.5t-46 -84.5h68v-66h-118z" />
    <glyph glyph-name="uni01BC" unicode="&#x1bc;" horiz-adv-x="542" 
d="M431 384.5q58 -55.5 58 -158.5q0 -72 -29 -126t-83 -83.5t-128 -29.5q-51 0 -103.5 14t-88.5 38l33 68q36 -22 78 -34.5t81 -12.5q77 0 118 44t41 122q0 75 -42.5 114t-136.5 45l-121 8v263h-83v68h133h301v-68h-274v-200l70 -6q118 -10 176 -65.5z" />
    <glyph glyph-name="uni01BD" unicode="&#x1bd;" horiz-adv-x="470" 
d="M368 282q53 -41 53 -118q0 -83 -55 -130t-152 -47q-42 0 -87.5 12t-77.5 30l27 61q65 -33 138 -33q61 0 94 27t33 80q0 50 -38.5 75.5t-100.5 28.5l-109 7v195h-73v65h115h260v-65h-227v-136l51 -4q96 -7 149 -48z" />
    <glyph glyph-name="uni01BE" unicode="&#x1be;" horiz-adv-x="496" 
d="M144 2.5q-52 14.5 -88 37.5l27 66q37 -22 80 -35.5t82 -13.5q58 0 88.5 21t30.5 61q0 35 -20 54t-63 41q-35 17 -56.5 32.5t-37 43t-15.5 69.5v91h-93v65h93v159h77v-159h160v-65h-160v-87q0 -35 20.5 -54.5t63.5 -41.5q35 -18 56 -33.5t36 -42t15 -66.5
q0 -74 -52 -115.5t-143 -41.5q-49 0 -101 14.5z" />
    <glyph glyph-name="uni01BF" unicode="&#x1bf;" horiz-adv-x="562" 
d="M460.5 494q45.5 -54 45.5 -150q0 -60 -20.5 -108.5t-66.5 -95t-127 -100.5l-123 -83v-164h-77v742h72v-77q32 44 74.5 67t94.5 23q82 0 127.5 -54zM392 218q34 50 34 118t-28.5 103t-84.5 35q-38 0 -73 -18.5t-71 -56.5v-360l103 70q86 59 120 109z" />
    <glyph glyph-name="uni01C0" unicode="&#x1c0;" horiz-adv-x="267" 
d="M98 770h71v-770h-71v770z" />
    <glyph glyph-name="uni01C1" unicode="&#x1c1;" horiz-adv-x="416" 
d="M98 770h71v-770h-71v770zM247 770h71v-770h-71v770z" />
    <glyph glyph-name="uni01C2" unicode="&#x1c2;" horiz-adv-x="347" 
d="M208 464v-157h110v-67h-110v-240h-70v240h-110v67h110v157h-110v67h110v239h70v-239h110v-67h-110z" />
    <glyph glyph-name="uni01C3" unicode="&#x1c3;" horiz-adv-x="347" 
d="M126 770h91l-13 -583h-62zM131 2.5q-15 15.5 -15 42.5t15 42.5t43 15.5q27 0 42 -15t15 -42q0 -28 -15 -43.5t-42 -15.5q-28 0 -43 15.5z" />
    <glyph glyph-name="uni01C4" unicode="&#x1c4;" horiz-adv-x="1193" 
d="M873 781l-117 133v12h64l98 -92l97 92h61v-12l-117 -133h-86zM541 632q86 -92 86 -270t-87 -270t-251 -92h-193v724h197q162 0 248 -92zM1146 70v-70h-459v71l366 583h-354v70h443v-70l-366 -584h370zM480.5 145q63.5 74 63.5 217t-64.5 217t-190.5 74h-114v-582h118
q124 0 187.5 74z" />
    <glyph glyph-name="uni01C5" unicode="&#x1c5;" horiz-adv-x="1115" 
d="M838 611l-117 133v12h64l98 -92l97 92h61v-12l-117 -133h-86zM541 632q86 -92 86 -270t-87 -270t-251 -92h-193v724h197q162 0 248 -92zM480.5 145q63.5 74 63.5 217t-64.5 217t-190.5 74h-114v-582h118q124 0 187.5 74zM1072 65v-65h-377v65l285 405h-277v65h365v-65
l-285 -405h289z" />
    <glyph glyph-name="uni01C6" unicode="&#x1c6;" horiz-adv-x="1011" 
d="M482 770v-770h-71v69q-27 -40 -66.5 -61t-88.5 -21q-95 0 -147.5 75t-52.5 209q0 131 55.5 204t155.5 73q42 0 77.5 -16t60.5 -45v283h77zM344.5 76.5q31.5 15.5 60.5 47.5v293q-25 29 -60.5 45t-74.5 16q-67 0 -100.5 -52.5t-33.5 -154.5q0 -104 35 -157t105 -53
q37 0 68.5 15.5zM967 65v-65h-377v65l284 405h-276v65h365v-65l-285 -405h289zM918 784v-10l-102 -159h-80l-102 159v10h58l85 -111l86 111h55z" />
    <glyph glyph-name="uni01C7" unicode="&#x1c7;" horiz-adv-x="973" 
d="M175 72h323v-72h-402v724h79v-652zM882 724v-543q0 -91 -48 -142.5t-134 -51.5q-34 0 -70 8t-64 23l27 67q60 -26 106 -26q52 0 78 31t26 91v543h79z" />
    <glyph glyph-name="uni01C8" unicode="&#x1c8;" horiz-adv-x="793" 
d="M498 72v-72h-402v724h79v-652h323zM484 -155q54 19 83.5 41t41.5 55t12 87v507h77v-507q0 -72 -16.5 -117t-57 -75.5t-114.5 -55.5zM620.5 643.5q-14.5 14.5 -14.5 40.5t14.5 41t39.5 15t39.5 -14.5t14.5 -40.5t-14.5 -41t-39.5 -15t-39.5 14.5z" />
    <glyph glyph-name="uni01C9" unicode="&#x1c9;" horiz-adv-x="566" 
d="M119 23.5q-29 29.5 -29 87.5v659h77v-654q0 -28 13 -40.5t42 -12.5q18 0 39 4l8 -65q-32 -8 -64 -8q-57 0 -86 29.5zM239 -155q54 19 83.5 41t41.5 55t12 87v507h77v-507q0 -72 -16.5 -117t-57 -75.5t-114.5 -55.5zM375.5 643.5q-14.5 14.5 -14.5 40.5t14.5 41t39.5 15
t39.5 -14.5t14.5 -40.5t-14.5 -41t-39.5 -15t-39.5 14.5z" />
    <glyph glyph-name="uni01CA" unicode="&#x1ca;" horiz-adv-x="1118" 
d="M549 724h77v-724h-74l-379 590v-590h-77v724h74l379 -588v588zM1027 724v-543q0 -91 -48 -142.5t-134 -51.5q-34 0 -70 8t-64 23l27 67q60 -26 106 -26q52 0 78 31t26 91v543h79z" />
    <glyph glyph-name="uni01CB" unicode="&#x1cb;" horiz-adv-x="969" 
d="M626 724v-724h-74l-379 590v-590h-77v724h74l379 -588v588h77zM661 -155q54 19 83.5 41t41.5 55t12 87v507h77v-507q0 -72 -16.5 -117t-57 -75.5t-114.5 -55.5zM797.5 643.5q-14.5 14.5 -14.5 40.5t14.5 41t39.5 15t39.5 -14.5t14.5 -40.5t-14.5 -41t-39.5 -15
t-39.5 14.5z" />
    <glyph glyph-name="uni01CC" unicode="&#x1cc;" horiz-adv-x="828" 
d="M449.5 503q43.5 -45 43.5 -125v-378h-77v372q0 50 -28 76t-82 26q-38 0 -71 -12.5t-66 -39.5v-422h-77v535h72v-58q66 71 164 71q78 0 121.5 -45zM519 -155q54 19 83.5 41t41.5 55t12 87v507h77v-507q0 -72 -16.5 -117t-57 -75.5t-114.5 -55.5zM655.5 643.5
q-14.5 14.5 -14.5 40.5t14.5 41t39.5 15t39.5 -14.5t14.5 -40.5t-14.5 -41t-39.5 -15t-39.5 14.5z" />
    <glyph glyph-name="uni01CD" unicode="&#x1cd;" horiz-adv-x="666" 
d="M290 781l-117 133v12h64l98 -92l97 92h61v-12l-117 -133h-86zM483 195h-301l-66 -195h-85l258 724h89l258 -724h-86zM459 265l-127 374l-127 -374h254z" />
    <glyph glyph-name="uni01CE" unicode="&#x1ce;" horiz-adv-x="529" 
d="M390.5 504.5q52.5 -43.5 52.5 -126.5v-378h-71v66q-52 -77 -161 -77q-79 0 -123 42t-44 117q0 96 78.5 141.5t244.5 46.5v35q0 52 -32 78.5t-94 26.5q-63 0 -126 -29l-20 64q74 37 156 37q87 0 139.5 -43.5zM367 123v150q-127 -1 -186.5 -29.5t-59.5 -89.5
q0 -47 27.5 -71t80.5 -24q80 0 138 64zM394 784v-10l-102 -159h-80l-102 159v10h58l85 -111l86 111h55z" />
    <glyph glyph-name="uni01CF" unicode="&#x1cf;" horiz-adv-x="276" 
d="M298 926v-12l-117 -133h-86l-117 133v12h64l98 -92l97 92h61zM98 724h79v-724h-79v724z" />
    <glyph glyph-name="uni01D0" unicode="&#x1d0;" horiz-adv-x="266" 
d="M94 535h77v-535h-77v535zM275 784v-10l-102 -159h-80l-102 159v10h58l85 -111l86 111h55z" />
    <glyph glyph-name="uni01D1" unicode="&#x1d1;" horiz-adv-x="712" 
d="M313 781l-117 133v12h64l98 -92l97 92h61v-12l-117 -133h-86zM574 641.5q76 -95.5 76 -279.5t-76 -279.5t-218 -95.5t-217.5 95.5t-75.5 279.5t75.5 279.5t217.5 95.5t218 -95.5zM513.5 135.5q53.5 77.5 53.5 226.5t-53.5 226.5t-157.5 77.5t-157 -77t-53 -227t53 -227
t157 -77t157.5 77.5z" />
    <glyph glyph-name="uni01D2" unicode="&#x1d2;" horiz-adv-x="556" 
d="M113 58.5q-57 71.5 -57 208.5q0 138 57.5 209.5t164.5 71.5t164.5 -71.5t57.5 -209.5q0 -137 -58 -208.5t-165 -71.5t-164 71.5zM383.5 109.5q36.5 53.5 36.5 157.5t-36 158t-106 54t-106 -53.5t-36 -158.5q0 -104 35.5 -157.5t105.5 -53.5t106.5 53.5zM420 784v-10
l-102 -159h-80l-102 159v10h58l85 -111l86 111h55z" />
    <glyph glyph-name="uni01D3" unicode="&#x1d3;" horiz-adv-x="684" 
d="M299 781l-117 133v12h64l98 -92l97 92h61v-12l-117 -133h-86zM593 724v-468q0 -127 -66.5 -198t-185.5 -71q-118 0 -184 71t-66 198v468h79v-467q0 -98 43.5 -148.5t128.5 -50.5t128.5 50.5t43.5 148.5v467h79z" />
    <glyph glyph-name="uni01D4" unicode="&#x1d4;" horiz-adv-x="573" 
d="M480 535v-535h-71v65q-58 -78 -161 -78q-77 0 -120 45t-43 125v378h77v-372q0 -50 27.5 -76t80.5 -26q40 0 72.5 15t60.5 47v412h77zM425 784v-10l-102 -159h-80l-102 159v10h58l85 -111l86 111h55z" />
    <glyph glyph-name="uni01D5" unicode="&#x1d5;" horiz-adv-x="684" 
d="M198 985h288v-57h-288v57zM214 790.5q-13 13.5 -13 37.5q0 25 13 38.5t37 13.5q23 0 36 -13.5t13 -37.5q0 -25 -13 -38.5t-36 -13.5q-24 0 -37 13.5zM396 790.5q-13 13.5 -13 37.5q0 25 13 38.5t37 13.5q23 0 36 -13.5t13 -37.5q0 -25 -13 -38.5t-36 -13.5
q-24 0 -37 13.5zM157 58q-66 71 -66 198v468h79v-467q0 -98 43.5 -148.5t128.5 -50.5t128.5 50.5t43.5 148.5v467h79v-468q0 -127 -66.5 -198t-185.5 -71q-118 0 -184 71z" />
    <glyph glyph-name="uni01D6" unicode="&#x1d6;" horiz-adv-x="573" 
d="M427 758h-288v57h288v-57zM155 696.5q13 13.5 37 13.5q23 0 36 -13.5t13 -37.5q0 -25 -13 -38.5t-36 -13.5q-24 0 -37 13.5t-13 37.5q0 25 13 38.5zM337 696.5q13 13.5 37 13.5q23 0 36 -13.5t13 -37.5q0 -25 -13 -38.5t-36 -13.5q-24 0 -37 13.5t-13 37.5q0 25 13 38.5z
M480 535v-535h-71v65q-58 -78 -161 -78q-77 0 -120 45t-43 125v378h77v-372q0 -50 27.5 -76t80.5 -26q40 0 72.5 15t60.5 47v412h77z" />
    <glyph glyph-name="uni01D7" unicode="&#x1d7;" horiz-adv-x="684" 
d="M315 913l81 127h72v-10l-102 -127h-51v10zM214 790.5q-13 13.5 -13 37.5q0 25 13 38.5t37 13.5q23 0 36 -13.5t13 -37.5q0 -25 -13 -38.5t-36 -13.5q-24 0 -37 13.5zM396 790.5q-13 13.5 -13 37.5q0 25 13 38.5t37 13.5q23 0 36 -13.5t13 -37.5q0 -25 -13 -38.5
t-36 -13.5q-24 0 -37 13.5zM157 58q-66 71 -66 198v468h79v-467q0 -98 43.5 -148.5t128.5 -50.5t128.5 50.5t43.5 148.5v467h79v-468q0 -127 -66.5 -198t-185.5 -71q-118 0 -184 71z" />
    <glyph glyph-name="uni01D8" unicode="&#x1d8;" horiz-adv-x="573" 
d="M307 733h-51v10l81 127h72v-10zM155 620.5q-13 13.5 -13 37.5q0 25 13 38.5t37 13.5q23 0 36 -13.5t13 -37.5q0 -25 -13 -38.5t-36 -13.5q-24 0 -37 13.5zM337 696.5q13 13.5 37 13.5q23 0 36 -13.5t13 -37.5q0 -25 -13 -38.5t-36 -13.5q-24 0 -37 13.5t-13 37.5
q0 25 13 38.5zM480 535v-535h-71v65q-58 -78 -161 -78q-77 0 -120 45t-43 125v378h77v-372q0 -50 27.5 -76t80.5 -26q40 0 72.5 15t60.5 47v412h77z" />
    <glyph glyph-name="uni01D9" unicode="&#x1d9;" horiz-adv-x="684" 
d="M302 904l-104 129v10h58l88 -88l87 88h55v-10l-104 -129h-80zM214 866.5q13 13.5 37 13.5q23 0 36 -13.5t13 -37.5q0 -25 -13 -38.5t-36 -13.5q-24 0 -37 13.5t-13 37.5q0 25 13 38.5zM396 866.5q13 13.5 37 13.5q23 0 36 -13.5t13 -37.5q0 -25 -13 -38.5t-36 -13.5
q-24 0 -37 13.5t-13 37.5q0 25 13 38.5zM593 724v-468q0 -127 -66.5 -198t-185.5 -71q-118 0 -184 71t-66 198v468h79v-467q0 -98 43.5 -148.5t128.5 -50.5t128.5 50.5t43.5 148.5v467h79z" />
    <glyph glyph-name="uni01DA" unicode="&#x1da;" horiz-adv-x="573" 
d="M243 727l-104 139v10h58l88 -96l87 96h55v-10l-104 -139h-80zM155 696.5q13 13.5 37 13.5q23 0 36 -13.5t13 -37.5q0 -25 -13 -38.5t-36 -13.5q-24 0 -37 13.5t-13 37.5q0 25 13 38.5zM337 696.5q13 13.5 37 13.5q23 0 36 -13.5t13 -37.5q0 -25 -13 -38.5t-36 -13.5
q-24 0 -37 13.5t-13 37.5q0 25 13 38.5zM480 535v-535h-71v65q-58 -78 -161 -78q-77 0 -120 45t-43 125v378h77v-372q0 -50 27.5 -76t80.5 -26q40 0 72.5 15t60.5 47v412h77z" />
    <glyph glyph-name="uni01DB" unicode="&#x1db;" horiz-adv-x="684" 
d="M224 1030v10h73l75 -127v-10h-52zM214 790.5q-13 13.5 -13 37.5q0 25 13 38.5t37 13.5q23 0 36 -13.5t13 -37.5q0 -25 -13 -38.5t-36 -13.5q-24 0 -37 13.5zM396 790.5q-13 13.5 -13 37.5q0 25 13 38.5t37 13.5q23 0 36 -13.5t13 -37.5q0 -25 -13 -38.5t-36 -13.5
q-24 0 -37 13.5zM157 58q-66 71 -66 198v468h79v-467q0 -98 43.5 -148.5t128.5 -50.5t128.5 50.5t43.5 148.5v467h79v-468q0 -127 -66.5 -198t-185.5 -71q-118 0 -184 71z" />
    <glyph glyph-name="uni01DC" unicode="&#x1dc;" horiz-adv-x="573" 
d="M261 733l-96 127v10h73l75 -127v-10h-52zM155 620.5q-13 13.5 -13 37.5q0 25 13 38.5t37 13.5q23 0 36 -13.5t13 -37.5q0 -25 -13 -38.5t-36 -13.5q-24 0 -37 13.5zM337 620.5q-13 13.5 -13 37.5q0 25 13 38.5t37 13.5q23 0 36 -13.5t13 -37.5q0 -25 -13 -38.5t-36 -13.5
q-24 0 -37 13.5zM480 535v-535h-71v65q-58 -78 -161 -78q-77 0 -120 45t-43 125v378h77v-372q0 -50 27.5 -76t80.5 -26q40 0 72.5 15t60.5 47v412h77z" />
    <glyph glyph-name="uni01DD" unicode="&#x1dd;" horiz-adv-x="539" 
d="M422 473q63 -74 63 -205q0 -133 -58 -207t-162 -74q-102 0 -158.5 68t-56.5 190q0 25 3 43h355q-5 92 -46.5 139.5t-119.5 47.5q-74 0 -138 -41l-29 61q31 25 76.5 38.5t95.5 13.5q112 0 175 -74zM364 99q35 43 42 126h-278q1 -79 37.5 -124t101.5 -45q62 0 97 43z" />
    <glyph glyph-name="uni01DE" unicode="&#x1de;" horiz-adv-x="666" 
d="M477 963h-288v60h288v-60zM198.5 811q-13.5 14 -13.5 39t13.5 39t37.5 14q25 0 38.5 -14t13.5 -38q0 -26 -13.5 -40t-38.5 -14q-24 0 -37.5 14zM468.5 889q13.5 -14 13.5 -38q0 -26 -13.5 -40t-38.5 -14q-24 0 -37.5 14t-13.5 39t13.5 39t37.5 14q25 0 38.5 -14zM483 195
h-301l-66 -195h-85l258 724h89l258 -724h-86zM459 265l-127 374l-127 -374h254z" />
    <glyph glyph-name="uni01DF" unicode="&#x1df;" horiz-adv-x="529" 
d="M396 788h-288v60h288v-60zM121.5 642q-13.5 14 -13.5 39t13.5 39t37.5 14q25 0 38.5 -14t13.5 -38q0 -26 -13.5 -40t-38.5 -14q-24 0 -37.5 14zM383.5 720q13.5 -14 13.5 -38q0 -26 -13.5 -40t-38.5 -14q-24 0 -37.5 14t-13.5 39t13.5 39t37.5 14q25 0 38.5 -14z
M390.5 504.5q52.5 -43.5 52.5 -126.5v-378h-71v66q-52 -77 -161 -77q-79 0 -123 42t-44 117q0 96 78.5 141.5t244.5 46.5v35q0 52 -32 78.5t-94 26.5q-63 0 -126 -29l-20 64q74 37 156 37q87 0 139.5 -43.5zM367 123v150q-127 -1 -186.5 -29.5t-59.5 -89.5q0 -47 27.5 -71
t80.5 -24q80 0 138 64z" />
    <glyph glyph-name="uni01E0" unicode="&#x1e0;" horiz-adv-x="666" 
d="M477 963h-288v60h288v-60zM293.5 894q14.5 15 39.5 15t39.5 -14.5t14.5 -40.5t-14.5 -41t-39.5 -15t-39.5 14.5t-14.5 40.5t14.5 41zM483 195h-301l-66 -195h-85l258 724h89l258 -724h-86zM459 265l-127 374l-127 -374h254z" />
    <glyph glyph-name="uni01E1" unicode="&#x1e1;" horiz-adv-x="529" 
d="M390.5 504.5q52.5 -43.5 52.5 -126.5v-378h-71v66q-52 -77 -161 -77q-79 0 -123 42t-44 117q0 96 78.5 141.5t244.5 46.5v35q0 52 -32 78.5t-94 26.5q-63 0 -126 -29l-20 64q74 37 156 37q87 0 139.5 -43.5zM367 123v150q-127 -1 -186.5 -29.5t-59.5 -89.5
q0 -47 27.5 -71t80.5 -24q80 0 138 64zM212.5 643.5q-14.5 14.5 -14.5 40.5t14.5 41t39.5 15t39.5 -14.5t14.5 -40.5t-14.5 -41t-39.5 -15t-39.5 14.5zM108 849h288v-60h-288v60z" />
    <glyph glyph-name="uni01E2" unicode="&#x1e2;" horiz-adv-x="901" 
d="M621 811h-288v60h288v-60zM856 71v-71h-417v187h-255l-99 -187h-87l391 724h81h374v-71h-328v-247h242v-72h-242v-263h340zM439 257v409l-218 -409h218z" />
    <glyph glyph-name="uni01E3" unicode="&#x1e3;" horiz-adv-x="828" 
d="M775 247h-344q4 -92 44.5 -139.5t115.5 -47.5q69 0 133 41l29 -61q-31 -25 -75 -38.5t-91 -13.5q-63 0 -111.5 25t-77.5 73q-41 -50 -88 -73.5t-104 -23.5q-76 0 -119 42t-43 117q0 92 76 136t237 45v42q0 52 -30.5 78.5t-89.5 26.5q-62 0 -122 -29l-20 64
q40 20 79.5 28.5t71.5 8.5q58 0 99.5 -22.5t61.5 -64.5q24 41 66 64t96 23q99 0 154 -68t55 -190q0 -26 -3 -43zM473 436q-34 -43 -41 -126h269q-1 79 -36.5 124t-97.5 45q-60 0 -94 -43zM303.5 79.5q36.5 20.5 69.5 63.5q-18 53 -18 123q-120 -1 -177 -28t-57 -84
q0 -47 26 -71t77 -24q43 0 79.5 20.5zM281 701h288v-60h-288v60z" />
    <glyph glyph-name="uni01E4" unicode="&#x1e4;" horiz-adv-x="672" 
d="M665 161h-73v-124q-37 -24 -91 -37t-114 -13q-101 0 -174 44.5t-111.5 129t-38.5 201.5t38.5 201.5t111.5 129t174 44.5q53 0 103 -12t85 -34l-24 -67q-85 41 -166 41q-118 0 -178.5 -77t-60.5 -226q0 -150 61 -227t180 -77q64 0 126 20v83h-133v66h133v83h-133v71h212
v-154h73v-66z" />
    <glyph glyph-name="uni01E5" unicode="&#x1e5;" horiz-adv-x="577" 
d="M555 -79h-81q-20 -68 -77 -104.5t-144 -36.5q-41 0 -80.5 8t-66.5 23l23 67q56 -28 122 -28q107 0 142 71h-357v54h371q1 7 1 22v95q-55 -73 -150 -73t-148.5 70.5t-53.5 197.5q0 123 56.5 192t156.5 69q44 0 81.5 -18t63.5 -51v56h71v-537q0 -16 -1 -23h71v-54z
M348.5 108q31.5 15 59.5 48v260q-26 30 -61.5 46t-74.5 16q-67 0 -101.5 -48t-34.5 -143q0 -96 36 -145t107 -49q38 0 69.5 15z" />
    <glyph glyph-name="Gcaron" unicode="&#x1e6;" horiz-adv-x="668" 
d="M316 781l-117 133v12h64l98 -92l97 92h61v-12l-117 -133h-86zM592 381v-344q-37 -24 -91 -37t-114 -13q-101 0 -174 44.5t-111.5 129t-38.5 201.5t38.5 201.5t111.5 129t174 44.5q53 0 103 -12t85 -34l-24 -67q-85 41 -166 41q-118 0 -178.5 -77t-60.5 -226
q0 -150 61 -227t180 -77q64 0 126 20v232h-133v71h212z" />
    <glyph glyph-name="gcaron" unicode="&#x1e7;" horiz-adv-x="577" 
d="M485 535v-537q0 -103 -61.5 -160.5t-170.5 -57.5q-41 0 -80.5 8t-66.5 23l23 68q58 -28 122 -28q77 0 117 37t40 110v93q-54 -74 -150 -74q-95 0 -148.5 71t-53.5 198q0 124 56 193t157 69q44 0 81.5 -18t63.5 -51v56h71zM348.5 106.5q31.5 15.5 59.5 48.5v261
q-26 30 -61.5 46t-74.5 16q-67 0 -101.5 -48.5t-34.5 -143.5q0 -96 36 -145.5t107 -49.5q38 0 69.5 15.5zM427 784v-10l-102 -159h-80l-102 159v10h58l85 -111l86 111h55z" />
    <glyph glyph-name="uni01E8" unicode="&#x1e8;" horiz-adv-x="618" 
d="M279 781l-117 133v12h64l98 -92l97 92h61v-12l-117 -133h-86zM269 332l-94 -112v-220h-79v724h79v-402l326 402h97l-277 -330l292 -394h-96z" />
    <glyph glyph-name="uni01E9" unicode="&#x1e9;" horiz-adv-x="537" 
d="M174 827h-86l-117 133v12h64l98 -92l97 92h61v-12zM245 251l-76 -85v-166h-77v770h77v-509l237 274h94l-202 -225l213 -310h-94z" />
    <glyph glyph-name="uni01EA" unicode="&#x1ea;" horiz-adv-x="712" 
d="M369 -114q0 -44 48 -44q32 0 66 18l22 -49q-20 -14 -47 -21.5t-55 -7.5q-48 0 -75.5 23.5t-27.5 66.5q0 33 17 62t48 53h-9q-142 0 -217.5 95.5t-75.5 279.5t75.5 279.5t217.5 95.5t218 -95.5t76 -279.5q0 -139 -44 -226t-136 -132q-101 -50 -101 -118zM199 135
q53 -77 157 -77t157.5 77.5t53.5 226.5t-53.5 226.5t-157.5 77.5t-157 -77t-53 -227t53 -227z" />
    <glyph glyph-name="uni01EB" unicode="&#x1eb;" horiz-adv-x="556" 
d="M298.5 -50q-25.5 -30 -25.5 -64q0 -44 47 -44q33 0 67 18l21 -49q-20 -14 -46.5 -21.5t-54.5 -7.5q-48 0 -75.5 23.5t-27.5 66.5q0 33 16.5 62.5t47.5 52.5q-103 3 -157.5 74.5t-54.5 205.5q0 138 57.5 209.5t164.5 71.5t164.5 -71.5t57.5 -209.5q0 -99 -30 -162.5
t-93 -95.5q-53 -29 -78.5 -59zM171.5 109.5q35.5 -53.5 105.5 -53.5t106.5 53.5t36.5 157.5t-36 158t-106 54t-106 -53.5t-36 -158.5q0 -104 35.5 -157.5z" />
    <glyph glyph-name="uni01EC" unicode="&#x1ec;" horiz-adv-x="712" 
d="M500 811h-288v60h288v-60zM369 -114q0 -44 48 -44q32 0 66 18l22 -49q-20 -14 -47 -21.5t-55 -7.5q-48 0 -75.5 23.5t-27.5 66.5q0 33 17 62t48 53h-9q-142 0 -217.5 95.5t-75.5 279.5t75.5 279.5t217.5 95.5t218 -95.5t76 -279.5q0 -139 -44 -226t-136 -132
q-101 -50 -101 -118zM199 135q53 -77 157 -77t157.5 77.5t53.5 226.5t-53.5 226.5t-157.5 77.5t-157 -77t-53 -227t53 -227z" />
    <glyph glyph-name="uni01ED" unicode="&#x1ed;" horiz-adv-x="556" 
d="M298.5 -50q-25.5 -30 -25.5 -64q0 -44 47 -44q33 0 67 18l21 -49q-20 -14 -46.5 -21.5t-54.5 -7.5q-48 0 -75.5 23.5t-27.5 66.5q0 33 16.5 62.5t47.5 52.5q-103 3 -157.5 74.5t-54.5 205.5q0 138 57.5 209.5t164.5 71.5t164.5 -71.5t57.5 -209.5q0 -99 -30 -162.5
t-93 -95.5q-53 -29 -78.5 -59zM171.5 109.5q35.5 -53.5 105.5 -53.5t106.5 53.5t36.5 157.5t-36 158t-106 54t-106 -53.5t-36 -158.5q0 -104 35.5 -157.5zM134 701h288v-60h-288v60z" />
    <glyph glyph-name="uni01EE" unicode="&#x1ee;" horiz-adv-x="567" 
d="M211 781l-117 133v12h64l98 -92l97 92h61v-12l-117 -133h-86zM447.5 370.5q64.5 -50.5 64.5 -150.5q0 -113 -74.5 -172.5t-198.5 -59.5q-60 0 -119 13.5t-104 39.5l33 65q42 -20 92 -32t97 -12q93 0 142 39.5t49 118.5q0 77 -57.5 111t-164.5 34h-41v66l207 222h-321v71
h417v-72l-207 -223q121 -8 185.5 -58.5z" />
    <glyph glyph-name="uni01EF" unicode="&#x1ef;" horiz-adv-x="503" 
d="M394 156.5q63 -50.5 63 -149.5q0 -112 -68 -169.5t-177 -57.5q-50 0 -99 9.5t-85 30.5l28 62q39 -18 74 -25.5t76 -7.5q81 0 126 40.5t45 115.5q0 78 -53.5 112.5t-143.5 34.5h-44v64l194 253h-285v66h375v-67l-199 -254q110 -7 173 -57.5zM370 784v-10l-102 -159h-80
l-102 159v10h58l85 -111l86 111h55z" />
    <glyph glyph-name="uni01F0" unicode="&#x1f0;" horiz-adv-x="266" 
d="M-43 -155q54 19 83.5 41t41.5 55t12 87v507h77v-507q0 -72 -16.5 -117t-57 -75.5t-114.5 -55.5zM275 784v-10l-102 -159h-80l-102 159v10h58l85 -111l86 111h55z" />
    <glyph glyph-name="uni01F1" unicode="&#x1f1;" horiz-adv-x="1193" 
d="M541 632q86 -92 86 -270t-87 -270t-251 -92h-193v724h197q162 0 248 -92zM480.5 145q63.5 74 63.5 217t-64.5 217t-190.5 74h-114v-582h118q124 0 187.5 74zM1146 70v-70h-459v71l366 583h-354v70h443v-70l-366 -584h370z" />
    <glyph glyph-name="uni01F2" unicode="&#x1f2;" horiz-adv-x="1115" 
d="M541 632q86 -92 86 -270t-87 -270t-251 -92h-193v724h197q162 0 248 -92zM480.5 145q63.5 74 63.5 217t-64.5 217t-190.5 74h-114v-582h118q124 0 187.5 74zM1072 65v-65h-377v65l284 405h-276v65h365v-65l-285 -405h289z" />
    <glyph glyph-name="uni01F3" unicode="&#x1f3;" horiz-adv-x="1011" 
d="M482 770v-770h-71v69q-27 -40 -66.5 -61t-88.5 -21q-95 0 -147.5 75t-52.5 209q0 131 55.5 204t155.5 73q42 0 77.5 -16t60.5 -45v283h77zM344.5 76.5q31.5 15.5 60.5 47.5v293q-25 29 -60.5 45t-74.5 16q-67 0 -100.5 -52.5t-33.5 -154.5q0 -104 35 -157t105 -53
q37 0 68.5 15.5zM967 65v-65h-377v65l284 405h-276v65h365v-65l-285 -405h289z" />
    <glyph glyph-name="uni01F4" unicode="&#x1f4;" horiz-adv-x="668" 
d="M365 781h-70v12l153 133h99v-12zM592 381v-344q-37 -24 -91 -37t-114 -13q-101 0 -174 44.5t-111.5 129t-38.5 201.5t38.5 201.5t111.5 129t174 44.5q53 0 103 -12t85 -34l-24 -67q-85 41 -166 41q-118 0 -178.5 -77t-60.5 -226q0 -150 61 -227t180 -77q64 0 126 20v232
h-133v71h212z" />
    <glyph glyph-name="uni01F5" unicode="&#x1f5;" horiz-adv-x="577" 
d="M485 535v-537q0 -103 -61.5 -160.5t-170.5 -57.5q-41 0 -80.5 8t-66.5 23l23 68q58 -28 122 -28q77 0 117 37t40 110v93q-54 -74 -150 -74q-95 0 -148.5 71t-53.5 198q0 124 56 193t157 69q44 0 81.5 -18t63.5 -51v56h71zM348.5 106.5q31.5 15.5 59.5 48.5v261
q-26 30 -61.5 46t-74.5 16q-67 0 -101.5 -48.5t-34.5 -143.5q0 -96 36 -145.5t107 -49.5q38 0 69.5 15.5zM233 625l102 159h90v-10l-132 -159h-60v10z" />
    <glyph glyph-name="uni01F6" unicode="&#x1f6;" horiz-adv-x="1017" 
d="M925 278q0 -143 -54 -217t-158 -74q-88 0 -138 50.5t-50 140.5v154h-350v-332h-79v724h79v-321h350v321h79v-527q0 -70 28 -105.5t83 -35.5q67 0 98.5 54t31.5 168q0 82 -7.5 140t-22.5 117h80q30 -113 30 -257z" />
    <glyph glyph-name="uni01F7" unicode="&#x1f7;" horiz-adv-x="575" 
d="M498 679.5q53 -57.5 53 -156.5q0 -72 -25 -129.5t-77 -109.5t-140 -112l-134 -91v-288h-79v931h77v-70q36 38 83.5 60.5t97.5 22.5q91 0 144 -57.5zM398.5 336q39.5 43 54.5 84t15 90q0 153 -130 153q-42 0 -85 -20.5t-78 -55.5v-420l112 76q72 50 111.5 93z" />
    <glyph glyph-name="uni01F8" unicode="&#x1f8;" horiz-adv-x="722" 
d="M354 781l-173 133v12h100l143 -133v-12h-70zM626 724v-724h-74l-379 590v-590h-77v724h74l379 -588v588h77z" />
    <glyph glyph-name="uni01F9" unicode="&#x1f9;" horiz-adv-x="581" 
d="M449.5 503q43.5 -45 43.5 -125v-378h-77v372q0 50 -28 76t-82 26q-38 0 -71 -12.5t-66 -39.5v-422h-77v535h72v-58q66 71 164 71q78 0 121.5 -45zM165 774v10h89l95 -159v-10h-60z" />
    <glyph glyph-name="Aringacute" unicode="&#x1fa;" horiz-adv-x="666" 
d="M348 909h-70v12l142 125h100v-12zM483 195h-301l-66 -195h-85l239 670q-55 26 -55 95q0 50 31 78.5t86 28.5t86.5 -28.5t31.5 -78.5q0 -68 -54 -94l240 -671h-86zM287.5 809.5q-15.5 -15.5 -15.5 -44.5q0 -30 15.5 -45.5t44.5 -15.5q61 0 61 61q0 29 -15.5 44.5
t-45.5 15.5q-29 0 -44.5 -15.5zM459 265l-127 374l-127 -374h254z" />
    <glyph glyph-name="aringacute" unicode="&#x1fb;" horiz-adv-x="529" 
d="M276 855h-51v10l81 127h72v-10zM166 632q-31 28 -31 79q0 50 31 78.5t86 28.5t86 -28.5t31 -78.5q0 -51 -31 -79t-86 -28t-86 28zM192 711q0 -62 60 -62t60 62q0 61 -60 61t-60 -61zM390.5 504.5q52.5 -43.5 52.5 -126.5v-378h-71v66q-52 -77 -161 -77q-79 0 -123 42
t-44 117q0 96 78.5 141.5t244.5 46.5v35q0 52 -32 78.5t-94 26.5q-63 0 -126 -29l-20 64q74 37 156 37q87 0 139.5 -43.5zM367 123v150q-127 -1 -186.5 -29.5t-59.5 -89.5q0 -47 27.5 -71t80.5 -24q80 0 138 64z" />
    <glyph glyph-name="AEacute" unicode="&#x1fc;" horiz-adv-x="901" 
d="M483 781h-70v12l153 133h99v-12zM856 71v-71h-417v187h-255l-99 -187h-87l391 724h81h374v-71h-328v-247h242v-72h-242v-263h340zM439 257v409l-218 -409h218z" />
    <glyph glyph-name="aeacute" unicode="&#x1fd;" horiz-adv-x="828" 
d="M775 247h-344q4 -92 44.5 -139.5t115.5 -47.5q69 0 133 41l29 -61q-31 -25 -75 -38.5t-91 -13.5q-63 0 -111.5 25t-77.5 73q-41 -50 -88 -73.5t-104 -23.5q-76 0 -119 42t-43 117q0 92 76 136t237 45v42q0 52 -30.5 78.5t-89.5 26.5q-62 0 -122 -29l-20 64
q40 20 79.5 28.5t71.5 8.5q58 0 99.5 -22.5t61.5 -64.5q24 41 66 64t96 23q99 0 154 -68t55 -190q0 -26 -3 -43zM473 436q-34 -43 -41 -126h269q-1 79 -36.5 124t-97.5 45q-60 0 -94 -43zM303.5 79.5q36.5 20.5 69.5 63.5q-18 53 -18 123q-120 -1 -177 -28t-57 -84
q0 -47 26 -71t77 -24q43 0 79.5 20.5zM373 625l102 159h90v-10l-132 -159h-60v10z" />
    <glyph glyph-name="Oslashacute" unicode="&#x1fe;" horiz-adv-x="712" 
d="M362 781h-70v12l153 133h99v-12zM680 722l-87 -108q57 -96 57 -252q0 -184 -76 -279.5t-218 -95.5q-124 0 -198 74l-54 -71h-71v12l86 108q-56 94 -56 252q0 184 75.5 279.5t217.5 95.5q124 0 198 -74l54 71h72v-12zM197.5 590.5q-53.5 -77.5 -53.5 -228.5
q0 -115 27 -186l338 429q-52 63 -153 63q-105 0 -158.5 -77.5zM515 133.5q54 77.5 54 228.5q0 117 -28 186l-337 -429q51 -63 152 -63q105 0 159 77.5z" />
    <glyph glyph-name="oslashacute" unicode="&#x1ff;" horiz-adv-x="556" 
d="M530 535l-70 -86q40 -71 40 -182q0 -137 -57.5 -208.5t-164.5 -71.5q-90 0 -146 53l-38 -50h-68v10l70 86q-40 69 -40 181q0 138 57.5 209.5t164.5 71.5q90 0 145 -53l39 50h68v-10zM170 427q-37 -54 -37 -160q0 -71 15 -117l231 290q-34 41 -101 41q-71 0 -108 -54z
M385.5 108q36.5 54 36.5 159q0 75 -14 118l-232 -290q35 -41 101 -41q72 0 108.5 54zM228 625l102 159h90v-10l-132 -159h-60v10z" />
    <glyph glyph-name="uni0200" unicode="&#x200;" horiz-adv-x="666" 
d="M246 781l-120 133v12h86l91 -133v-12h-57zM403 781l-121 133v12h87l91 -133v-12h-57zM483 195h-301l-66 -195h-85l258 724h89l258 -724h-86zM459 265l-127 374l-127 -374h254z" />
    <glyph glyph-name="uni0201" unicode="&#x201;" horiz-adv-x="529" 
d="M390.5 504.5q52.5 -43.5 52.5 -126.5v-378h-71v66q-52 -77 -161 -77q-79 0 -123 42t-44 117q0 96 78.5 141.5t244.5 46.5v35q0 52 -32 78.5t-94 26.5q-63 0 -126 -29l-20 64q74 37 156 37q87 0 139.5 -43.5zM367 123v150q-127 -1 -186.5 -29.5t-59.5 -89.5
q0 -47 27.5 -71t80.5 -24q80 0 138 64zM172 615l-83 159v10h80l54 -159v-10h-51zM314 615l-83 159v10h81l53 -159v-10h-51z" />
    <glyph glyph-name="uni0202" unicode="&#x202;" horiz-adv-x="666" 
d="M241 791h-50q3 70 40.5 108.5t101.5 38.5t101.5 -38.5t40.5 -108.5h-53q-12 83 -90 83q-79 0 -91 -83zM483 195h-301l-66 -195h-85l258 724h89l258 -724h-86zM459 265l-127 374l-127 -374h254z" />
    <glyph glyph-name="uni0203" unicode="&#x203;" horiz-adv-x="529" 
d="M390.5 504.5q52.5 -43.5 52.5 -126.5v-378h-71v66q-52 -77 -161 -77q-79 0 -123 42t-44 117q0 96 78.5 141.5t244.5 46.5v35q0 52 -32 78.5t-94 26.5q-63 0 -126 -29l-20 64q74 37 156 37q87 0 139.5 -43.5zM367 123v150q-127 -1 -186.5 -29.5t-59.5 -89.5
q0 -47 27.5 -71t80.5 -24q80 0 138 64zM353.5 729.5q37.5 -38.5 40.5 -108.5h-53q-12 83 -90 83q-79 0 -91 -83h-50q3 70 40.5 108.5t101.5 38.5t101.5 -38.5z" />
    <glyph glyph-name="uni0204" unicode="&#x204;" horiz-adv-x="574" 
d="M225 781l-120 133v12h86l91 -133v-12h-57zM382 781l-121 133v12h87l91 -133v-12h-57zM530 71v-71h-434v724h421v-71h-342v-247h257v-72h-257v-263h355z" />
    <glyph glyph-name="uni0205" unicode="&#x205;" horiz-adv-x="539" 
d="M486 247h-354q5 -92 46.5 -139.5t118.5 -47.5q74 0 138 41l29 -61q-31 -25 -76.5 -38.5t-95.5 -13.5q-112 0 -175 74t-63 205q0 133 58 207t162 74q102 0 158.5 -68t56.5 -190q0 -25 -3 -43zM175 436q-35 -43 -42 -126h278q-1 80 -37.5 124.5t-101.5 44.5q-62 0 -97 -43z
M194 615l-83 159v10h80l54 -159v-10h-51zM336 615l-83 159v10h81l53 -159v-10h-51z" />
    <glyph glyph-name="uni0206" unicode="&#x206;" horiz-adv-x="574" 
d="M220 791h-50q3 70 40.5 108.5t101.5 38.5t101.5 -38.5t40.5 -108.5h-53q-12 83 -90 83q-79 0 -91 -83zM530 71v-71h-434v724h421v-71h-342v-247h257v-72h-257v-263h355z" />
    <glyph glyph-name="uni0207" unicode="&#x207;" horiz-adv-x="539" 
d="M486 247h-354q5 -92 46.5 -139.5t118.5 -47.5q74 0 138 41l29 -61q-31 -25 -76.5 -38.5t-95.5 -13.5q-112 0 -175 74t-63 205q0 133 58 207t162 74q102 0 158.5 -68t56.5 -190q0 -25 -3 -43zM175 436q-35 -43 -42 -126h278q-1 80 -37.5 124.5t-101.5 44.5q-62 0 -97 -43z
M375.5 729.5q37.5 -38.5 40.5 -108.5h-53q-12 83 -90 83q-79 0 -91 -83h-50q3 70 40.5 108.5t101.5 38.5t101.5 -38.5z" />
    <glyph glyph-name="uni0208" unicode="&#x208;" horiz-adv-x="276" 
d="M51 781l-120 133v12h86l91 -133v-12h-57zM208 781l-121 133v12h87l91 -133v-12h-57zM98 724h79v-724h-79v724z" />
    <glyph glyph-name="uni0209" unicode="&#x209;" horiz-adv-x="266" 
d="M94 535h77v-535h-77v535zM53 615l-83 159v10h80l54 -159v-10h-51zM195 615l-83 159v10h81l53 -159v-10h-51z" />
    <glyph glyph-name="uni020A" unicode="&#x20a;" horiz-adv-x="276" 
d="M239.5 899.5q37.5 -38.5 40.5 -108.5h-53q-12 83 -90 83q-79 0 -91 -83h-50q3 70 40.5 108.5t101.5 38.5t101.5 -38.5zM98 724h79v-724h-79v724z" />
    <glyph glyph-name="uni020B" unicode="&#x20b;" horiz-adv-x="266" 
d="M94 535h77v-535h-77v535zM234.5 729.5q37.5 -38.5 40.5 -108.5h-53q-12 83 -90 83q-79 0 -91 -83h-50q3 70 40.5 108.5t101.5 38.5t101.5 -38.5z" />
    <glyph glyph-name="uni020C" unicode="&#x20c;" horiz-adv-x="712" 
d="M269 781l-120 133v12h86l91 -133v-12h-57zM426 781l-121 133v12h87l91 -133v-12h-57zM138.5 82.5q-75.5 95.5 -75.5 279.5t75.5 279.5t217.5 95.5t218 -95.5t76 -279.5t-76 -279.5t-218 -95.5t-217.5 95.5zM513.5 135.5q53.5 77.5 53.5 226.5t-53.5 226.5t-157.5 77.5
t-157 -77t-53 -227t53 -227t157 -77t157.5 77.5z" />
    <glyph glyph-name="uni020D" unicode="&#x20d;" horiz-adv-x="556" 
d="M113 58.5q-57 71.5 -57 208.5q0 138 57.5 209.5t164.5 71.5t164.5 -71.5t57.5 -209.5q0 -137 -58 -208.5t-165 -71.5t-164 71.5zM383.5 109.5q36.5 53.5 36.5 157.5t-36 158t-106 54t-106 -53.5t-36 -158.5q0 -104 35.5 -157.5t105.5 -53.5t106.5 53.5zM198 615l-83 159
v10h80l54 -159v-10h-51zM340 615l-83 159v10h81l53 -159v-10h-51z" />
    <glyph glyph-name="uni020E" unicode="&#x20e;" horiz-adv-x="712" 
d="M457.5 899.5q37.5 -38.5 40.5 -108.5h-53q-12 83 -90 83q-79 0 -91 -83h-50q3 70 40.5 108.5t101.5 38.5t101.5 -38.5zM138.5 82.5q-75.5 95.5 -75.5 279.5t75.5 279.5t217.5 95.5t218 -95.5t76 -279.5t-76 -279.5t-218 -95.5t-217.5 95.5zM513.5 135.5
q53.5 77.5 53.5 226.5t-53.5 226.5t-157.5 77.5t-157 -77t-53 -227t53 -227t157 -77t157.5 77.5z" />
    <glyph glyph-name="uni020F" unicode="&#x20f;" horiz-adv-x="556" 
d="M113 58.5q-57 71.5 -57 208.5q0 138 57.5 209.5t164.5 71.5t164.5 -71.5t57.5 -209.5q0 -137 -58 -208.5t-165 -71.5t-164 71.5zM383.5 109.5q36.5 53.5 36.5 157.5t-36 158t-106 54t-106 -53.5t-36 -158.5q0 -104 35.5 -157.5t105.5 -53.5t106.5 53.5zM379.5 729.5
q37.5 -38.5 40.5 -108.5h-53q-12 83 -90 83q-79 0 -91 -83h-50q3 70 40.5 108.5t101.5 38.5t101.5 -38.5z" />
    <glyph glyph-name="uni0210" unicode="&#x210;" horiz-adv-x="631" 
d="M229 781l-120 133v12h86l91 -133v-12h-57zM386 781l-121 133v12h87l91 -133v-12h-57zM318 279h-143v-279h-79v724h79h161q105 0 164.5 -58.5t59.5 -163.5q0 -86 -40.5 -142t-115.5 -73l190 -287h-97zM175 350h161q141 0 141 152q0 74 -37 112.5t-108 38.5h-157v-303z" />
    <glyph glyph-name="uni0211" unicode="&#x211;" horiz-adv-x="399" 
d="M376 533l-18 -75q-40 10 -70 10q-38 0 -67 -16t-52 -51v-401h-77v535h72v-75q57 86 145 86q35 0 67 -13zM151 615l-83 159v10h80l54 -159v-10h-51zM293 615l-83 159v10h81l53 -159v-10h-51z" />
    <glyph glyph-name="uni0212" unicode="&#x212;" horiz-adv-x="631" 
d="M224 791h-50q3 70 40.5 108.5t101.5 38.5t101.5 -38.5t40.5 -108.5h-53q-12 83 -90 83q-79 0 -91 -83zM318 279h-143v-279h-79v724h79h161q105 0 164.5 -58.5t59.5 -163.5q0 -86 -40.5 -142t-115.5 -73l190 -287h-97zM175 350h161q141 0 141 152q0 74 -37 112.5
t-108 38.5h-157v-303z" />
    <glyph glyph-name="uni0213" unicode="&#x213;" horiz-adv-x="399" 
d="M376 533l-18 -75q-40 10 -70 10q-38 0 -67 -16t-52 -51v-401h-77v535h72v-75q57 86 145 86q35 0 67 -13zM332.5 729.5q37.5 -38.5 40.5 -108.5h-53q-12 83 -90 83q-79 0 -91 -83h-50q3 70 40.5 108.5t101.5 38.5t101.5 -38.5z" />
    <glyph glyph-name="uni0214" unicode="&#x214;" horiz-adv-x="684" 
d="M255 781l-120 133v12h86l91 -133v-12h-57zM412 781l-121 133v12h87l91 -133v-12h-57zM157 58q-66 71 -66 198v468h79v-467q0 -98 43.5 -148.5t128.5 -50.5t128.5 50.5t43.5 148.5v467h79v-468q0 -127 -66.5 -198t-185.5 -71q-118 0 -184 71z" />
    <glyph glyph-name="uni0215" unicode="&#x215;" horiz-adv-x="573" 
d="M480 535v-535h-71v65q-58 -78 -161 -78q-77 0 -120 45t-43 125v378h77v-372q0 -50 27.5 -76t80.5 -26q40 0 72.5 15t60.5 47v412h77zM203 615l-83 159v10h80l54 -159v-10h-51zM345 615l-83 159v10h81l53 -159v-10h-51z" />
    <glyph glyph-name="uni0216" unicode="&#x216;" horiz-adv-x="684" 
d="M443.5 899.5q37.5 -38.5 40.5 -108.5h-53q-12 83 -90 83q-79 0 -91 -83h-50q3 70 40.5 108.5t101.5 38.5t101.5 -38.5zM157 58q-66 71 -66 198v468h79v-467q0 -98 43.5 -148.5t128.5 -50.5t128.5 50.5t43.5 148.5v467h79v-468q0 -127 -66.5 -198t-185.5 -71
q-118 0 -184 71z" />
    <glyph glyph-name="uni0217" unicode="&#x217;" horiz-adv-x="573" 
d="M480 535v-535h-71v65q-58 -78 -161 -78q-77 0 -120 45t-43 125v378h77v-372q0 -50 27.5 -76t80.5 -26q40 0 72.5 15t60.5 47v412h77zM384.5 729.5q37.5 -38.5 40.5 -108.5h-53q-12 83 -90 83q-79 0 -91 -83h-50q3 70 40.5 108.5t101.5 38.5t101.5 -38.5z" />
    <glyph glyph-name="Scommaaccent" unicode="&#x218;" horiz-adv-x="560" 
d="M148.5 3q-58.5 15 -103.5 43l28 68q93 -54 194 -54q76 0 118 33.5t42 92.5q0 49 -27.5 80t-86.5 47l-82 23q-93 25 -136 73.5t-43 125.5q0 92 61.5 146.5t166.5 54.5q52 0 107.5 -11.5t100.5 -32.5l-28 -69q-102 41 -182 41q-69 0 -107.5 -31t-38.5 -87q0 -49 28 -80
t87 -47l82 -23q92 -26 135 -74t43 -125q0 -96 -65 -152.5t-175 -56.5q-60 0 -118.5 15zM193 -238q26 29 36.5 55.5t10.5 66.5q0 16 -2 34h76q2 -18 2 -33q0 -45 -21.5 -81.5t-70.5 -74.5z" />
    <glyph glyph-name="scommaaccent" unicode="&#x219;" horiz-adv-x="464" 
d="M123 0.5q-47 12.5 -83 35.5l28 65q72 -44 152 -44q59 0 89 22t30 64q0 33 -18.5 52.5t-59.5 29.5l-71 17q-73 17 -108 53t-35 95q0 74 49 115.5t137 41.5q45 0 88.5 -10.5t77.5 -29.5l-30 -65q-72 36 -138 36q-53 0 -80 -20.5t-27 -60.5q0 -31 19 -50t59 -29l71 -17
q73 -17 107.5 -54t34.5 -98q0 -76 -51.5 -118.5t-143.5 -42.5q-50 0 -97 12.5zM145 -238q26 29 36.5 55.5t10.5 66.5q0 16 -2 34h76q2 -18 2 -33q0 -45 -21.5 -81.5t-70.5 -74.5z" />
    <glyph glyph-name="uni021A" unicode="&#x21a;" horiz-adv-x="526" 
d="M496 652h-193v-652h-79v652h-193v72h272h193v-72zM180 -238q26 29 36.5 55.5t10.5 66.5q0 16 -2 34h76q2 -18 2 -33q0 -45 -21.5 -81.5t-70.5 -74.5z" />
    <glyph glyph-name="uni021B" unicode="&#x21b;" horiz-adv-x="384" 
d="M154 37.5q-42 44.5 -42 132.5v300h-92v65h93v159h76v-159h161v-65h-161v-289q0 -61 24.5 -90t75.5 -29q27 0 55 9l13 -66q-36 -12 -80 -12q-81 0 -123 44.5zM141 -238q26 29 36.5 55.5t10.5 66.5q0 16 -2 34h76q2 -18 2 -33q0 -45 -21.5 -81.5t-70.5 -74.5z" />
    <glyph glyph-name="uni021C" unicode="&#x21c;" horiz-adv-x="497" 
d="M411.5 307.5q37.5 -53.5 37.5 -121.5q0 -135 -111 -201.5t-312 -96.5l-12 73q111 17 187 42t120.5 69t44.5 114q0 60 -32 101t-87 64q-58 -31 -139 -60l-23 64q99 39 151 71.5t70.5 62.5t18.5 68q0 53 -35.5 80.5t-89.5 27.5q-46 0 -79 -10t-77 -30l-28 65q87 47 191 47
q89 0 144.5 -44t55.5 -127q0 -53 -22 -95.5t-72 -79.5q61 -30 98.5 -83.5z" />
    <glyph glyph-name="uni021D" unicode="&#x21d;" horiz-adv-x="458" 
d="M378 158.5q33 -47.5 33 -108.5q0 -120 -98.5 -180.5t-275.5 -87.5l-14 71q149 23 228.5 67t79.5 131q0 103 -96 147q-45 -25 -126 -56l-21 61q89 34 134 63.5t59.5 56.5t14.5 63q0 48 -30 70.5t-81 22.5q-35 0 -65.5 -9t-67.5 -27l-24 64q72 41 161 41q82 0 134 -40.5
t52 -115.5q0 -49 -20 -87.5t-66 -72.5q56 -26 89 -73.5z" />
    <glyph glyph-name="uni021E" unicode="&#x21e;" horiz-adv-x="700" 
d="M307 781l-117 133v12h64l98 -92l97 92h61v-12l-117 -133h-86zM604 724v-724h-79v332h-350v-332h-79v724h79v-321h350v321h79z" />
    <glyph glyph-name="uni021F" unicode="&#x21f;" horiz-adv-x="583" 
d="M174 827h-86l-117 133v12h64l98 -92l97 92h61v-12zM451.5 503q43.5 -45 43.5 -125v-378h-77v372q0 102 -111 102q-39 0 -72 -12.5t-66 -39.5v-422h-77v770h77v-287q67 65 160 65q79 0 122.5 -45z" />
    <glyph glyph-name="uni0220" unicode="&#x220;" horiz-adv-x="681" 
d="M534 677.5q56 -59.5 56 -162.5v-645h-79v650q0 68 -39 105t-110 37q-53 0 -98.5 -17.5t-88.5 -53.5v-591h-79v724h77v-71q83 84 206 84q99 0 155 -59.5z" />
    <glyph glyph-name="uni0221" unicode="&#x221;" horiz-adv-x="575" 
d="M622 -22q32 -30 32 -83q0 -54 -32 -84t-90 -30q-55 0 -87.5 27.5t-36.5 77.5l-21 -21l-64 -68l-43 43l67 70q26 28 59 53v99q-54 -75 -150 -75q-95 0 -147.5 75t-52.5 209q0 131 55.5 204t155.5 73q42 0 77.5 -16t60.5 -45v283h77v-768q26 6 50 6q58 0 90 -30z
M344.5 76.5q31.5 15.5 60.5 47.5v293q-25 29 -60.5 45t-74.5 16q-67 0 -100.5 -52.5t-33.5 -154.5q0 -104 35 -157t105 -53q37 0 68.5 15.5zM569.5 -141q12.5 13 12.5 38q0 52 -54 52q-25 0 -46 -10v-34q0 -59 51 -59q24 0 36.5 13z" />
    <glyph glyph-name="uni0222" unicode="&#x222;" horiz-adv-x="645" 
d="M557.5 304.5q33.5 -46.5 33.5 -109.5q0 -98 -71 -153t-198 -55t-197.5 55t-70.5 153q0 63 33.5 109.5t94.5 70.5q-53 23 -82.5 66.5t-29.5 101.5q0 73 44 124t123 70l25 -63q-58 -21 -84 -52.5t-26 -77.5q0 -60 41.5 -97.5t128.5 -37.5t129 38t42 97q0 46 -26.5 77.5
t-84.5 52.5l26 63q79 -19 123 -70t44 -124q0 -58 -29.5 -101.5t-82.5 -66.5q61 -24 94.5 -70.5zM462 96.5q46 38.5 46 101.5t-46.5 101.5t-139.5 38.5t-139 -38.5t-46 -101.5t46 -101.5t139 -38.5q94 0 140 38.5z" />
    <glyph glyph-name="uni0223" unicode="&#x223;" horiz-adv-x="591" 
d="M503 323q32 -50 32 -117q0 -103 -63.5 -161t-176.5 -58t-176 57.5t-63 161.5q0 67 32 117t91 75q-50 25 -78 72t-28 109q0 67 34 119t94 78l37 -59q-42 -20 -63.5 -55.5t-21.5 -82.5q0 -72 36.5 -109.5t105.5 -37.5t106 37.5t37 109.5q0 47 -21.5 82.5t-63.5 55.5l37 59
q60 -26 94 -78t34 -119q0 -62 -28 -109t-78 -72q59 -25 91 -75zM414.5 95.5q40.5 39.5 40.5 115.5q0 75 -40.5 113t-119.5 38t-119 -38t-40 -113q0 -77 40 -116t119 -39t119.5 39.5z" />
    <glyph glyph-name="uni0224" unicode="&#x224;" horiz-adv-x="551" 
d="M483 31.5q40 -38.5 40 -108.5q0 -22 -3 -38h-74q3 24 3 39q0 76 -78 76h-12h-314v71l366 583h-354v70h443v-70l-366 -584h238q71 0 111 -38.5z" />
    <glyph glyph-name="uni0225" unicode="&#x225;" horiz-adv-x="460" 
d="M412 23.5q37 -38.5 37 -105.5q0 -22 -3 -38h-74q3 24 3 39q0 81 -78 81h-254v65l284 405h-276v65h365v-65l-285 -405h177q67 -3 104 -41.5z" />
    <glyph glyph-name="uni0226" unicode="&#x226;" horiz-adv-x="666" 
d="M293.5 812.5q-14.5 14.5 -14.5 40.5t14.5 41t39.5 15t39.5 -14.5t14.5 -40.5t-14.5 -41t-39.5 -15t-39.5 14.5zM483 195h-301l-66 -195h-85l258 724h89l258 -724h-86zM459 265l-127 374l-127 -374h254z" />
    <glyph glyph-name="uni0227" unicode="&#x227;" horiz-adv-x="529" 
d="M390.5 504.5q52.5 -43.5 52.5 -126.5v-378h-71v66q-52 -77 -161 -77q-79 0 -123 42t-44 117q0 96 78.5 141.5t244.5 46.5v35q0 52 -32 78.5t-94 26.5q-63 0 -126 -29l-20 64q74 37 156 37q87 0 139.5 -43.5zM367 123v150q-127 -1 -186.5 -29.5t-59.5 -89.5
q0 -47 27.5 -71t80.5 -24q80 0 138 64zM212.5 643.5q-14.5 14.5 -14.5 40.5t14.5 41t39.5 15t39.5 -14.5t14.5 -40.5t-14.5 -41t-39.5 -15t-39.5 14.5z" />
    <glyph glyph-name="uni0228" unicode="&#x228;" horiz-adv-x="574" 
d="M344 0l-41 -61q14 2 20 2q49 0 76.5 -21.5t27.5 -59.5q0 -42 -31 -65t-86 -23q-56 0 -100 23l16 46q48 -19 83 -19q53 0 53 38t-49 38q-22 0 -44 -8l-21 24l37 86h-189v724h421v-71h-342v-247h257v-72h-257v-263h355v-71h-186z" />
    <glyph glyph-name="uni0229" unicode="&#x229;" horiz-adv-x="539" 
d="M486 247h-354q5 -92 46.5 -139.5t118.5 -47.5q74 0 138 41l29 -61q-31 -24 -75 -37.5t-92 -14.5l-33 -49q14 2 20 2q49 0 76.5 -21.5t27.5 -59.5q0 -42 -31 -65t-86 -23q-56 0 -100 23l16 46q48 -19 83 -19q53 0 53 38t-49 38q-22 0 -44 -8l-21 24l33 78
q-89 16 -138.5 88t-49.5 187q0 133 58 207t162 74q102 0 158.5 -68t56.5 -190q0 -25 -3 -43zM175 436q-35 -43 -42 -126h278q-1 80 -37.5 124.5t-101.5 44.5q-62 0 -97 -43z" />
    <glyph glyph-name="uni022A" unicode="&#x22a;" horiz-adv-x="712" 
d="M212 1023h288v-60h-288v60zM221.5 811q-13.5 14 -13.5 39t13.5 39t37.5 14q25 0 38.5 -14t13.5 -38q0 -26 -13.5 -40t-38.5 -14q-24 0 -37.5 14zM415.5 811q-13.5 14 -13.5 39t13.5 39t37.5 14q25 0 38.5 -14t13.5 -38q0 -26 -13.5 -40t-38.5 -14q-24 0 -37.5 14z
M138.5 82.5q-75.5 95.5 -75.5 279.5t75.5 279.5t217.5 95.5t218 -95.5t76 -279.5t-76 -279.5t-218 -95.5t-217.5 95.5zM513.5 135.5q53.5 77.5 53.5 226.5t-53.5 226.5t-157.5 77.5t-157 -77t-53 -227t53 -227t157 -77t157.5 77.5z" />
    <glyph glyph-name="uni022B" unicode="&#x22b;" horiz-adv-x="556" 
d="M134 848h288v-60h-288v60zM147.5 642q-13.5 14 -13.5 39t13.5 39t37.5 14q25 0 38.5 -14t13.5 -38q0 -26 -13.5 -40t-38.5 -14q-24 0 -37.5 14zM333.5 642q-13.5 14 -13.5 39t13.5 39t37.5 14q25 0 38.5 -14t13.5 -38q0 -26 -13.5 -40t-38.5 -14q-24 0 -37.5 14z
M113 58.5q-57 71.5 -57 208.5q0 138 57.5 209.5t164.5 71.5t164.5 -71.5t57.5 -209.5q0 -137 -58 -208.5t-165 -71.5t-164 71.5zM383.5 109.5q36.5 53.5 36.5 157.5t-36 158t-106 54t-106 -53.5t-36 -158.5q0 -104 35.5 -157.5t105.5 -53.5t106.5 53.5z" />
    <glyph glyph-name="uni022C" unicode="&#x22c;" horiz-adv-x="712" 
d="M212 1026h288v-60h-288v60zM373.5 813.5q-15.5 8.5 -33.5 24.5q-14 12 -23 17.5t-22 5.5q-36 0 -41 -54h-46q0 52 24 80.5t66 28.5q25 0 40.5 -8.5t33.5 -24.5q14 -12 23 -17.5t22 -5.5q36 0 41 54h46q0 -52 -24 -80.5t-66 -28.5q-25 0 -40.5 8.5zM138.5 82.5
q-75.5 95.5 -75.5 279.5t75.5 279.5t217.5 95.5t218 -95.5t76 -279.5t-76 -279.5t-218 -95.5t-217.5 95.5zM513.5 135.5q53.5 77.5 53.5 226.5t-53.5 226.5t-157.5 77.5t-157 -77t-53 -227t53 -227t157 -77t157.5 77.5z" />
    <glyph glyph-name="uni022D" unicode="&#x22d;" horiz-adv-x="556" 
d="M113 58.5q-57 71.5 -57 208.5q0 138 57.5 209.5t164.5 71.5t164.5 -71.5t57.5 -209.5q0 -137 -58 -208.5t-165 -71.5t-164 71.5zM383.5 109.5q36.5 53.5 36.5 157.5t-36 158t-106 54t-106 -53.5t-36 -158.5q0 -104 35.5 -157.5t105.5 -53.5t106.5 53.5zM303 630
q-19 10 -45 29q-18 14 -29 20.5t-23 6.5q-35 0 -43 -64h-50q2 59 26.5 93t68.5 34q26 0 46 -10.5t44 -29.5q18 -14 29 -20.5t23 -6.5q35 0 43 65h50q-2 -60 -26.5 -93.5t-68.5 -33.5q-26 0 -45 10zM134 877h288v-60h-288v60z" />
    <glyph glyph-name="uni022E" unicode="&#x22e;" horiz-adv-x="712" 
d="M316.5 812.5q-14.5 14.5 -14.5 40.5t14.5 41t39.5 15t39.5 -14.5t14.5 -40.5t-14.5 -41t-39.5 -15t-39.5 14.5zM138.5 82.5q-75.5 95.5 -75.5 279.5t75.5 279.5t217.5 95.5t218 -95.5t76 -279.5t-76 -279.5t-218 -95.5t-217.5 95.5zM513.5 135.5q53.5 77.5 53.5 226.5
t-53.5 226.5t-157.5 77.5t-157 -77t-53 -227t53 -227t157 -77t157.5 77.5z" />
    <glyph glyph-name="uni022F" unicode="&#x22f;" horiz-adv-x="556" 
d="M113 58.5q-57 71.5 -57 208.5q0 138 57.5 209.5t164.5 71.5t164.5 -71.5t57.5 -209.5q0 -137 -58 -208.5t-165 -71.5t-164 71.5zM383.5 109.5q36.5 53.5 36.5 157.5t-36 158t-106 54t-106 -53.5t-36 -158.5q0 -104 35.5 -157.5t105.5 -53.5t106.5 53.5zM238.5 643.5
q-14.5 14.5 -14.5 40.5t14.5 41t39.5 15t39.5 -14.5t14.5 -40.5t-14.5 -41t-39.5 -15t-39.5 14.5z" />
    <glyph glyph-name="uni0230" unicode="&#x230;" horiz-adv-x="712" 
d="M212 1023h288v-60h-288v60zM316.5 812.5q-14.5 14.5 -14.5 40.5t14.5 41t39.5 15t39.5 -14.5t14.5 -40.5t-14.5 -41t-39.5 -15t-39.5 14.5zM138.5 82.5q-75.5 95.5 -75.5 279.5t75.5 279.5t217.5 95.5t218 -95.5t76 -279.5t-76 -279.5t-218 -95.5t-217.5 95.5z
M513.5 135.5q53.5 77.5 53.5 226.5t-53.5 226.5t-157.5 77.5t-157 -77t-53 -227t53 -227t157 -77t157.5 77.5z" />
    <glyph glyph-name="uni0231" unicode="&#x231;" horiz-adv-x="556" 
d="M113 58.5q-57 71.5 -57 208.5q0 138 57.5 209.5t164.5 71.5t164.5 -71.5t57.5 -209.5q0 -137 -58 -208.5t-165 -71.5t-164 71.5zM383.5 109.5q36.5 53.5 36.5 157.5t-36 158t-106 54t-106 -53.5t-36 -158.5q0 -104 35.5 -157.5t105.5 -53.5t106.5 53.5zM238.5 643.5
q-14.5 14.5 -14.5 40.5t14.5 41t39.5 15t39.5 -14.5t14.5 -40.5t-14.5 -41t-39.5 -15t-39.5 14.5zM134 849h288v-60h-288v60z" />
    <glyph glyph-name="uni0232" unicode="&#x232;" horiz-adv-x="586" 
d="M436 811h-288v60h288v-60zM560 724l-228 -466v-258h-79v258l-226 466h88l179 -374l179 374h87z" />
    <glyph glyph-name="uni0233" unicode="&#x233;" horiz-adv-x="516" 
d="M485 535l-188 -540q-26 -74 -85.5 -128t-150.5 -86l-27 68q71 25 116 60.5t70 85.5l-189 540h83l145 -444l144 444h82zM115 701h288v-60h-288v60z" />
    <glyph glyph-name="uni0234" unicode="&#x234;" horiz-adv-x="261" 
d="M309 -21q32 -30 32 -83q0 -54 -32.5 -84t-90.5 -30q-54 0 -86.5 28t-36.5 77l-21 -21l-64 -68l-43 43l67 70q31 33 58 52v807h77v-767q26 6 50 6q58 0 90 -30zM256.5 -140q12.5 13 12.5 38q0 52 -54 52q-25 0 -46 -10v-34q0 -59 51 -59q24 0 36.5 13z" />
    <glyph glyph-name="uni0235" unicode="&#x235;" horiz-adv-x="681" 
d="M632 183q32 -30 32 -83q0 -54 -32 -84t-90 -30q-55 0 -87.5 27.5t-36.5 77.5l-21 -21l-64 -68l-43 43l67 70q26 28 59 53v138v66q0 50 -28 76t-82 26q-38 0 -71 -12.5t-66 -39.5v-422h-77v535h72v-58q66 71 164 71q78 0 121.5 -45t43.5 -125v-171q26 6 49 6q58 0 90 -30z
M579.5 64q12.5 13 12.5 38q0 52 -54 52q-25 0 -46 -10v-34q0 -59 51 -59q24 0 36.5 13z" />
    <glyph glyph-name="uni0236" unicode="&#x236;" horiz-adv-x="392" 
d="M332.5 183q32.5 -30 32.5 -83q0 -54 -32.5 -84t-90.5 -30q-55 0 -87 27.5t-36 77.5q-15 -12 -22 -21l-63 -68l-44 43l67 70q32 34 59 52v303h-93v65h93v159h77v-159h160v-65h-160v-164v-99q25 6 49 6q58 0 90.5 -30zM292 102q0 52 -53 52q-24 0 -47 -10v-34q0 -59 52 -59
q48 0 48 51z" />
    <glyph glyph-name="uni0237" unicode="&#x237;" horiz-adv-x="266" 
d="M-43 -155q54 19 83.5 41t41.5 55t12 87v507h77v-507q0 -72 -16.5 -117t-57 -75.5t-114.5 -55.5z" />
    <glyph glyph-name="uni0238" unicode="&#x238;" horiz-adv-x="888" 
d="M779 473q53 -75 53 -209q0 -130 -56 -203.5t-156 -73.5q-44 0 -81 17.5t-62 50.5v-55h-66v69q-27 -40 -66.5 -61t-88.5 -21q-95 0 -147.5 75t-52.5 209q0 131 55.5 204t155.5 73q42 0 77.5 -16t60.5 -45v283h77v-296q27 37 65 55.5t84 18.5q95 0 148 -75zM345.5 76.5
q31.5 15.5 59.5 48.5v292q-25 29 -60.5 45t-74.5 16q-67 0 -100.5 -52.5t-33.5 -154.5q0 -104 35 -157t105 -53q38 0 69.5 15.5zM718 109.5q34 52.5 34 153.5q0 104 -35.5 157.5t-105.5 53.5q-37 0 -68.5 -15.5t-60.5 -48.5v-292q26 -29 61 -45t74 -16q67 0 101 52.5z" />
    <glyph glyph-name="uni0239" unicode="&#x239;" horiz-adv-x="888" 
d="M779 473q53 -75 53 -209q0 -130 -56 -203.5t-156 -73.5q-41 0 -76.5 16t-61.5 45v-255h-77v268q-26 -37 -64 -55.5t-85 -18.5q-95 0 -147.5 75t-52.5 209q0 131 55.5 204t155.5 73q44 0 81.5 -17.5t62.5 -50.5v55h66v-69q55 82 154 82q95 0 148 -75zM345.5 76.5
q31.5 15.5 59.5 48.5v292q-25 29 -60.5 45t-74.5 16q-67 0 -100.5 -52.5t-33.5 -154.5q0 -104 35 -157t105 -53q38 0 69.5 15.5zM718 109.5q34 52.5 34 153.5q0 104 -35.5 157.5t-105.5 53.5q-37 0 -68.5 -15.5t-60.5 -48.5v-292q26 -29 61 -45t74 -16q67 0 101 52.5z" />
    <glyph glyph-name="uni023A" unicode="&#x23a;" horiz-adv-x="666" 
d="M483 195h-151l-111 -302h-66l110 302h-83l-66 -195h-85l258 724h89l40 -112l72 198h67l-106 -291l185 -519h-86zM291 265l87 238l-46 136l-127 -374h86zM459 265l-49 144l-53 -144h102z" />
    <glyph glyph-name="uni023B" unicode="&#x23b;" horiz-adv-x="599" 
d="M478 0q-49 -12 -105 -12q-93 0 -161 36l-50 -131h-67l65 167q-52 47 -79.5 120t-27.5 168q0 116 39 204.5t110 136.5t166 48q29 0 53 -4l30 77h66l-35 -90q40 -13 71 -31l-30 -64q-27 13 -68 26l-214 -553q56 -36 138 -36q89 0 150 35l30 -63q-32 -22 -81 -34zM192 143
l201 519q-18 2 -27 2q-109 0 -169.5 -81.5t-60.5 -227.5q0 -138 56 -212z" />
    <glyph glyph-name="uni023C" unicode="&#x23c;" horiz-adv-x="479" 
d="M375 -0.5q-40 -11.5 -84 -11.5q-63 0 -108 22l-45 -120h-63l59 153q-40 35 -61 93t-21 133q0 83 29 146.5t82 98t123 34.5q19 0 40 -3l37 97h62l-42 -111q31 -11 55 -27l-30 -62q-23 12 -51 22l-146 -383q35 -21 86 -21q61 0 118 34l29 -62q-29 -21 -69 -32.5zM165 126
l134 350l-15 1q-72 0 -112 -53.5t-40 -148.5t33 -149z" />
    <glyph glyph-name="uni023D" unicode="&#x23d;" horiz-adv-x="526" 
d="M497 72v-72h-401v332h-68v69h68v323h79v-323h188v-69h-188v-260h322z" />
    <glyph glyph-name="uni023E" unicode="&#x23e;" horiz-adv-x="526" 
d="M424 652l-121 -284v-368h-79v184l-125 -291h-66l191 442v317h-193v72h272h87l35 86h67l-37 -86h41v-72h-72zM368 652h-65v-154z" />
    <glyph glyph-name="uni023F" unicode="&#x23f;" horiz-adv-x="464" 
d="M392 -133l13 -59q-37 -17 -80 -17t-71.5 15t-46 37t-41.5 61q-25 43 -46 69.5t-54 47.5q-23 13 -26 15l28 65q72 -44 152 -44q59 0 89 22t30 64q0 33 -18.5 52.5t-59.5 29.5l-71 17q-73 17 -108 53t-35 95q0 74 49 115.5t137 41.5q45 0 88.5 -10.5t77.5 -29.5l-30 -65
q-72 36 -138 36q-53 0 -80 -20.5t-27 -60.5q0 -31 19 -50t59 -29l71 -17q73 -17 107.5 -54t34.5 -98q0 -76 -51.5 -118.5t-143.5 -42.5q-12 0 -36 2q14 -17 30 -41q33 -46 58 -68t63 -22q23 0 57 8z" />
    <glyph glyph-name="uni0240" unicode="&#x240;" horiz-adv-x="460" 
d="M475 -192q-36 -17 -79 -17q-44 0 -73 16t-45.5 38t-37.5 60q-17 32 -30.5 51t-34.5 31.5t-52 12.5h-80v65l284 405h-276v65h365v-65l-285 -405q49 0 80.5 -16.5t48.5 -39.5t38 -61q24 -45 46 -67t62 -22q24 0 56 8z" />
    <glyph glyph-name="uni0241" unicode="&#x241;" horiz-adv-x="555" 
d="M437.5 356.5q-51.5 -71.5 -145.5 -107.5v-249h-79v302q94 23 141 77.5t47 137.5q0 71 -32.5 107t-96.5 36q-43 0 -84.5 -17t-88.5 -52l-44 63q43 40 101 61.5t121 21.5q100 0 156 -56t56 -157q0 -96 -51.5 -167.5z" />
    <glyph glyph-name="uni0242" unicode="&#x242;" horiz-adv-x="479" 
d="M376 295.5q-42 -52.5 -120 -81.5v-214h-76v261q76 19 115.5 57.5t39.5 94.5q0 46 -25.5 69t-75.5 23q-68 0 -142 -50l-41 57q37 32 86 49t103 17q84 0 131 -42t47 -118q0 -70 -42 -122.5z" />
    <glyph glyph-name="uni0243" unicode="&#x243;" horiz-adv-x="644" 
d="M558 320.5q34 -44.5 34 -115.5q0 -97 -58 -151t-162 -54h-234h-42v171h-68v66h68v487h79h161q101 0 158 -52t57 -146q0 -57 -23.5 -93.5t-69.5 -50.5q66 -17 100 -61.5zM175 653v-246h161q65 0 99 30.5t34 88.5q0 62 -35 94.5t-102 32.5h-157zM475 105q34 34 34 100
q0 65 -34.5 98.5t-102.5 33.5h-197v-100h158v-66h-158v-100h201q65 0 99 34z" />
    <glyph glyph-name="uni0244" unicode="&#x244;" horiz-adv-x="686" 
d="M664 338h-70v-82q0 -127 -66.5 -198t-185.5 -71q-118 0 -184 71t-66 198v82h-70v69h70v317h79v-317h344v317h79v-317h70v-69zM515 338h-344v-81q0 -98 43.5 -148.5t128.5 -50.5t128.5 50.5t43.5 148.5v81z" />
    <glyph glyph-name="uni0245" unicode="&#x245;" horiz-adv-x="631" 
d="M510 0l-196 634l-194 -634h-85l236 724h89l236 -724h-86z" />
    <glyph glyph-name="uni0246" unicode="&#x246;" horiz-adv-x="574" 
d="M530 0h-312l-34 -107h-67l35 107h-56v724h287l28 86h66l-27 -86h67v-71h-90l-79 -247h84v-72h-107l-84 -263h289v-71zM360 653h-185v-247h106zM258 334h-83v-259z" />
    <glyph glyph-name="uni0247" unicode="&#x247;" horiz-adv-x="539" 
d="M299 247l-68 -176q31 -11 66 -11q74 0 138 41l29 -61q-31 -25 -76.5 -38.5t-95.5 -13.5q-47 0 -87 14l-43 -112h-62l53 139q-48 34 -73.5 95t-25.5 143q0 133 58 207t162 74q38 0 73 -11l40 105h63l-50 -131q43 -32 66 -88t23 -133q0 -25 -3 -43h-187zM175 436
q-35 -43 -42 -126h127l62 161q-24 8 -50 8q-62 0 -97 -43zM371 437l-48 -127h88q0 82 -40 127zM236 247h-104q4 -95 49 -143z" />
    <glyph glyph-name="uni0248" unicode="&#x248;" horiz-adv-x="473" 
d="M452 338h-90v-157q0 -92 -52 -143t-146 -51q-47 0 -87 11.5t-68 33.5l31 64q59 -37 124 -37q59 0 89 31t30 91v157h-120v69h120v317h79v-317h90v-69z" />
    <glyph glyph-name="uni0249" unicode="&#x249;" horiz-adv-x="305" 
d="M277 243h-86v-215q0 -72 -16.5 -117t-57 -75.5t-114.5 -55.5l-27 65q54 19 83.5 41t42 55.5t12.5 86.5v215h-86v62h86v230h77v-230h86v-62zM112.5 643.5q-14.5 14.5 -14.5 40.5t14.5 41t39.5 15t39.5 -14.5t14.5 -40.5t-14.5 -41t-39.5 -15t-39.5 14.5z" />
    <glyph glyph-name="uni024A" unicode="&#x24a;" horiz-adv-x="678" 
d="M706 -209q-27 -9 -58 -9q-72 0 -108.5 39t-36.5 115v145q-33 -45 -83.5 -69.5t-110.5 -24.5q-116 0 -181 98t-65 274q0 118 30.5 203t88 130t138.5 45q54 0 102.5 -22t80.5 -60v69h79v-724v-64q0 -43 16 -63t50 -20q27 0 46 6zM503 147v437q-32 37 -81 59t-99 22
q-88 0 -132.5 -76t-44.5 -223q0 -150 46 -226.5t137 -76.5q100 0 174 84z" />
    <glyph glyph-name="uni024B" unicode="&#x24b;" horiz-adv-x="573" 
d="M606 -209q-27 -9 -59 -9q-71 0 -107.5 38t-36.5 111v130q-54 -74 -149 -74q-94 0 -146 74.5t-52 208.5q0 131 55 204.5t154 73.5q42 0 77.5 -16t60.5 -46v49h77v-535v-69q0 -43 16.5 -63t51.5 -20q28 0 47 6zM343.5 76.5q31.5 15.5 59.5 48.5v292q-25 29 -60.5 45
t-74.5 16q-65 0 -98.5 -52.5t-33.5 -154.5q0 -104 35 -157t103 -53q38 0 69.5 15.5z" />
    <glyph glyph-name="uni024C" unicode="&#x24c;" horiz-adv-x="651" 
d="M337 279h-142v-279h-79v281h-90v68h90v375h79h160q105 0 164.5 -58.5t59.5 -163.5q0 -86 -40.5 -141.5t-115.5 -73.5l190 -287h-97zM195 350h160q141 0 141 152q0 74 -37 112.5t-108 38.5h-156v-303z" />
    <glyph glyph-name="uni024D" unicode="&#x24d;" horiz-adv-x="424" 
d="M246.5 451.5q-29.5 -16.5 -51.5 -50.5v-96h182v-62h-182v-243h-77v243h-86v62h86v230h71v-74q58 85 146 85q36 0 66 -13l-17 -75q-40 10 -70 10q-38 0 -67.5 -16.5z" />
    <glyph glyph-name="uni024E" unicode="&#x24e;" horiz-adv-x="586" 
d="M498 598h59v-65h-91l-134 -275v-258h-79v258l-134 275h-90v65h59l-61 126h88l60 -126h237l61 126h87zM381 533h-175l88 -183z" />
    <glyph glyph-name="uni024F" unicode="&#x24f;" horiz-adv-x="527" 
d="M497 312h-85l-110 -317q-26 -74 -85.5 -128t-150.5 -86l-27 68q71 26 116 61t70 85l-111 317h-83v56h64l-59 167h83l55 -167h180l54 167h82l-58 -167h65v-56zM336 312h-144l72 -220z" />
    <glyph glyph-name="uni0250" unicode="&#x250;" horiz-adv-x="529" 
d="M407 245.5q-78 -45.5 -244 -46.5v-35q0 -52 31.5 -78.5t93.5 -26.5q63 0 126 29l20 -64q-74 -37 -156 -37q-87 0 -139.5 43.5t-52.5 126.5v378h71v-66q52 77 161 77q79 0 123 -42t44 -117q0 -96 -78 -141.5zM225.5 460.5q-33.5 -15.5 -62.5 -47.5v-151q126 1 185.5 29.5
t59.5 89.5q0 47 -27.5 71t-80.5 24q-41 0 -74.5 -15.5z" />
    <glyph glyph-name="uni0251" unicode="&#x251;" horiz-adv-x="573" 
d="M480 535v-535h-71v69q-55 -82 -155 -82q-94 0 -146 74.5t-52 208.5q0 131 55 204.5t154 73.5q42 0 77.5 -16t60.5 -46v49h77zM343.5 76.5q31.5 15.5 59.5 48.5v292q-25 29 -60.5 45t-74.5 16q-65 0 -98.5 -52.5t-33.5 -154.5q0 -104 35 -157t103 -53q38 0 69.5 15.5z" />
    <glyph glyph-name="uni0252" unicode="&#x252;" horiz-adv-x="573" 
d="M465 473.5q52 -74.5 52 -208.5q0 -131 -55 -204.5t-154 -73.5q-42 0 -77.5 16t-60.5 46v-49h-77v535h71v-69q55 82 155 82q94 0 146 -74.5zM403.5 109.5q33.5 52.5 33.5 154.5q0 104 -35 157t-103 53q-37 0 -68.5 -15.5t-60.5 -47.5v-293q25 -29 60.5 -45t74.5 -16
q65 0 98.5 52.5z" />
    <glyph glyph-name="uni0253" unicode="&#x253;" horiz-adv-x="575" 
d="M466 473q53 -75 53 -209q0 -131 -56 -204t-156 -73q-44 0 -81 17.5t-62 50.5v-55h-72v392v143v102q0 69 34 104t100 35q33 0 59 -10l-11 -61q-26 6 -47 6q-29 0 -43.5 -18t-14.5 -55v-164q27 37 65 55.5t84 18.5q95 0 148 -75zM405 109.5q34 52.5 34 153.5
q0 104 -35.5 157.5t-105.5 53.5q-37 0 -68.5 -15.5t-60.5 -48.5v-292q26 -29 61 -45t74 -16q67 0 101 52.5z" />
    <glyph glyph-name="uni0254" unicode="&#x254;" horiz-adv-x="480" 
d="M364 473q63 -74 63 -207q0 -83 -29 -146.5t-82 -98t-123 -34.5q-39 0 -79 12t-73 32l30 62q65 -35 124 -35q72 0 112 53.5t40 148.5q0 106 -41.5 160.5t-123.5 54.5q-61 0 -118 -34l-29 62q29 21 69 32.5t84 11.5q113 0 176 -74z" />
    <glyph glyph-name="uni0255" unicode="&#x255;" horiz-adv-x="493" 
d="M437.5 233q30.5 -33 30.5 -91q0 -73 -47 -113.5t-131 -40.5q-67 0 -120 31l-58 -88l-51 34l61 93q-34 37 -52 91t-18 120q0 83 29 146.5t82 98t123 34.5q39 0 79 -12t73 -32l-30 -62q-65 35 -124 35q-72 0 -112 -53.5t-40 -148.5q0 -96 33 -150l13 20q41 62 83.5 91.5
t91.5 29.5q54 0 84.5 -33zM370.5 78.5q25.5 20.5 25.5 60.5q0 59 -51 59q-58 0 -115 -87l-20 -31q38 -22 86 -22q49 0 74.5 20.5z" />
    <glyph glyph-name="uni0256" unicode="&#x256;" horiz-adv-x="575" 
d="M598 -206q-27 -9 -59 -9q-66 0 -100 35t-34 103v138q-26 -37 -64 -55.5t-85 -18.5q-95 0 -147.5 75t-52.5 209q0 131 55.5 204t155.5 73q42 0 77.5 -16t60.5 -45v283h77v-601v-169v-77q0 -37 14.5 -55t43.5 -18q28 0 47 6zM345.5 76.5q31.5 15.5 59.5 48.5v292
q-25 29 -60.5 45t-74.5 16q-67 0 -100.5 -52.5t-33.5 -154.5q0 -104 35 -157t105 -53q38 0 69.5 15.5z" />
    <glyph glyph-name="uni0257" unicode="&#x257;" horiz-adv-x="576" 
d="M598 766l-11 -61q-26 6 -47 6q-29 0 -43.5 -18t-14.5 -55v-166v-432v-40h-71v69q-27 -40 -66.5 -61t-88.5 -21q-95 0 -147.5 75t-52.5 209q0 131 55.5 204t155.5 73q42 0 77.5 -16t60.5 -45v150q0 69 34 104t100 35q33 0 59 -10zM405 417q-25 29 -60.5 45t-74.5 16
q-67 0 -100.5 -52.5t-33.5 -154.5q0 -104 35 -157t105 -53q38 0 69.5 15.5t59.5 48.5v292z" />
    <glyph glyph-name="uni0258" unicode="&#x258;" horiz-adv-x="539" 
d="M427 474q58 -74 58 -207q0 -131 -63 -205t-175 -74q-50 0 -95.5 13.5t-76.5 38.5l29 61q64 -41 138 -41q78 0 119.5 47.5t46.5 139.5h-355q-3 18 -3 43q0 122 56.5 190t158.5 68q104 0 162 -74zM165.5 434q-36.5 -45 -37.5 -124h278q-7 83 -42 126t-97 43
q-65 0 -101.5 -45z" />
    <glyph glyph-name="uni0259" unicode="&#x259;" horiz-adv-x="539" 
d="M422 473q63 -74 63 -205q0 -133 -58 -207t-162 -74q-102 0 -158.5 68t-56.5 190q0 25 3 43h355q-5 92 -46.5 139.5t-119.5 47.5q-74 0 -138 -41l-29 61q31 25 76.5 38.5t95.5 13.5q112 0 175 -74zM364 99q35 43 42 126h-278q1 -79 37.5 -124t101.5 -45q62 0 97 43z" />
    <glyph glyph-name="uni025A" unicode="&#x25a;" horiz-adv-x="687" 
d="M687 217l-12 -63q-68 0 -108 35t-44 98l-38 -7v-13q0 -132 -58.5 -206t-162.5 -74q-101 0 -157.5 65.5t-56.5 181.5q0 17 2 33l350 64q-11 71 -52 107.5t-109 36.5q-73 0 -137 -41l-30 61q31 25 76.5 38.5t95.5 13.5q95 0 155 -52.5t77 -148.5l123 21l-4 -33
q-3 -19 -3 -34q0 -41 20.5 -62t60.5 -21h12zM371.5 109.5q35.5 53.5 35.5 157.5l-280 -51q1 -76 37.5 -118t101.5 -42q70 0 105.5 53.5z" />
    <glyph glyph-name="uni025B" unicode="&#x25b;" horiz-adv-x="454" 
d="M431 27q-34 -19 -80.5 -29t-93.5 -10q-98 0 -154 42t-56 122q0 101 104 132q-84 35 -84 120q0 71 53.5 107.5t133.5 36.5q42 0 82 -9.5t71 -25.5l-21 -64q-66 30 -126 30q-51 0 -83 -20t-32 -67q0 -42 31.5 -64t82.5 -22h82v-64h-84q-130 0 -130 -86q0 -99 139 -99
q35 0 72 9t65 23z" />
    <glyph glyph-name="uni025C" unicode="&#x25c;" horiz-adv-x="454" 
d="M407 152q0 -79 -59 -121.5t-157 -42.5q-46 0 -90.5 9t-77.5 28l28 62q27 -14 62.5 -22t68.5 -8q70 0 107.5 25t37.5 74q0 86 -131 86h-83v64h82q51 0 82.5 22t31.5 64q0 47 -33 67.5t-85 20.5q-53 0 -123 -30l-21 64q30 15 71.5 25t81.5 10q82 0 134.5 -36.5t52.5 -108.5
q0 -85 -84 -120q104 -31 104 -132z" />
    <glyph glyph-name="uni025D" unicode="&#x25d;" horiz-adv-x="602" 
d="M602 329l-12 -63q-68 0 -107.5 35t-44.5 99l-52 -10q-6 -75 -83 -106q104 -31 104 -132q0 -79 -59 -121.5t-157 -42.5q-46 0 -90.5 9t-77.5 28l28 62q27 -14 62.5 -22t68.5 -8q70 0 107.5 25t37.5 74q0 86 -131 86h-83v64h82q51 0 82.5 22t31.5 64q0 47 -33 67.5
t-85 20.5q-53 0 -123 -30l-21 64q30 15 71.5 25t81.5 10q66 0 113.5 -23.5t64.5 -69.5l138 23l-3 -28q-3 -22 -3 -39q0 -41 20 -62t60 -21h12z" />
    <glyph glyph-name="uni025E" unicode="&#x25e;" horiz-adv-x="538" 
d="M491 152q0 -78 -59 -121t-151 -43q-111 0 -168 70.5t-57 208.5q0 140 57.5 211t171.5 71q81 0 133.5 -36.5t52.5 -108.5q0 -85 -84 -120q104 -31 104 -132zM374 82.5q37 25.5 37 73.5q0 86 -131 86h-61v64h60q51 0 82.5 22t31.5 64q0 46 -33 67t-82 21
q-73 0 -107.5 -51.5t-34.5 -161.5q0 -108 34 -159t107 -51q60 0 97 25.5z" />
    <glyph glyph-name="uni025F" unicode="&#x25f;" horiz-adv-x="305" 
d="M277 243h-86v-215q0 -72 -16.5 -117t-57 -75.5t-114.5 -55.5l-27 65q54 19 83.5 41t42 55.5t12.5 86.5v215h-86v62h86v230h77v-230h86v-62z" />
    <glyph glyph-name="uni0260" unicode="&#x260;" horiz-adv-x="577" 
d="M600 766l-11 -61q-26 6 -47 6q-29 0 -43.5 -18t-14.5 -55v-103h1v-537q0 -103 -61.5 -160.5t-170.5 -57.5q-41 0 -80.5 8t-66.5 23l23 68q58 -28 122 -28q77 0 117 37t40 110v93q-54 -74 -150 -74q-95 0 -148.5 71t-53.5 198q0 124 56 193t157 69q42 0 77.5 -16t60.5 -45
v150q0 69 34 104t100 35q33 0 59 -10zM348.5 106.5q31.5 15.5 59.5 48.5v215h-1v48q-26 29 -61 44.5t-74 15.5q-67 0 -101.5 -48.5t-34.5 -143.5q0 -96 36 -145.5t107 -49.5q38 0 69.5 15.5z" />
    <glyph glyph-name="uni0261" unicode="&#x261;" horiz-adv-x="577" 
d="M485 535v-537q0 -103 -61.5 -160.5t-170.5 -57.5q-41 0 -80.5 8t-66.5 23l23 68q58 -28 122 -28q77 0 117 37t40 110v93q-54 -74 -150 -74q-95 0 -148.5 71t-53.5 198q0 124 56 193t157 69q44 0 81.5 -18t63.5 -51v56h71zM348.5 106.5q31.5 15.5 59.5 48.5v261
q-26 30 -61.5 46t-74.5 16q-67 0 -101.5 -48.5t-34.5 -143.5q0 -96 36 -145.5t107 -49.5q38 0 69.5 15.5z" />
    <glyph glyph-name="uni0262" unicode="&#x262;" horiz-adv-x="573" 
d="M500 292v-262q-32 -19 -77 -29.5t-94 -10.5q-128 0 -199 73t-71 204t71 204t199 73q46 0 88 -10t72 -28l-23 -63q-68 32 -139 32q-93 0 -140.5 -52.5t-47.5 -155.5t48 -155.5t142 -52.5q47 0 94 13v151h-107v69h184z" />
    <glyph glyph-name="uni0263" unicode="&#x263;" horiz-adv-x="520" 
d="M342 -7q28 -63 28 -107q0 -50 -28.5 -78t-80.5 -28q-50 0 -78.5 28t-28.5 77q0 44 27 108l42 101l-192 441h83l147 -349l146 349h82l-191 -438zM299 -114q0 34 -27 95l-12 28l-12 -28q-27 -61 -27 -94q0 -45 40 -45q38 0 38 44z" />
    <glyph glyph-name="uni0264" unicode="&#x264;" horiz-adv-x="532" 
d="M498 534q27 -14 53 -44l-45 -52q-24 22 -38.5 30.5t-27.5 8.5q-16 0 -30 -14.5t-36 -52.5l-69 -122l42 -76q19 -35 27.5 -61.5t8.5 -52.5q0 -52 -30.5 -81.5t-85.5 -29.5t-85 29t-30 81q0 26 8.5 53t27.5 62l40 74l-71 124q-22 39 -36 53t-30 14q-13 0 -28.5 -8.5
t-38.5 -29.5l-43 51q26 30 53 44t58 14q39 0 67 -22.5t59 -78.5l49 -90l49 90q31 56 58.5 78.5t65.5 22.5q31 0 58 -14zM266 219l-17 -31q-30 -51 -30 -90q0 -48 48 -48q46 0 46 47q0 40 -30 91z" />
    <glyph glyph-name="uni0265" unicode="&#x265;" horiz-adv-x="573" 
d="M480 535v-742h-77v265q-56 -71 -155 -71q-77 0 -120 45t-43 125v378h77v-372q0 -50 27.5 -76t80.5 -26q40 0 72.5 15t60.5 47v412h77z" />
    <glyph glyph-name="uni0266" unicode="&#x266;" horiz-adv-x="583" 
d="M451.5 503q43.5 -45 43.5 -125v-378h-77v372q0 102 -111 102q-39 0 -72 -12.5t-66 -39.5v-422h-77v590v47q0 69 34 104t100 35q33 0 59 -10l-11 -61q-26 6 -47 6q-29 0 -43.5 -18t-14.5 -55v-155q67 65 160 65q79 0 122.5 -45z" />
    <glyph glyph-name="uni0267" unicode="&#x267;" horiz-adv-x="583" 
d="M451.5 503q43.5 -45 43.5 -125v-378v-56q0 -77 -39 -120.5t-109 -43.5q-33 0 -63 9t-51 25l27 61q47 -27 86 -27q35 0 53.5 24.5t18.5 71.5v181v247q0 102 -111 102q-39 0 -72 -12.5t-66 -39.5v-422h-77v590v47q0 69 34 104t100 35q33 0 59 -10l-11 -61q-26 6 -47 6
q-29 0 -43.5 -18t-14.5 -55v-155q67 65 160 65q79 0 122.5 -45z" />
    <glyph glyph-name="uni0268" unicode="&#x268;" horiz-adv-x="305" 
d="M113.5 643.5q-14.5 14.5 -14.5 40.5t14.5 41t39.5 15t39.5 -14.5t14.5 -40.5t-14.5 -41t-39.5 -15t-39.5 14.5zM277 243h-86v-243h-77v243h-86v62h86v230h77v-230h86v-62z" />
    <glyph glyph-name="uni0269" unicode="&#x269;" horiz-adv-x="372" 
d="M132 37.5q-42 44.5 -42 132.5v365h77v-354q0 -61 24.5 -90t74.5 -29q28 0 56 9l12 -66q-34 -12 -79 -12q-81 0 -123 44.5z" />
    <glyph glyph-name="uni026A" unicode="&#x26a;" horiz-adv-x="266" 
d="M94 535h77v-535h-77v535z" />
    <glyph glyph-name="uni026B" unicode="&#x26b;" horiz-adv-x="385" 
d="M307 67l7 -65q-32 -8 -64 -8q-114 0 -114 117v293q-14 7 -24 7q-35 0 -43 -64h-50q2 59 26.5 93t68.5 34q8 0 22 -2v298h77v-343q14 -10 23.5 -15t19.5 -5q35 0 43 65h50q-2 -60 -26.5 -93.5t-68.5 -33.5q-22 0 -41 8v-237q0 -28 13 -40.5t41 -12.5q17 0 40 4z" />
    <glyph glyph-name="uni026C" unicode="&#x26c;" horiz-adv-x="431" 
d="M355 67l7 -65q-32 -8 -64 -8q-56 0 -85 29.5t-29 87.5v154q-19 -4 -39 -4q-61 0 -95 33t-34 93q0 59 33.5 92t92.5 33q19 0 42 -7v265h77v-420q5 3 11 4l111 40l21 -58l-111 -40l-32 -11v-169q0 -28 13 -40.5t41 -12.5q17 0 40 4zM184 330v110q-16 4 -40 4q-57 0 -57 -58
t58 -58q26 0 39 2z" />
    <glyph glyph-name="uni026D" unicode="&#x26d;" horiz-adv-x="262" 
d="M271 -210q-32 -8 -64 -8q-57 0 -86 29.5t-29 87.5v659v212h77v-770v-95q0 -28 13 -41t42 -13q18 0 39 4z" />
    <glyph glyph-name="uni026E" unicode="&#x26e;" horiz-adv-x="619" 
d="M510.5 156.5q62.5 -50.5 62.5 -149.5q0 -111 -68 -169t-176 -58q-51 0 -100 9.5t-85 30.5l28 62q40 -18 74.5 -25.5t75.5 -7.5q82 0 126.5 40.5t44.5 115.5q0 78 -53.5 112.5t-143.5 34.5h-43v64l194 253h-278v-469h-77v770h77v-235h367v-67l-198 -253
q110 -8 172.5 -58.5z" />
    <glyph glyph-name="uni026F" unicode="&#x26f;" horiz-adv-x="881" 
d="M789 535v-535h-71v58q-66 -71 -160 -71q-51 0 -88 21.5t-55 60.5q-71 -82 -171 -82q-75 0 -117 45t-42 125v378h77v-372q0 -102 104 -102q36 0 69 13.5t66 41.5q-3 20 -3 41v378h77v-372q0 -50 26.5 -76t77.5 -26q72 0 133 52v422h77z" />
    <glyph glyph-name="uni0270" unicode="&#x270;" horiz-adv-x="881" 
d="M789 -207h-77v259q-65 -65 -155 -65q-51 0 -88 21.5t-55 60.5q-71 -82 -170 -82q-75 0 -117 45t-42 125v378h77v-372q0 -50 26.5 -76t77.5 -26q70 0 134 55q-3 20 -3 41v378h77v-372q0 -50 26.5 -76t78.5 -26q72 0 133 52v422h77v-742z" />
    <glyph glyph-name="uni0271" unicode="&#x271;" horiz-adv-x="883" 
d="M754 503q42 -45 42 -125v-378v-69q0 -74 -36.5 -111.5t-107.5 -37.5q-32 0 -59 9l11 63q20 -6 48 -6q35 0 51 20t16 63v255v186q0 102 -104 102q-36 0 -69 -13.5t-66 -41.5q4 -17 4 -41v-378h-77v372q0 50 -26.5 76t-78.5 26q-36 0 -68 -12.5t-65 -39.5v-422h-77v535h72
v-58q66 71 160 71q51 0 87.5 -21.5t55.5 -61.5q71 83 170 83q75 0 117 -45z" />
    <glyph glyph-name="uni0272" unicode="&#x272;" horiz-adv-x="581" 
d="M449.5 503q43.5 -45 43.5 -125v-378h-77v372q0 50 -28 76t-82 26q-38 0 -71 -12.5t-66 -39.5v-422v-69q0 -74 -36.5 -111.5t-107.5 -37.5q-32 0 -59 9l11 63q21 -6 48 -6q35 0 51 20t16 63v255v349h72v-58q66 71 164 71q78 0 121.5 -45z" />
    <glyph glyph-name="uni0273" unicode="&#x273;" horiz-adv-x="581" 
d="M619 -209q-27 -9 -59 -9q-71 0 -107.5 37.5t-36.5 110.5v236v206q0 50 -28 76t-82 26q-38 0 -71 -12.5t-66 -39.5v-422h-77v535h72v-58q66 71 164 71q78 0 121.5 -45t43.5 -125v-378v-70q0 -43 16.5 -63t51.5 -20q29 0 47 7z" />
    <glyph glyph-name="uni0274" unicode="&#x274;" horiz-adv-x="628" 
d="M536 535v-535h-73l-296 405v-405h-75v535h73l296 -405v405h75z" />
    <glyph glyph-name="uni0275" unicode="&#x275;" horiz-adv-x="556" 
d="M442.5 476.5q57.5 -71.5 57.5 -209.5q0 -137 -58 -208.5t-165 -71.5t-164 71.5t-57 208.5q0 138 57.5 209.5t164.5 71.5t164.5 -71.5zM177 436.5q-36 -44.5 -42 -131.5h286q-12 176 -143 176q-65 0 -101 -44.5zM380.5 101.5q36.5 47.5 41.5 141.5h-288q4 -94 40 -141.5
t103 -47.5t103.5 47.5z" />
    <glyph glyph-name="uni0276" unicode="&#x276;" horiz-adv-x="807" 
d="M766 69v-69h-350h-112q-119 0 -182 67.5t-63 199.5t63 200t182 68h143h309v-69h-265v-158h195v-70h-195v-169h275zM416 69v397h-112q-81 0 -123 -50t-42 -149q0 -98 42 -148t123 -50h112z" />
    <glyph glyph-name="uni0277" unicode="&#x277;" horiz-adv-x="762" 
d="M112.5 50q-46.5 63 -46.5 176q0 152 83 237t232 85t232 -85t83 -237q0 -113 -46.5 -176t-129.5 -63q-108 0 -139 108q-16 -56 -53 -82t-85 -26q-84 0 -130.5 63zM318 92.5q24 36.5 24 96.5v69h77v-68q0 -68 27 -101t72 -33q48 0 73 42.5t25 124.5q0 126 -59.5 191
t-175.5 65t-175.5 -65t-59.5 -191q0 -82 25 -124.5t73 -42.5q50 0 74 36.5z" />
    <glyph glyph-name="uni0278" unicode="&#x278;" horiz-adv-x="578" 
d="M472 71q-51 -71 -147 -82v-196h-72v196q-96 11 -146.5 81.5t-50.5 196.5t51 197t146 82v195h72v-195q96 -11 147 -81.5t51 -197.5q0 -125 -51 -196zM445 267q0 187 -120 211v-420q120 24 120 209zM253 57v420q-120 -24 -120 -210t120 -210z" />
    <glyph glyph-name="uni0279" unicode="&#x279;" horiz-adv-x="399" 
d="M307 535v-535h-72v74q-56 -85 -145 -85q-35 0 -67 13l18 75q40 -10 70 -10q38 0 67 16t52 51v401h77z" />
    <glyph glyph-name="uni027A" unicode="&#x27a;" horiz-adv-x="399" 
d="M307 535v-535h-72v74q-56 -85 -145 -85q-35 0 -67 13l18 75q40 -10 70 -10q38 0 67 16t52 51v195h-1v441h77v-235h1z" />
    <glyph glyph-name="uni027B" unicode="&#x27b;" horiz-adv-x="399" 
d="M432 -209q-27 -9 -59 -9q-71 0 -107.5 38t-36.5 111v136q-57 -78 -140 -78q-34 0 -66 13l18 75q33 -10 69 -10q39 0 67.5 16t51.5 51v401h77v-535v-69q0 -43 16.5 -63t51.5 -20q28 0 47 6z" />
    <glyph glyph-name="uni027C" unicode="&#x27c;" horiz-adv-x="399" 
d="M376 533l-18 -75q-40 10 -70 10q-38 0 -67 -16t-52 -51v-401v-207h-77v367v375h72v-75q57 86 145 86q35 0 67 -13z" />
    <glyph glyph-name="uni027D" unicode="&#x27d;" horiz-adv-x="399" 
d="M185.5 -132q16.5 -20 51.5 -20q28 0 47 6l11 -63q-27 -9 -59 -9q-71 0 -107.5 38t-36.5 111v255v349h72v-75q57 86 145 86q35 0 67 -13l-18 -75q-40 10 -70 10q-38 0 -67 -16t-52 -51v-470q0 -43 16.5 -63z" />
    <glyph glyph-name="uni027E" unicode="&#x27e;" horiz-adv-x="328" 
d="M295 530l-11 -63q-18 7 -47 7q-35 0 -51.5 -20t-16.5 -63v-253v-138h-77v262v129q0 73 36.5 110.5t107.5 37.5q32 0 59 -9z" />
    <glyph glyph-name="uni027F" unicode="&#x27f;" horiz-adv-x="328" 
d="M199.5 501.5q36.5 -37.5 36.5 -110.5v-253v-138h-77v262v129q0 43 -16.5 63t-51.5 20q-29 0 -47 -7l-11 63q27 9 59 9q71 0 107.5 -37.5z" />
    <glyph glyph-name="uni0280" unicode="&#x280;" horiz-adv-x="545" 
d="M277 197h-108v-197h-77v535h77h124q89 0 138 -44.5t49 -124.5q0 -64 -32 -105.5t-91 -56.5l154 -204h-94zM169 264h124q107 0 107 101q0 50 -28 76t-82 26h-121v-203z" />
    <glyph glyph-name="uni0281" unicode="&#x281;" horiz-adv-x="545" 
d="M448 274.5q32 -41.5 32 -105.5q0 -80 -49 -124.5t-138 -44.5h-148h-53v535h77v-197h107l141 197h94l-154 -205q59 -14 91 -55.5zM372 94q28 26 28 76q0 101 -107 101h-124v-203h121q54 0 82 26z" />
    <glyph glyph-name="uni0282" unicode="&#x282;" horiz-adv-x="464" 
d="M111 4v-74q0 -83 71 -83q32 0 50 7l11 -63q-27 -9 -62 -9q-69 0 -105 38t-36 111v105l28 65q72 -44 152 -44q59 0 89 22t30 64q0 33 -18.5 52.5t-59.5 29.5l-71 17q-73 17 -108 53t-35 95q0 74 49 115.5t137 41.5q45 0 88.5 -10.5t77.5 -29.5l-30 -65q-72 36 -138 36
q-53 0 -80 -20.5t-27 -60.5q0 -31 19 -50t59 -29l71 -17q73 -17 107.5 -54t34.5 -98q0 -76 -51.5 -118.5t-143.5 -42.5q-55 0 -109 16z" />
    <glyph glyph-name="uni0283" unicode="&#x283;" horiz-adv-x="281" 
d="M317 771v-68q-30 4 -52 4q-47 0 -71.5 -27t-24.5 -79v-20v-581v-43q0 -83 -45.5 -129t-127.5 -46q-30 0 -52 5v68q32 -4 52 -4q47 0 71.5 27t24.5 79v96v539v9q0 83 45.5 129t127.5 46q32 0 52 -5z" />
    <glyph glyph-name="uni0284" unicode="&#x284;" horiz-adv-x="303" 
d="M339 771v-68q-32 4 -52 4q-47 0 -71.5 -27t-24.5 -79v-66v-230h86v-62h-86v-215q0 -72 -16.5 -117t-57 -75.5t-114.5 -55.5l-27 65q54 19 83.5 41t42 55.5t12.5 86.5v215h-86v62h86v176v120q0 83 45.5 129t127.5 46q32 0 52 -5z" />
    <glyph glyph-name="uni0285" unicode="&#x285;" horiz-adv-x="314" 
d="M369 -145v-68q-20 -5 -51 -5q-82 0 -128 46t-46 129v72v310v33q0 52 -24.5 79t-71.5 27q-20 0 -52 -4v68q22 5 52 5q82 0 127.5 -46t45.5 -129v-64v-308v-43q0 -52 25 -79t72 -27q21 0 51 4z" />
    <glyph glyph-name="uni0286" unicode="&#x286;" horiz-adv-x="347" 
d="M234 -32l142 -94l-35 -48l-112 74q-13 -56 -50 -86.5t-94 -30.5q-60 0 -94 33t-34 92t34.5 92.5t95.5 33.5q19 0 34.5 -4t35.5 -14v576v9q0 83 45.5 129t127.5 46q32 0 52 -5v-68q-32 4 -52 4q-47 0 -71.5 -27t-24.5 -79v-543v-90zM138.5 -126q17.5 23 18.5 72
q-40 22 -70 22q-28 0 -43 -15t-15 -44q0 -58 57 -58q35 0 52.5 23z" />
    <glyph glyph-name="uni0287" unicode="&#x287;" horiz-adv-x="384" 
d="M229.5 656.5q41.5 -44.5 41.5 -132.5v-300h93v-65h-93v-159h-77v159h-160v65h160v289q0 61 -24 90t-75 29q-26 0 -55 -9l-13 66q36 12 80 12q81 0 122.5 -44.5z" />
    <glyph glyph-name="uni0288" unicode="&#x288;" horiz-adv-x="377" 
d="M205.5 -133q16.5 -20 51.5 -20q28 0 48 7l10 -63q-27 -9 -59 -9q-71 0 -107.5 37.5t-36.5 110.5v236v304h-92v65h93v159h76v-159h161v-65h-161v-540q0 -43 16.5 -63z" />
    <glyph glyph-name="uni0289" unicode="&#x289;" horiz-adv-x="604" 
d="M578 243h-82v-243h-71v65q-60 -78 -161 -78q-77 0 -120 45t-43 125v86h-82v62h82v230h77v-230h241v230h77v-230h82v-62zM419 243h-241v-80q0 -50 27 -76t80 -26q41 0 73.5 15t60.5 47v120z" />
    <glyph glyph-name="uni028A" unicode="&#x28a;" horiz-adv-x="566" 
d="M510 471h-100q92 -92 92 -237q0 -116 -58 -181t-161 -65t-161 65t-58 181q0 145 92 237h-100v64h189v-68q-52 -43 -76.5 -98t-24.5 -130q0 -91 35.5 -137t103.5 -46t103.5 46t35.5 137q0 74 -25 129.5t-77 98.5v68h190v-64z" />
    <glyph glyph-name="uni028B" unicode="&#x28b;" horiz-adv-x="556" 
d="M447.5 490q36.5 -52 36.5 -154v-58q0 -143 -54 -217t-159 -74q-88 0 -137 50.5t-49 140.5v357h77v-338q0 -70 28.5 -105.5t83.5 -35.5q67 0 98.5 54t31.5 168v54q0 69 -19 105t-56 36q-15 0 -37 -5l-8 66q10 4 26 6t29 2q72 0 108.5 -52z" />
    <glyph glyph-name="uni028C" unicode="&#x28c;" horiz-adv-x="520" 
d="M406 0l-147 451l-145 -451h-83l186 535h85l187 -535h-83z" />
    <glyph glyph-name="uni028D" unicode="&#x28d;" horiz-adv-x="780" 
d="M665 0l-119 452l-116 -452h-81l-117 451l-118 -451h-81l158 535h85l115 -427l114 427h85l157 -535h-82z" />
    <glyph glyph-name="uni028E" unicode="&#x28e;" horiz-adv-x="516" 
d="M402 0l-145 444l-143 -444h-83l188 540q26 74 85.5 128t150.5 86l27 -68q-71 -25 -116 -61t-70 -86l189 -539h-83z" />
    <glyph glyph-name="uni028F" unicode="&#x28f;" horiz-adv-x="490" 
d="M467 535l-184 -350v-185h-77v185l-183 350h84l139 -270l138 270h83z" />
    <glyph glyph-name="uni0290" unicode="&#x290;" horiz-adv-x="464" 
d="M543 -208q-27 -9 -63 -9q-64 0 -97 35t-33 104v78h-307v65l284 405h-276v65h365v-65l-285 -405h289v-65v-78q0 -38 15 -56t47 -18q27 0 50 7z" />
    <glyph glyph-name="uni0291" unicode="&#x291;" horiz-adv-x="542" 
d="M509.5 216.5q27.5 -28.5 27.5 -78.5q0 -65 -45.5 -101.5t-126.5 -36.5h-91l-54 -98l-54 28l38 70h-161v65l284 405h-276v65h365v-65l-285 -405h110l38 70q32 56 70 83t84 27q49 0 76.5 -28.5zM467 132q0 46 -44 46q-25 0 -47 -17.5t-42 -53.5l-23 -42h56q100 0 100 67z
" />
    <glyph glyph-name="uni0292" unicode="&#x292;" horiz-adv-x="503" 
d="M394 156.5q63 -50.5 63 -149.5q0 -112 -68 -169.5t-177 -57.5q-50 0 -99 9.5t-85 30.5l28 62q39 -18 74 -25.5t76 -7.5q81 0 126 40.5t45 115.5q0 78 -53.5 112.5t-143.5 34.5h-44v64l194 253h-285v66h375v-67l-199 -254q110 -7 173 -57.5z" />
    <glyph glyph-name="uni0293" unicode="&#x293;" horiz-adv-x="526" 
d="M403 -168l50 -76l-52 -34l-51 79q-52 -21 -121 -21q-95 0 -148 40t-53 112q0 58 34.5 91t95.5 33q53 0 94 -27.5t84 -92.5l26 -41q37 38 37 110q0 78 -53 112.5t-143 34.5h-44v64l194 253h-286v66h375v-67l-198 -254q110 -7 172.5 -57t62.5 -150q0 -116 -76 -175z
M310 -138l-26 40q-30 45 -60 66t-64 21q-30 0 -46 -15t-16 -43q0 -40 32.5 -61t94.5 -21q50 0 85 13z" />
    <glyph glyph-name="uni0294" unicode="&#x294;" horiz-adv-x="555" 
d="M437 402q-52 -72 -147 -108v-294h-77v348q94 23 141.5 77.5t47.5 137.5q0 70 -33 106.5t-97 36.5q-43 0 -84.5 -17t-88.5 -52l-44 63q43 40 101 61.5t121 21.5q100 0 156 -56t56 -157q0 -96 -52 -168z" />
    <glyph glyph-name="uni0295" unicode="&#x295;" horiz-adv-x="557" 
d="M187.5 670q-35.5 -36 -35.5 -107q0 -83 48 -137.5t142 -77.5v-348h-77v287q-95 31 -147.5 101.5t-52.5 169.5q0 106 60 165.5t167 59.5q63 0 116 -21.5t93 -63.5l-48 -61q-36 35 -75 52t-85 17q-70 0 -105.5 -36z" />
    <glyph glyph-name="uni0296" unicode="&#x296;" horiz-adv-x="557" 
d="M439 381q52 -70 52 -169q0 -106 -60 -165.5t-166 -59.5q-128 0 -210 85l48 61q37 -35 76 -52t85 -17q69 0 104.5 36.5t35.5 106.5q0 83 -47.5 137.5t-141.5 77.5v348h77v-288q95 -31 147 -101z" />
    <glyph glyph-name="uni0297" unicode="&#x297;" horiz-adv-x="496" 
d="M115 -122.5q-63 97.5 -63 287.5q0 181 64.5 282t179.5 101q40 0 82 -13t77 -36l-33 -62q-66 39 -128 39q-80 0 -121 -77.5t-41 -227.5q0 -164 42.5 -241t132.5 -77q67 0 122 38l32 -61q-30 -23 -72.5 -36.5t-87.5 -13.5q-123 0 -186 97.5z" />
    <glyph glyph-name="uni0298" unicode="&#x298;" horiz-adv-x="852" 
d="M232 34q-82 47 -125.5 135.5t-43.5 211.5t43.5 211.5t125.5 135.5t194 47t194 -47t126 -135.5t44 -211.5t-44 -211.5t-126 -135.5t-194 -47t-194 47zM633 143.5q74 85.5 74 237.5t-74 237.5t-207 85.5t-206.5 -85.5t-73.5 -237.5t73.5 -237.5t206.5 -85.5t207 85.5z
M384 340.5q-15 15.5 -15 42.5t15 42.5t42 15.5q28 0 42.5 -15t14.5 -42q0 -28 -14.5 -43.5t-42.5 -15.5q-27 0 -42 15.5z" />
    <glyph glyph-name="uni0299" unicode="&#x299;" horiz-adv-x="556" 
d="M507 155q0 -74 -48 -114.5t-136 -40.5h-190h-41v535h77h125q86 0 132.5 -39t46.5 -110q0 -80 -72 -104q106 -27 106 -127zM169 466v-159h125q49 0 74.5 19.5t25.5 58.5q0 81 -104 81h-121zM402 90q25 22 25 64q0 43 -26.5 64.5t-77.5 21.5h-154v-172h159q49 0 74 22z" />
    <glyph glyph-name="uni029A" unicode="&#x29a;" horiz-adv-x="538" 
d="M424.5 478q57.5 -71 57.5 -211q0 -138 -58.5 -208.5t-172.5 -70.5q-92 0 -148 42.5t-56 121.5q0 101 104 132q-84 35 -84 120q0 72 53.5 108.5t134.5 36.5q112 0 169.5 -71zM366.5 108q35.5 51 35.5 160t-35.5 160.5t-109.5 51.5q-48 0 -80 -20.5t-32 -67.5
q0 -42 31.5 -64t82.5 -22h60v-64h-62q-130 0 -130 -86q0 -48 34.5 -73.5t93.5 -25.5q76 0 111.5 51z" />
    <glyph glyph-name="uni029B" unicode="&#x29b;" horiz-adv-x="661" 
d="M609 664v-67q-24 3 -39 3q-81 0 -81 -86v-11v-60h-23q-68 32 -139 32q-93 0 -140.5 -52.5t-47.5 -155.5t48 -155.5t142 -52.5q47 0 94 13v151h-107v69h184v-262q-32 -19 -77 -29.5t-94 -10.5q-128 0 -199 73t-71 204t71 204t199 73q52 0 95 -12q5 64 43.5 99.5
t103.5 35.5q22 0 38 -3z" />
    <glyph glyph-name="uni029C" unicode="&#x29c;" horiz-adv-x="610" 
d="M518 535v-535h-77v237h-272v-237h-77v535h77v-229h272v229h77z" />
    <glyph glyph-name="uni029D" unicode="&#x29d;" horiz-adv-x="329" 
d="M156.5 643.5q-14.5 14.5 -14.5 40.5t14.5 41t39.5 15t39.5 -14.5t14.5 -40.5t-14.5 -41t-39.5 -15t-39.5 14.5zM321 -188l-95 79q-14 -52 -50 -80t-91 -28q-61 0 -94.5 33t-33.5 92t34.5 92.5t95.5 33.5q39 0 70 -16v517h77v-477v-95l127 -106zM138.5 -126
q17.5 23 18.5 72q-33 22 -70 22q-28 0 -43 -15t-15 -44q0 -58 57 -58q35 0 52.5 23z" />
    <glyph glyph-name="uni029E" unicode="&#x29e;" horiz-adv-x="537" 
d="M445 -206h-77v206v274l-236 -274h-94l201 225l-213 310h94l172 -251l76 85v166h77v-741z" />
    <glyph glyph-name="uni029F" unicode="&#x29f;" horiz-adv-x="456" 
d="M431 69v-69h-339v535h77v-466h262z" />
    <glyph glyph-name="uni02A0" unicode="&#x2a0;" horiz-adv-x="575" 
d="M598 766l-11 -61q-26 6 -47 6q-29 0 -43.5 -18t-14.5 -55v-166v-432v-247h-77v268q-26 -37 -64 -55.5t-85 -18.5q-95 0 -147.5 75t-52.5 209q0 131 55.5 204t155.5 73q42 0 77.5 -16t60.5 -45v150q0 69 34 104t100 35q33 0 59 -10zM405 417q-25 29 -60.5 45t-74.5 16
q-67 0 -100.5 -52.5t-33.5 -154.5q0 -104 35 -157t105 -53q38 0 69.5 15.5t59.5 48.5v292z" />
    <glyph glyph-name="uni02A1" unicode="&#x2a1;" horiz-adv-x="555" 
d="M437 402q-52 -72 -147 -108v-78h108v-68h-108v-148h-77v148h-104v68h104v132q94 23 141.5 77.5t47.5 137.5q0 70 -33 106.5t-97 36.5q-43 0 -84.5 -17t-88.5 -52l-44 63q43 40 101 61.5t121 21.5q100 0 156 -56t56 -157q0 -96 -52 -168z" />
    <glyph glyph-name="uni02A2" unicode="&#x2a2;" horiz-adv-x="557" 
d="M187.5 670q-35.5 -36 -35.5 -107q0 -83 48 -137.5t142 -77.5v-132h104v-68h-104v-148h-77v148h-108v68h108v71q-95 31 -147.5 101.5t-52.5 169.5q0 106 60 165.5t167 59.5q63 0 116 -21.5t93 -63.5l-48 -61q-36 35 -75 52t-85 17q-70 0 -105.5 -36z" />
    <glyph glyph-name="uni02A3" unicode="&#x2a3;" horiz-adv-x="902" 
d="M858 65v-65h-377h-70v69q-27 -40 -66.5 -61t-88.5 -21q-95 0 -147.5 75t-52.5 209q0 131 55.5 204t155.5 73q42 0 77.5 -16t60.5 -45v283h77v-235h7h365v-65l-285 -405h289zM344.5 76.5q31.5 15.5 60.5 47.5v293q-25 29 -60.5 45t-74.5 16q-67 0 -100.5 -52.5
t-33.5 -154.5q0 -104 35 -157t105 -53q37 0 68.5 15.5zM482 67l284 403h-229h-55v-403z" />
    <glyph glyph-name="uni02A4" unicode="&#x2a4;" horiz-adv-x="942" 
d="M832.5 156.5q62.5 -50.5 62.5 -149.5q0 -112 -67.5 -169.5t-176.5 -57.5q-51 0 -99.5 9.5t-84.5 30.5l27 62q40 -18 75 -25.5t76 -7.5q81 0 125.5 40.5t44.5 115.5q0 78 -53 112.5t-143 34.5h-44v64l194 253h-286v1h-1v-470h-71v69q-27 -40 -66.5 -61t-88.5 -21
q-95 0 -147.5 75t-52.5 209q0 131 55.5 204t155.5 73q42 0 77.5 -16t60.5 -45v283h77v-235h1h375v-67l-198 -253q110 -8 172.5 -58.5zM344.5 76.5q31.5 15.5 60.5 47.5v293q-25 29 -60.5 45t-74.5 16q-67 0 -100.5 -52.5t-33.5 -154.5q0 -104 35 -157t105 -53
q37 0 68.5 15.5z" />
    <glyph glyph-name="uni02A5" unicode="&#x2a5;" horiz-adv-x="980" 
d="M948.5 216.5q27.5 -28.5 27.5 -78.5q0 -65 -45.5 -101.5t-126.5 -36.5h-91l-54 -98l-55 28l39 70h-162h-70v69q-27 -40 -66.5 -61t-88.5 -21q-95 0 -147.5 75t-52.5 209q0 131 55.5 204t155.5 73q42 0 77.5 -16t60.5 -45v283h77v-235h7h365v-65l-285 -405h110l39 70
q31 56 69 83t85 27q49 0 76.5 -28.5zM344.5 76.5q31.5 15.5 60.5 47.5v293q-25 29 -60.5 45t-74.5 16q-67 0 -100.5 -52.5t-33.5 -154.5q0 -104 35 -157t105 -53q37 0 68.5 15.5zM482 67l284 403h-229h-55v-403zM906 132q0 22 -11.5 34t-33.5 12q-25 0 -47 -17.5t-42 -53.5
l-23 -42h57q100 0 100 67z" />
    <glyph glyph-name="uni02A6" unicode="&#x2a6;" horiz-adv-x="757" 
d="M674 248.5q35 -35.5 35 -91.5q0 -84 -74.5 -127t-219.5 -43q-156 0 -229.5 51.5t-73.5 160.5v271h-92v65h93v159h76v-159h255q36 12 83 12q45 0 88 -10.5t78 -29.5l-31 -65q-70 36 -137 36q-53 0 -80 -20.5t-27 -60.5q0 -31 18.5 -50t59.5 -29l71 -17q72 -17 107 -52.5z
M582 78q50 23 50 72q0 29 -18.5 47t-59.5 28l-71 17q-73 17 -107.5 53t-34.5 95q0 44 19 80h-171v-266q0 -80 55 -114.5t182 -34.5q106 0 156 23z" />
    <glyph glyph-name="uni02A7" unicode="&#x2a7;" horiz-adv-x="606" 
d="M642 771v-68q-32 4 -52 4q-47 0 -71.5 -27t-24.5 -79v-20v-581v-43q0 -82 -46 -128.5t-128 -46.5q-31 0 -51 5v68q30 -4 51 -4q47 0 72 27t25 79v96v417h-130h-98v-289q0 -61 24.5 -90t75.5 -29q27 0 55 9l13 -66q-36 -12 -80 -12q-81 0 -123 44.5t-42 132.5v300h-92v65
h93v159h76v-159h161h67v57v9q0 83 45.5 129t127.5 46q30 0 52 -5z" />
    <glyph glyph-name="uni02A8" unicode="&#x2a8;" horiz-adv-x="739" 
d="M682.5 233q30.5 -33 30.5 -91q0 -73 -47 -113.5t-130 -40.5q-78 0 -135 40q-50 -35 -125 -35q-81 0 -122.5 45t-41.5 132v300h-92v65h93v159h76v-159h262q41 13 80 13t79 -11.5t73 -32.5l-30 -62q-65 35 -124 35q-71 0 -111.5 -53.5t-40.5 -148.5t33 -149l14 19
q43 62 83 91.5t91 29.5q54 0 84.5 -33zM213.5 91q24.5 -29 75.5 -29q36 0 64 13q-56 75 -56 194q0 125 62 201h-170v-289q0 -61 24.5 -90zM616.5 78.5q25.5 20.5 25.5 60.5q0 59 -52 59q-35 0 -60 -22.5t-55 -64.5l-21 -30q37 -23 88 -23q49 0 74.5 20.5z" />
    <glyph glyph-name="uni02A9" unicode="&#x2a9;" horiz-adv-x="883" 
d="M751.5 503q43.5 -45 43.5 -125v-378v-56q0 -77 -39 -120.5t-109 -43.5q-33 0 -63 9t-51 25l27 61q47 -27 86 -27q35 0 53.5 24.5t18.5 71.5v181v247q0 50 -28 76t-82 26q-39 0 -72.5 -12.5t-64.5 -39.5v-422h-77v470h-132h-73v-470h-77v470h-92v65h92v66q0 82 48.5 128.5
t134.5 46.5q32 0 52 -5v-68q-32 4 -52 4q-52 0 -79 -27t-27 -79v-66h139h66h72v-58q66 71 164 71q78 0 121.5 -45z" />
    <glyph glyph-name="uni02AA" unicode="&#x2aa;" horiz-adv-x="675" 
d="M156 38.5q-66 51.5 -66 160.5v571h77v-566q0 -80 47.5 -114.5t157.5 -34.5q91 0 134.5 23t43.5 72q0 29 -18.5 47t-59.5 28l-71 17q-73 17 -107.5 53t-34.5 95q0 74 49 115.5t137 41.5q45 0 88 -10.5t78 -29.5l-31 -65q-70 36 -137 36q-53 0 -80 -20.5t-27 -60.5
q0 -31 18.5 -50t59.5 -29l71 -17q72 -17 107 -52.5t35 -91.5q0 -84 -67 -127t-198 -43q-140 0 -206 51.5z" />
    <glyph glyph-name="uni02AB" unicode="&#x2ab;" horiz-adv-x="589" 
d="M545 65v-65h-377h-76v770h77v-240l7 1v4h365v-65l-284 -405h288zM169 67l284 403h-277v4l-7 -1v-406z" />
    <glyph glyph-name="uni02AC" unicode="&#x2ac;" horiz-adv-x="547" 
d="M132 414l-99 310h73l67 -246l67 246h69l67 -246l67 246h69l-99 -310h-74l-66 232l-64 -232h-77zM443 310h69l-99 -310h-74l-66 232l-64 -232h-77l-99 310h73l67 -246l67 246h69l67 -246z" />
    <glyph glyph-name="uni02AD" unicode="&#x2ad;" horiz-adv-x="536" 
d="M76 724v-308h66v238h252v-238h66v308h-384zM76 308v-308h66v238h252v-238h66v308h-384z" />
    <glyph glyph-name="uni02AE" unicode="&#x2ae;" horiz-adv-x="611" 
d="M519 535v-742h-77v265q-57 -71 -155 -71q-77 0 -120 45t-43 125v196v43q0 43 -16 63t-51 20q-24 0 -48 -7l-11 62q26 10 59 10q71 0 107.5 -37.5t36.5 -111.5v-232q0 -50 27 -76t80 -26q41 0 73.5 15t60.5 47v412h77z" />
    <glyph glyph-name="uni02AF" unicode="&#x2af;" horiz-adv-x="611" 
d="M635 -209q-27 -9 -59 -9q-66 0 -100 35t-34 103v138q-57 -71 -155 -71q-77 0 -120 45t-43 125v196v42q0 43 -16 63t-51 20q-28 0 -48 -7l-11 63q27 9 59 9q71 0 107.5 -37.5t36.5 -110.5v-232q0 -50 27 -76t80 -26q41 0 73.5 15t60.5 47v412h77v-542v-73q0 -37 14 -54.5
t44 -17.5q28 0 47 6z" />
    <glyph glyph-name="uni02B0" unicode="&#x2b0;" horiz-adv-x="524" 
d="M393.5 700.5q33.5 -33.5 33.5 -93.5v-275h-71v266q0 33 -20.5 50.5t-60.5 17.5q-55 0 -100 -36v-298h-73v560h73v-209q51 51 124 51q61 0 94.5 -33.5z" />
    <glyph glyph-name="uni02B1" unicode="&#x2b1;" horiz-adv-x="524" 
d="M393.5 700.5q33.5 -33.5 33.5 -93.5v-275h-71v266q0 33 -20.5 50.5t-60.5 17.5q-55 0 -100 -36v-298h-73v428v41q0 49 27.5 74.5t80.5 25.5q29 0 52 -10l-10 -57q-22 4 -37 4q-21 0 -30.5 -10t-9.5 -32v-113q51 51 124 51q61 0 94.5 -33.5z" />
    <glyph glyph-name="uni02B2" unicode="&#x2b2;" horiz-adv-x="271" 
d="M100.5 799q-12.5 12 -12.5 33q0 22 12.5 34.5t34.5 12.5t34.5 -12.5t12.5 -33.5q0 -22 -12.5 -34t-34.5 -12t-34.5 12zM-9 231q43 14 66 29.5t32.5 38.5t9.5 61v364h72v-365q0 -55 -14 -89t-47.5 -57t-94.5 -42z" />
    <glyph glyph-name="uni02B3" unicode="&#x2b3;" horiz-adv-x="365" 
d="M332 723l-15 -69q-29 8 -53 8q-55 0 -89 -45v-285h-73v392h66v-59q43 67 114 67q26 0 50 -9z" />
    <glyph glyph-name="uni02B4" unicode="&#x2b4;" horiz-adv-x="365" 
d="M263 724v-392h-66v59q-42 -67 -113 -67q-27 0 -51 9l15 69q27 -8 52 -8q30 0 51 11t39 35v284h73z" />
    <glyph glyph-name="uni02B5" unicode="&#x2b5;" horiz-adv-x="335" 
d="M359 182q-25 -9 -53 -9q-57 0 -86.5 27.5t-29.5 80.5v101q-40 -58 -106 -58q-27 0 -51 9l15 69q27 -8 52 -8q30 0 51 11t39 35v284h73v-392v-47q0 -26 11 -37.5t35 -11.5t39 5z" />
    <glyph glyph-name="uni02B6" unicode="&#x2b6;" horiz-adv-x="493" 
d="M395 537q24 -31 24 -78q0 -61 -39.5 -94t-111.5 -33h-106h-56v392h73v-136h75l105 136h86l-118 -144q44 -12 68 -43zM344 460q0 66 -76 66h-89v-131h87q78 0 78 65z" />
    <glyph glyph-name="uni02B7" unicode="&#x2b7;" horiz-adv-x="652" 
d="M609 724l-121 -392h-78l-85 306l-83 -306h-79l-120 392h74l86 -323l86 323h75l86 -322l85 322h74z" />
    <glyph glyph-name="uni02B8" unicode="&#x2b8;" horiz-adv-x="443" 
d="M402 724l-140 -384q-22 -61 -69.5 -102t-124.5 -66l-25 62q55 18 88.5 40.5t53.5 55.5l-144 394h75l106 -317l106 317h74z" />
    <glyph glyph-name="uni02B9" unicode="&#x2b9;" horiz-adv-x="201" 
d="M51 524l37 224h82v-10l-64 -224h-55v10z" />
    <glyph glyph-name="uni02BA" unicode="&#x2ba;" horiz-adv-x="346" 
d="M51 524l37 224h82v-10l-64 -224h-55v10zM196 524l37 224h82v-10l-64 -224h-55v10z" />
    <glyph glyph-name="uni02BB" unicode="&#x2bb;" horiz-adv-x="194" 
d="M181 747q-32 -34 -46 -68.5t-14 -79.5q0 -20 2 -42h-74q-2 22 -2 41q0 52 25 95.5t79 85.5z" />
    <glyph glyph-name="uni02BC" unicode="&#x2bc;" horiz-adv-x="194" 
d="M13 580q32 34 46 68.5t14 79.5q0 20 -2 42h74q2 -22 2 -41q0 -52 -25.5 -95.5t-79.5 -85.5z" />
    <glyph glyph-name="uni02BD" unicode="&#x2bd;" horiz-adv-x="194" 
d="M72 633.5q-25 43.5 -25 95.5q0 19 2 41h74q-2 -22 -2 -42q0 -45 14 -79.5t46 -68.5l-30 -32q-54 42 -79 85.5z" />
    <glyph glyph-name="uni02BE" unicode="&#x2be;" horiz-adv-x="164" 
d="M28 649q61 0 61 62q0 61 -61 61v46q55 0 86 -28.5t31 -78.5q0 -51 -30.5 -79t-86.5 -28v45z" />
    <glyph glyph-name="uni02BF" unicode="&#x2bf;" horiz-adv-x="164" 
d="M49 632q-31 28 -31 79q0 50 31 78.5t86 28.5v-46q-60 0 -60 -61q0 -62 60 -62v-45q-55 0 -86 28z" />
    <glyph glyph-name="uni02C0" unicode="&#x2c0;" horiz-adv-x="491" 
d="M375 624q-40 -52 -114 -81v-211h-73v256q73 19 110.5 57.5t37.5 93.5q0 92 -96 92q-66 0 -135 -49l-40 54q35 31 82.5 48t98.5 17q80 0 124.5 -41t44.5 -116q0 -68 -40 -120z" />
    <glyph glyph-name="uni02C1" unicode="&#x2c1;" horiz-adv-x="492" 
d="M155 739q0 -53 37 -91.5t110 -59.5v-256h-72v207q-74 25 -114.5 76t-40.5 121q0 78 47.5 121.5t133.5 43.5q106 0 170 -67l-41 -52q-59 49 -126 49q-104 0 -104 -92z" />
    <glyph glyph-name="uni02C2" unicode="&#x2c2;" horiz-adv-x="388" 
d="M324 429l-53 -50l-207 218l207 218l53 -49l-166 -169z" />
    <glyph glyph-name="uni02C3" unicode="&#x2c3;" horiz-adv-x="388" 
d="M64 766l53 49l207 -218l-207 -218l-53 50l166 168z" />
    <glyph glyph-name="uni02C4" unicode="&#x2c4;" horiz-adv-x="478" 
d="M438 438l-60 -35l-139 260l-138 -260l-60 35l198 357z" />
    <glyph glyph-name="uni02C5" unicode="&#x2c5;" horiz-adv-x="478" 
d="M41 756l59 35l139 -261l138 261l61 -35l-199 -357z" />
    <glyph glyph-name="circumflex" unicode="&#x2c6;" horiz-adv-x="500" 
d="M392 625v-10h-58l-85 111l-86 -111h-55v10l102 159h80z" />
    <glyph glyph-name="caron" unicode="&#x2c7;" horiz-adv-x="500" 
d="M392 784v-10l-102 -159h-80l-102 159v10h58l86 -111l85 111h55z" />
    <glyph glyph-name="uni02C8" unicode="&#x2c8;" horiz-adv-x="193" 
d="M67 839h59v-224h-59v224z" />
    <glyph glyph-name="uni02C9" unicode="&#x2c9;" horiz-adv-x="500" 
d="M106 701h288v-60h-288v60z" />
    <glyph glyph-name="uni02CA" unicode="&#x2ca;" horiz-adv-x="500" 
d="M198 625l103 159h89v-10l-132 -159h-60v10z" />
    <glyph glyph-name="uni02CB" unicode="&#x2cb;" horiz-adv-x="500" 
d="M122 774v10h90l94 -159v-10h-60z" />
    <glyph glyph-name="uni02CC" unicode="&#x2cc;" horiz-adv-x="193" 
d="M67 -80h59v-224h-59v224z" />
    <glyph glyph-name="uni02CD" unicode="&#x2cd;" horiz-adv-x="399" 
d="M55 -106h288v-60h-288v60z" />
    <glyph glyph-name="uni02CE" unicode="&#x2ce;" horiz-adv-x="354" 
d="M56 -96v12h99l143 -133v-12h-69z" />
    <glyph glyph-name="uni02CF" unicode="&#x2cf;" horiz-adv-x="363" 
d="M56 -217l152 133h99v-12l-182 -133h-69v12z" />
    <glyph glyph-name="uni02D0" unicode="&#x2d0;" horiz-adv-x="297" 
d="M56 535h185l-83 -161h-20zM138 161h20l83 -161h-185z" />
    <glyph glyph-name="uni02D1" unicode="&#x2d1;" horiz-adv-x="297" 
d="M56 535h185l-83 -161h-20z" />
    <glyph glyph-name="uni02D2" unicode="&#x2d2;" horiz-adv-x="303" 
d="M87 219q61 0 61 62q0 61 -61 61v46q55 0 86 -28.5t31 -78.5q0 -51 -30.5 -79t-86.5 -28v45z" />
    <glyph glyph-name="uni02D3" unicode="&#x2d3;" horiz-adv-x="303" 
d="M129 202q-31 28 -31 79q0 50 31 78.5t86 28.5v-46q-60 0 -60 -61q0 -62 60 -62v-45q-55 0 -86 28z" />
    <glyph glyph-name="uni02D4" unicode="&#x2d4;" horiz-adv-x="427" 
d="M341 298h-100v-120h-56v120h-100v54h256v-54z" />
    <glyph glyph-name="uni02D5" unicode="&#x2d5;" horiz-adv-x="427" 
d="M341 249v-54h-256v54h100v120h56v-120h100z" />
    <glyph glyph-name="uni02D6" unicode="&#x2d6;" horiz-adv-x="500" 
d="M433 269h-149v-151h-68v151h-149v65h149v151h68v-151h149v-65z" />
    <glyph glyph-name="uni02D7" unicode="&#x2d7;" horiz-adv-x="500" 
d="M67 334h366v-66h-366v66z" />
    <glyph glyph-name="breve" unicode="&#x2d8;" horiz-adv-x="500" 
d="M148.5 653.5q-37.5 38.5 -40.5 108.5h53q12 -83 90 -83q79 0 91 83h50q-3 -70 -40.5 -108.5t-101.5 -38.5t-101.5 38.5z" />
    <glyph glyph-name="dotaccent" unicode="&#x2d9;" horiz-adv-x="500" 
d="M210.5 642.5q-14.5 14.5 -14.5 40.5t14.5 41t39.5 15t39.5 -14.5t14.5 -40.5t-14.5 -41t-39.5 -15t-39.5 14.5z" />
    <glyph glyph-name="ring" unicode="&#x2da;" horiz-adv-x="500" 
d="M164 632q-31 28 -31 79q0 50 31 78.5t86 28.5t86 -28.5t31 -78.5q0 -51 -31 -79t-86 -28t-86 28zM310 711q0 61 -60 61t-60 -61q0 -62 60 -62t60 62z" />
    <glyph glyph-name="ogonek" unicode="&#x2db;" horiz-adv-x="500" 
d="M102.5 -194.5q-27.5 23.5 -27.5 66.5q0 41 27 77.5t75 59.5l56 -9q-89 -51 -89 -114q0 -44 48 -44q31 0 66 18l22 -49q-20 -14 -47 -21.5t-55 -7.5q-48 0 -75.5 23.5z" />
    <glyph glyph-name="tilde" unicode="&#x2dc;" horiz-adv-x="500" 
d="M275 630q-19 10 -45 29q-18 14 -29 20.5t-23 6.5q-35 0 -43 -64h-50q2 59 26.5 93t68.5 34q26 0 46 -10.5t44 -29.5q18 -14 29 -20.5t23 -6.5q35 0 43 65h50q-2 -60 -26.5 -93.5t-68.5 -33.5q-26 0 -45 10z" />
    <glyph glyph-name="hungarumlaut" unicode="&#x2dd;" horiz-adv-x="500" 
d="M141 625l61 159h81v-10l-91 -159h-51v10zM283 625l62 159h80v-10l-91 -159h-51v10z" />
    <glyph glyph-name="uni02DE" unicode="&#x2de;" horiz-adv-x="182" 
d="M182 329l-12 -63q-67 0 -107 35t-45 98l-88 -16l-6 67l173 29l-5 -33q-2 -26 -2 -34q0 -41 20 -62t60 -21h12z" />
    <glyph glyph-name="uni02DF" unicode="&#x2df;" horiz-adv-x="415" 
d="M248 743l81 -73l-40 -39l-82 75l-83 -75l-39 39l80 73l-80 72l39 40l83 -75l82 75l40 -40z" />
    <glyph glyph-name="uni02E0" unicode="&#x2e0;" horiz-adv-x="447" 
d="M294 334q21 -48 21 -81q0 -38 -24 -59.5t-67 -21.5t-66.5 21.5t-23.5 59.5q0 35 21 81l35 79l-149 311h75l108 -236l106 236h76l-149 -310zM246 233q8 9 8 25q0 25 -20 65l-11 21l-10 -21q-20 -43 -20 -64q0 -35 31 -35q14 0 22 9z" />
    <glyph glyph-name="uni02E1" unicode="&#x2e1;" horiz-adv-x="296" 
d="M100 419v473h73v-461q0 -21 9.5 -30t30.5 -9q6 0 30 2l6 -61q-36 -6 -53 -6q-96 0 -96 92z" />
    <glyph glyph-name="uni02E2" unicode="&#x2e2;" horiz-adv-x="411" 
d="M118 333q-38 10 -68 27l25 60q57 -33 122 -33q42 0 64 13.5t22 39.5q0 21 -15 33.5t-47 19.5l-55 12q-57 13 -83.5 39t-26.5 70q0 56 39.5 87.5t110.5 31.5q35 0 70.5 -8t64.5 -23l-27 -59q-57 26 -110 26q-77 0 -77 -48q0 -20 14.5 -32t45.5 -19l54 -12q58 -13 85 -39.5
t27 -72.5q0 -58 -41 -90.5t-115 -32.5q-41 0 -79 10z" />
    <glyph glyph-name="uni02E3" unicode="&#x2e3;" horiz-adv-x="441" 
d="M316 332l-97 147l-94 -147h-81l137 199l-131 193h82l90 -139l94 139h80l-135 -192l136 -200h-81z" />
    <glyph glyph-name="uni02E4" unicode="&#x2e4;" horiz-adv-x="492" 
d="M155 739q0 -53 37 -91.5t110 -59.5v-256h-72v207q-74 25 -114.5 76t-40.5 121q0 78 47.5 121.5t133.5 43.5q106 0 170 -67l-41 -52q-59 49 -126 49q-104 0 -104 -92z" />
    <glyph glyph-name="uni02E5" unicode="&#x2e5;" horiz-adv-x="421" 
d="M328 0h-63v710h-235v60h298v-770z" />
    <glyph glyph-name="uni02E6" unicode="&#x2e6;" horiz-adv-x="421" 
d="M328 770v-238v-532h-63v532h-235v60h235v178h63z" />
    <glyph glyph-name="uni02E7" unicode="&#x2e7;" horiz-adv-x="421" 
d="M328 770v-415v-355h-63v355h-235v60h235v355h63z" />
    <glyph glyph-name="uni02E8" unicode="&#x2e8;" horiz-adv-x="421" 
d="M328 770v-592v-178h-63v178h-235v60h235v532h63z" />
    <glyph glyph-name="uni02E9" unicode="&#x2e9;" horiz-adv-x="421" 
d="M328 770v-770h-298v60h235v710h63z" />
    <glyph glyph-name="uni02EA" unicode="&#x2ea;" horiz-adv-x="431" 
d="M401 60v-60h-309v535h63v-475h246z" />
    <glyph glyph-name="uni02EB" unicode="&#x2eb;" horiz-adv-x="431" 
d="M401 237h-246v-237h-63v298v237h63v-237h246v-61z" />
    <glyph glyph-name="uni02EC" unicode="&#x2ec;" horiz-adv-x="395" 
d="M339 -60v-10l-102 -159h-80l-102 159v10h58l85 -111l86 111h55z" />
    <glyph glyph-name="uni02ED" unicode="&#x2ed;" horiz-adv-x="510" 
d="M90 725h330v-66h-330v66zM90 555h330v-66h-330v66z" />
    </font>
</defs>
</svg>
